<?xml version='1.0' encoding='UTF-8'?>
<svg width="129.6mm" height="129.6mm" version="1.1" viewBox="0 0 129.6 129.6" xmlns="http://www.w3.org/2000/svg"><path d="M6.4,6.4H8V8H6.4zM8,6.4H9.6V8H8zM9.6,6.4H11.2V8H9.6zM11.2,6.4H12.8V8H11.2zM12.8,6.4H14.4V8H12.8zM14.4,6.4H16V8H14.4zM16,6.4H17.6V8H16zM19.2,6.4H20.8V8H19.2zM20.8,6.4H22.4V8H20.8zM28.8,6.4H30.4V8H28.8zM32,6.4H33.6V8H32zM33.6,6.4H35.2V8H33.6zM40,6.4H41.6V8H40zM44.8,6.4H46.4V8H44.8zM46.4,6.4H48V8H46.4zM51.2,6.4H52.8V8H51.2zM52.8,6.4H54.4V8H52.8zM64,6.4H65.6V8H64zM65.6,6.4H67.2V8H65.6zM68.8,6.4H70.4V8H68.8zM72,6.4H73.6V8H72zM73.6,6.4H75.2V8H73.6zM78.4,6.4H80V8H78.4zM81.6,6.4H83.2V8H81.6zM83.2,6.4H84.8V8H83.2zM86.4,6.4H88V8H86.4zM89.6,6.4H91.2V8H89.6zM94.4,6.4H96V8H94.4zM96,6.4H97.6V8H96zM97.6,6.4H99.2V8H97.6zM99.2,6.4H100.8V8H99.2zM104,6.4H105.6V8H104zM105.6,6.4H107.2V8H105.6zM108.8,6.4H110.4V8H108.8zM112,6.4H113.6V8H112zM113.6,6.4H115.2V8H113.6zM115.2,6.4H116.8V8H115.2zM116.8,6.4H118.4V8H116.8zM118.4,6.4H120V8H118.4zM120,6.4H121.6V8H120zM121.6,6.4H123.2V8H121.6zM6.4,8H8V9.6H6.4zM16,8H17.6V9.6H16zM19.2,8H20.8V9.6H19.2zM22.4,8H24V9.6H22.4zM24,8H25.6V9.6H24zM25.6,8H27.2V9.6H25.6zM32,8H33.6V9.6H32zM33.6,8H35.2V9.6H33.6zM36.8,8H38.4V9.6H36.8zM40,8H41.6V9.6H40zM41.6,8H43.2V9.6H41.6zM44.8,8H46.4V9.6H44.8zM49.6,8H51.2V9.6H49.6zM54.4,8H56V9.6H54.4zM64,8H65.6V9.6H64zM65.6,8H67.2V9.6H65.6zM68.8,8H70.4V9.6H68.8zM70.4,8H72V9.6H70.4zM73.6,8H75.2V9.6H73.6zM76.8,8H78.4V9.6H76.8zM78.4,8H80V9.6H78.4zM81.6,8H83.2V9.6H81.6zM83.2,8H84.8V9.6H83.2zM84.8,8H86.4V9.6H84.8zM86.4,8H88V9.6H86.4zM89.6,8H91.2V9.6H89.6zM91.2,8H92.8V9.6H91.2zM94.4,8H96V9.6H94.4zM96,8H97.6V9.6H96zM105.6,8H107.2V9.6H105.6zM112,8H113.6V9.6H112zM121.6,8H123.2V9.6H121.6zM6.4,9.6H8V11.2H6.4zM9.6,9.6H11.2V11.2H9.6zM11.2,9.6H12.8V11.2H11.2zM12.8,9.6H14.4V11.2H12.8zM16,9.6H17.6V11.2H16zM19.2,9.6H20.8V11.2H19.2zM22.4,9.6H24V11.2H22.4zM25.6,9.6H27.2V11.2H25.6zM33.6,9.6H35.2V11.2H33.6zM35.2,9.6H36.8V11.2H35.2zM36.8,9.6H38.4V11.2H36.8zM38.4,9.6H40V11.2H38.4zM41.6,9.6H43.2V11.2H41.6zM48,9.6H49.6V11.2H48zM49.6,9.6H51.2V11.2H49.6zM51.2,9.6H52.8V11.2H51.2zM54.4,9.6H56V11.2H54.4zM56,9.6H57.6V11.2H56zM57.6,9.6H59.2V11.2H57.6zM59.2,9.6H60.8V11.2H59.2zM60.8,9.6H62.4V11.2H60.8zM64,9.6H65.6V11.2H64zM65.6,9.6H67.2V11.2H65.6zM72,9.6H73.6V11.2H72zM73.6,9.6H75.2V11.2H73.6zM80,9.6H81.6V11.2H80zM81.6,9.6H83.2V11.2H81.6zM84.8,9.6H86.4V11.2H84.8zM89.6,9.6H91.2V11.2H89.6zM92.8,9.6H94.4V11.2H92.8zM94.4,9.6H96V11.2H94.4zM96,9.6H97.6V11.2H96zM97.6,9.6H99.2V11.2H97.6zM99.2,9.6H100.8V11.2H99.2zM100.8,9.6H102.4V11.2H100.8zM112,9.6H113.6V11.2H112zM115.2,9.6H116.8V11.2H115.2zM116.8,9.6H118.4V11.2H116.8zM118.4,9.6H120V11.2H118.4zM121.6,9.6H123.2V11.2H121.6zM6.4,11.2H8V12.8H6.4zM9.6,11.2H11.2V12.8H9.6zM11.2,11.2H12.8V12.8H11.2zM12.8,11.2H14.4V12.8H12.8zM16,11.2H17.6V12.8H16zM22.4,11.2H24V12.8H22.4zM24,11.2H25.6V12.8H24zM25.6,11.2H27.2V12.8H25.6zM28.8,11.2H30.4V12.8H28.8zM30.4,11.2H32V12.8H30.4zM32,11.2H33.6V12.8H32zM33.6,11.2H35.2V12.8H33.6zM35.2,11.2H36.8V12.8H35.2zM43.2,11.2H44.8V12.8H43.2zM44.8,11.2H46.4V12.8H44.8zM46.4,11.2H48V12.8H46.4zM48,11.2H49.6V12.8H48zM49.6,11.2H51.2V12.8H49.6zM51.2,11.2H52.8V12.8H51.2zM52.8,11.2H54.4V12.8H52.8zM56,11.2H57.6V12.8H56zM59.2,11.2H60.8V12.8H59.2zM60.8,11.2H62.4V12.8H60.8zM62.4,11.2H64V12.8H62.4zM64,11.2H65.6V12.8H64zM65.6,11.2H67.2V12.8H65.6zM67.2,11.2H68.8V12.8H67.2zM68.8,11.2H70.4V12.8H68.8zM70.4,11.2H72V12.8H70.4zM75.2,11.2H76.8V12.8H75.2zM78.4,11.2H80V12.8H78.4zM81.6,11.2H83.2V12.8H81.6zM88,11.2H89.6V12.8H88zM92.8,11.2H94.4V12.8H92.8zM96,11.2H97.6V12.8H96zM97.6,11.2H99.2V12.8H97.6zM105.6,11.2H107.2V12.8H105.6zM107.2,11.2H108.8V12.8H107.2zM112,11.2H113.6V12.8H112zM115.2,11.2H116.8V12.8H115.2zM116.8,11.2H118.4V12.8H116.8zM118.4,11.2H120V12.8H118.4zM121.6,11.2H123.2V12.8H121.6zM6.4,12.8H8V14.4H6.4zM9.6,12.8H11.2V14.4H9.6zM11.2,12.8H12.8V14.4H11.2zM12.8,12.8H14.4V14.4H12.8zM16,12.8H17.6V14.4H16zM24,12.8H25.6V14.4H24zM27.2,12.8H28.8V14.4H27.2zM28.8,12.8H30.4V14.4H28.8zM33.6,12.8H35.2V14.4H33.6zM35.2,12.8H36.8V14.4H35.2zM36.8,12.8H38.4V14.4H36.8zM38.4,12.8H40V14.4H38.4zM44.8,12.8H46.4V14.4H44.8zM46.4,12.8H48V14.4H46.4zM48,12.8H49.6V14.4H48zM49.6,12.8H51.2V14.4H49.6zM51.2,12.8H52.8V14.4H51.2zM52.8,12.8H54.4V14.4H52.8zM57.6,12.8H59.2V14.4H57.6zM59.2,12.8H60.8V14.4H59.2zM62.4,12.8H64V14.4H62.4zM65.6,12.8H67.2V14.4H65.6zM67.2,12.8H68.8V14.4H67.2zM70.4,12.8H72V14.4H70.4zM72,12.8H73.6V14.4H72zM75.2,12.8H76.8V14.4H75.2zM76.8,12.8H78.4V14.4H76.8zM78.4,12.8H80V14.4H78.4zM80,12.8H81.6V14.4H80zM81.6,12.8H83.2V14.4H81.6zM83.2,12.8H84.8V14.4H83.2zM88,12.8H89.6V14.4H88zM97.6,12.8H99.2V14.4H97.6zM99.2,12.8H100.8V14.4H99.2zM102.4,12.8H104V14.4H102.4zM104,12.8H105.6V14.4H104zM107.2,12.8H108.8V14.4H107.2zM108.8,12.8H110.4V14.4H108.8zM112,12.8H113.6V14.4H112zM115.2,12.8H116.8V14.4H115.2zM116.8,12.8H118.4V14.4H116.8zM118.4,12.8H120V14.4H118.4zM121.6,12.8H123.2V14.4H121.6zM6.4,14.4H8V16H6.4zM16,14.4H17.6V16H16zM19.2,14.4H20.8V16H19.2zM20.8,14.4H22.4V16H20.8zM22.4,14.4H24V16H22.4zM25.6,14.4H27.2V16H25.6zM27.2,14.4H28.8V16H27.2zM28.8,14.4H30.4V16H28.8zM32,14.4H33.6V16H32zM36.8,14.4H38.4V16H36.8zM38.4,14.4H40V16H38.4zM40,14.4H41.6V16H40zM41.6,14.4H43.2V16H41.6zM44.8,14.4H46.4V16H44.8zM51.2,14.4H52.8V16H51.2zM52.8,14.4H54.4V16H52.8zM54.4,14.4H56V16H54.4zM56,14.4H57.6V16H56zM59.2,14.4H60.8V16H59.2zM60.8,14.4H62.4V16H60.8zM62.4,14.4H64V16H62.4zM65.6,14.4H67.2V16H65.6zM67.2,14.4H68.8V16H67.2zM70.4,14.4H72V16H70.4zM75.2,14.4H76.8V16H75.2zM76.8,14.4H78.4V16H76.8zM83.2,14.4H84.8V16H83.2zM84.8,14.4H86.4V16H84.8zM88,14.4H89.6V16H88zM92.8,14.4H94.4V16H92.8zM99.2,14.4H100.8V16H99.2zM100.8,14.4H102.4V16H100.8zM102.4,14.4H104V16H102.4zM104,14.4H105.6V16H104zM105.6,14.4H107.2V16H105.6zM112,14.4H113.6V16H112zM121.6,14.4H123.2V16H121.6zM6.4,16H8V17.6H6.4zM8,16H9.6V17.6H8zM9.6,16H11.2V17.6H9.6zM11.2,16H12.8V17.6H11.2zM12.8,16H14.4V17.6H12.8zM14.4,16H16V17.6H14.4zM16,16H17.6V17.6H16zM19.2,16H20.8V17.6H19.2zM22.4,16H24V17.6H22.4zM25.6,16H27.2V17.6H25.6zM28.8,16H30.4V17.6H28.8zM32,16H33.6V17.6H32zM35.2,16H36.8V17.6H35.2zM38.4,16H40V17.6H38.4zM41.6,16H43.2V17.6H41.6zM44.8,16H46.4V17.6H44.8zM48,16H49.6V17.6H48zM51.2,16H52.8V17.6H51.2zM54.4,16H56V17.6H54.4zM57.6,16H59.2V17.6H57.6zM60.8,16H62.4V17.6H60.8zM64,16H65.6V17.6H64zM67.2,16H68.8V17.6H67.2zM70.4,16H72V17.6H70.4zM73.6,16H75.2V17.6H73.6zM76.8,16H78.4V17.6H76.8zM80,16H81.6V17.6H80zM83.2,16H84.8V17.6H83.2zM86.4,16H88V17.6H86.4zM89.6,16H91.2V17.6H89.6zM92.8,16H94.4V17.6H92.8zM96,16H97.6V17.6H96zM99.2,16H100.8V17.6H99.2zM102.4,16H104V17.6H102.4zM105.6,16H107.2V17.6H105.6zM108.8,16H110.4V17.6H108.8zM112,16H113.6V17.6H112zM113.6,16H115.2V17.6H113.6zM115.2,16H116.8V17.6H115.2zM116.8,16H118.4V17.6H116.8zM118.4,16H120V17.6H118.4zM120,16H121.6V17.6H120zM121.6,16H123.2V17.6H121.6zM19.2,17.6H20.8V19.2H19.2zM22.4,17.6H24V19.2H22.4zM25.6,17.6H27.2V19.2H25.6zM28.8,17.6H30.4V19.2H28.8zM33.6,17.6H35.2V19.2H33.6zM36.8,17.6H38.4V19.2H36.8zM41.6,17.6H43.2V19.2H41.6zM43.2,17.6H44.8V19.2H43.2zM44.8,17.6H46.4V19.2H44.8zM51.2,17.6H52.8V19.2H51.2zM54.4,17.6H56V19.2H54.4zM57.6,17.6H59.2V19.2H57.6zM59.2,17.6H60.8V19.2H59.2zM60.8,17.6H62.4V19.2H60.8zM62.4,17.6H64V19.2H62.4zM65.6,17.6H67.2V19.2H65.6zM67.2,17.6H68.8V19.2H67.2zM68.8,17.6H70.4V19.2H68.8zM75.2,17.6H76.8V19.2H75.2zM76.8,17.6H78.4V19.2H76.8zM83.2,17.6H84.8V19.2H83.2zM86.4,17.6H88V19.2H86.4zM89.6,17.6H91.2V19.2H89.6zM91.2,17.6H92.8V19.2H91.2zM94.4,17.6H96V19.2H94.4zM96,17.6H97.6V19.2H96zM97.6,17.6H99.2V19.2H97.6zM100.8,17.6H102.4V19.2H100.8zM104,17.6H105.6V19.2H104zM107.2,17.6H108.8V19.2H107.2zM9.6,19.2H11.2V20.8H9.6zM11.2,19.2H12.8V20.8H11.2zM12.8,19.2H14.4V20.8H12.8zM16,19.2H17.6V20.8H16zM19.2,19.2H20.8V20.8H19.2zM20.8,19.2H22.4V20.8H20.8zM22.4,19.2H24V20.8H22.4zM25.6,19.2H27.2V20.8H25.6zM30.4,19.2H32V20.8H30.4zM32,19.2H33.6V20.8H32zM36.8,19.2H38.4V20.8H36.8zM44.8,19.2H46.4V20.8H44.8zM46.4,19.2H48V20.8H46.4zM48,19.2H49.6V20.8H48zM49.6,19.2H51.2V20.8H49.6zM51.2,19.2H52.8V20.8H51.2zM54.4,19.2H56V20.8H54.4zM59.2,19.2H60.8V20.8H59.2zM60.8,19.2H62.4V20.8H60.8zM62.4,19.2H64V20.8H62.4zM64,19.2H65.6V20.8H64zM65.6,19.2H67.2V20.8H65.6zM67.2,19.2H68.8V20.8H67.2zM72,19.2H73.6V20.8H72zM75.2,19.2H76.8V20.8H75.2zM76.8,19.2H78.4V20.8H76.8zM78.4,19.2H80V20.8H78.4zM80,19.2H81.6V20.8H80zM81.6,19.2H83.2V20.8H81.6zM83.2,19.2H84.8V20.8H83.2zM84.8,19.2H86.4V20.8H84.8zM88,19.2H89.6V20.8H88zM91.2,19.2H92.8V20.8H91.2zM96,19.2H97.6V20.8H96zM97.6,19.2H99.2V20.8H97.6zM102.4,19.2H104V20.8H102.4zM104,19.2H105.6V20.8H104zM105.6,19.2H107.2V20.8H105.6zM110.4,19.2H112V20.8H110.4zM112,19.2H113.6V20.8H112zM113.6,19.2H115.2V20.8H113.6zM118.4,19.2H120V20.8H118.4zM120,19.2H121.6V20.8H120zM121.6,19.2H123.2V20.8H121.6zM25.6,20.8H27.2V22.4H25.6zM30.4,20.8H32V22.4H30.4zM33.6,20.8H35.2V22.4H33.6zM35.2,20.8H36.8V22.4H35.2zM38.4,20.8H40V22.4H38.4zM40,20.8H41.6V22.4H40zM41.6,20.8H43.2V22.4H41.6zM44.8,20.8H46.4V22.4H44.8zM49.6,20.8H51.2V22.4H49.6zM52.8,20.8H54.4V22.4H52.8zM56,20.8H57.6V22.4H56zM57.6,20.8H59.2V22.4H57.6zM59.2,20.8H60.8V22.4H59.2zM62.4,20.8H64V22.4H62.4zM67.2,20.8H68.8V22.4H67.2zM75.2,20.8H76.8V22.4H75.2zM76.8,20.8H78.4V22.4H76.8zM78.4,20.8H80V22.4H78.4zM80,20.8H81.6V22.4H80zM83.2,20.8H84.8V22.4H83.2zM86.4,20.8H88V22.4H86.4zM89.6,20.8H91.2V22.4H89.6zM96,20.8H97.6V22.4H96zM97.6,20.8H99.2V22.4H97.6zM99.2,20.8H100.8V22.4H99.2zM100.8,20.8H102.4V22.4H100.8zM105.6,20.8H107.2V22.4H105.6zM107.2,20.8H108.8V22.4H107.2zM108.8,20.8H110.4V22.4H108.8zM113.6,20.8H115.2V22.4H113.6zM115.2,20.8H116.8V22.4H115.2zM116.8,20.8H118.4V22.4H116.8zM120,20.8H121.6V22.4H120zM9.6,22.4H11.2V24H9.6zM12.8,22.4H14.4V24H12.8zM16,22.4H17.6V24H16zM17.6,22.4H19.2V24H17.6zM24,22.4H25.6V24H24zM27.2,22.4H28.8V24H27.2zM32,22.4H33.6V24H32zM33.6,22.4H35.2V24H33.6zM40,22.4H41.6V24H40zM43.2,22.4H44.8V24H43.2zM49.6,22.4H51.2V24H49.6zM51.2,22.4H52.8V24H51.2zM56,22.4H57.6V24H56zM57.6,22.4H59.2V24H57.6zM68.8,22.4H70.4V24H68.8zM70.4,22.4H72V24H70.4zM72,22.4H73.6V24H72zM81.6,22.4H83.2V24H81.6zM83.2,22.4H84.8V24H83.2zM86.4,22.4H88V24H86.4zM88,22.4H89.6V24H88zM89.6,22.4H91.2V24H89.6zM91.2,22.4H92.8V24H91.2zM92.8,22.4H94.4V24H92.8zM99.2,22.4H100.8V24H99.2zM100.8,22.4H102.4V24H100.8zM102.4,22.4H104V24H102.4zM104,22.4H105.6V24H104zM105.6,22.4H107.2V24H105.6zM107.2,22.4H108.8V24H107.2zM108.8,22.4H110.4V24H108.8zM112,22.4H113.6V24H112zM116.8,22.4H118.4V24H116.8zM120,22.4H121.6V24H120zM121.6,22.4H123.2V24H121.6zM9.6,24H11.2V25.6H9.6zM11.2,24H12.8V25.6H11.2zM17.6,24H19.2V25.6H17.6zM19.2,24H20.8V25.6H19.2zM25.6,24H27.2V25.6H25.6zM30.4,24H32V25.6H30.4zM32,24H33.6V25.6H32zM40,24H41.6V25.6H40zM41.6,24H43.2V25.6H41.6zM43.2,24H44.8V25.6H43.2zM44.8,24H46.4V25.6H44.8zM48,24H49.6V25.6H48zM57.6,24H59.2V25.6H57.6zM60.8,24H62.4V25.6H60.8zM62.4,24H64V25.6H62.4zM64,24H65.6V25.6H64zM68.8,24H70.4V25.6H68.8zM72,24H73.6V25.6H72zM73.6,24H75.2V25.6H73.6zM78.4,24H80V25.6H78.4zM88,24H89.6V25.6H88zM92.8,24H94.4V25.6H92.8zM94.4,24H96V25.6H94.4zM100.8,24H102.4V25.6H100.8zM102.4,24H104V25.6H102.4zM104,24H105.6V25.6H104zM108.8,24H110.4V25.6H108.8zM113.6,24H115.2V25.6H113.6zM116.8,24H118.4V25.6H116.8zM118.4,24H120V25.6H118.4zM121.6,24H123.2V25.6H121.6zM6.4,25.6H8V27.2H6.4zM9.6,25.6H11.2V27.2H9.6zM12.8,25.6H14.4V27.2H12.8zM14.4,25.6H16V27.2H14.4zM16,25.6H17.6V27.2H16zM19.2,25.6H20.8V27.2H19.2zM20.8,25.6H22.4V27.2H20.8zM22.4,25.6H24V27.2H22.4zM24,25.6H25.6V27.2H24zM25.6,25.6H27.2V27.2H25.6zM27.2,25.6H28.8V27.2H27.2zM36.8,25.6H38.4V27.2H36.8zM38.4,25.6H40V27.2H38.4zM43.2,25.6H44.8V27.2H43.2zM44.8,25.6H46.4V27.2H44.8zM48,25.6H49.6V27.2H48zM49.6,25.6H51.2V27.2H49.6zM51.2,25.6H52.8V27.2H51.2zM59.2,25.6H60.8V27.2H59.2zM62.4,25.6H64V27.2H62.4zM67.2,25.6H68.8V27.2H67.2zM75.2,25.6H76.8V27.2H75.2zM76.8,25.6H78.4V27.2H76.8zM78.4,25.6H80V27.2H78.4zM80,25.6H81.6V27.2H80zM81.6,25.6H83.2V27.2H81.6zM83.2,25.6H84.8V27.2H83.2zM86.4,25.6H88V27.2H86.4zM88,25.6H89.6V27.2H88zM89.6,25.6H91.2V27.2H89.6zM96,25.6H97.6V27.2H96zM97.6,25.6H99.2V27.2H97.6zM99.2,25.6H100.8V27.2H99.2zM104,25.6H105.6V27.2H104zM105.6,25.6H107.2V27.2H105.6zM110.4,25.6H112V27.2H110.4zM115.2,25.6H116.8V27.2H115.2zM118.4,25.6H120V27.2H118.4zM121.6,25.6H123.2V27.2H121.6zM6.4,27.2H8V28.8H6.4zM9.6,27.2H11.2V28.8H9.6zM19.2,27.2H20.8V28.8H19.2zM24,27.2H25.6V28.8H24zM27.2,27.2H28.8V28.8H27.2zM28.8,27.2H30.4V28.8H28.8zM30.4,27.2H32V28.8H30.4zM32,27.2H33.6V28.8H32zM33.6,27.2H35.2V28.8H33.6zM35.2,27.2H36.8V28.8H35.2zM36.8,27.2H38.4V28.8H36.8zM46.4,27.2H48V28.8H46.4zM56,27.2H57.6V28.8H56zM57.6,27.2H59.2V28.8H57.6zM60.8,27.2H62.4V28.8H60.8zM65.6,27.2H67.2V28.8H65.6zM68.8,27.2H70.4V28.8H68.8zM70.4,27.2H72V28.8H70.4zM78.4,27.2H80V28.8H78.4zM80,27.2H81.6V28.8H80zM83.2,27.2H84.8V28.8H83.2zM86.4,27.2H88V28.8H86.4zM88,27.2H89.6V28.8H88zM94.4,27.2H96V28.8H94.4zM97.6,27.2H99.2V28.8H97.6zM99.2,27.2H100.8V28.8H99.2zM102.4,27.2H104V28.8H102.4zM107.2,27.2H108.8V28.8H107.2zM108.8,27.2H110.4V28.8H108.8zM110.4,27.2H112V28.8H110.4zM112,27.2H113.6V28.8H112zM6.4,28.8H8V30.4H6.4zM8,28.8H9.6V30.4H8zM9.6,28.8H11.2V30.4H9.6zM12.8,28.8H14.4V30.4H12.8zM16,28.8H17.6V30.4H16zM17.6,28.8H19.2V30.4H17.6zM20.8,28.8H22.4V30.4H20.8zM22.4,28.8H24V30.4H22.4zM24,28.8H25.6V30.4H24zM30.4,28.8H32V30.4H30.4zM33.6,28.8H35.2V30.4H33.6zM35.2,28.8H36.8V30.4H35.2zM36.8,28.8H38.4V30.4H36.8zM38.4,28.8H40V30.4H38.4zM40,28.8H41.6V30.4H40zM41.6,28.8H43.2V30.4H41.6zM44.8,28.8H46.4V30.4H44.8zM49.6,28.8H51.2V30.4H49.6zM54.4,28.8H56V30.4H54.4zM57.6,28.8H59.2V30.4H57.6zM59.2,28.8H60.8V30.4H59.2zM64,28.8H65.6V30.4H64zM67.2,28.8H68.8V30.4H67.2zM72,28.8H73.6V30.4H72zM78.4,28.8H80V30.4H78.4zM83.2,28.8H84.8V30.4H83.2zM84.8,28.8H86.4V30.4H84.8zM86.4,28.8H88V30.4H86.4zM88,28.8H89.6V30.4H88zM91.2,28.8H92.8V30.4H91.2zM96,28.8H97.6V30.4H96zM99.2,28.8H100.8V30.4H99.2zM100.8,28.8H102.4V30.4H100.8zM102.4,28.8H104V30.4H102.4zM104,28.8H105.6V30.4H104zM105.6,28.8H107.2V30.4H105.6zM107.2,28.8H108.8V30.4H107.2zM108.8,28.8H110.4V30.4H108.8zM110.4,28.8H112V30.4H110.4zM112,28.8H113.6V30.4H112zM113.6,28.8H115.2V30.4H113.6zM115.2,28.8H116.8V30.4H115.2zM121.6,28.8H123.2V30.4H121.6zM8,30.4H9.6V32H8zM11.2,30.4H12.8V32H11.2zM14.4,30.4H16V32H14.4zM17.6,30.4H19.2V32H17.6zM19.2,30.4H20.8V32H19.2zM20.8,30.4H22.4V32H20.8zM24,30.4H25.6V32H24zM25.6,30.4H27.2V32H25.6zM27.2,30.4H28.8V32H27.2zM30.4,30.4H32V32H30.4zM32,30.4H33.6V32H32zM35.2,30.4H36.8V32H35.2zM36.8,30.4H38.4V32H36.8zM40,30.4H41.6V32H40zM41.6,30.4H43.2V32H41.6zM43.2,30.4H44.8V32H43.2zM46.4,30.4H48V32H46.4zM49.6,30.4H51.2V32H49.6zM52.8,30.4H54.4V32H52.8zM56,30.4H57.6V32H56zM57.6,30.4H59.2V32H57.6zM60.8,30.4H62.4V32H60.8zM72,30.4H73.6V32H72zM80,30.4H81.6V32H80zM81.6,30.4H83.2V32H81.6zM83.2,30.4H84.8V32H83.2zM91.2,30.4H92.8V32H91.2zM92.8,30.4H94.4V32H92.8zM94.4,30.4H96V32H94.4zM96,30.4H97.6V32H96zM99.2,30.4H100.8V32H99.2zM107.2,30.4H108.8V32H107.2zM110.4,30.4H112V32H110.4zM113.6,30.4H115.2V32H113.6zM121.6,30.4H123.2V32H121.6zM12.8,32H14.4V33.6H12.8zM16,32H17.6V33.6H16zM17.6,32H19.2V33.6H17.6zM22.4,32H24V33.6H22.4zM24,32H25.6V33.6H24zM40,32H41.6V33.6H40zM41.6,32H43.2V33.6H41.6zM43.2,32H44.8V33.6H43.2zM46.4,32H48V33.6H46.4zM52.8,32H54.4V33.6H52.8zM54.4,32H56V33.6H54.4zM57.6,32H59.2V33.6H57.6zM59.2,32H60.8V33.6H59.2zM60.8,32H62.4V33.6H60.8zM67.2,32H68.8V33.6H67.2zM75.2,32H76.8V33.6H75.2zM76.8,32H78.4V33.6H76.8zM80,32H81.6V33.6H80zM81.6,32H83.2V33.6H81.6zM84.8,32H86.4V33.6H84.8zM86.4,32H88V33.6H86.4zM88,32H89.6V33.6H88zM91.2,32H92.8V33.6H91.2zM97.6,32H99.2V33.6H97.6zM99.2,32H100.8V33.6H99.2zM102.4,32H104V33.6H102.4zM108.8,32H110.4V33.6H108.8zM112,32H113.6V33.6H112zM115.2,32H116.8V33.6H115.2zM118.4,32H120V33.6H118.4zM120,32H121.6V33.6H120zM9.6,33.6H11.2V35.2H9.6zM12.8,33.6H14.4V35.2H12.8zM17.6,33.6H19.2V35.2H17.6zM19.2,33.6H20.8V35.2H19.2zM22.4,33.6H24V35.2H22.4zM25.6,33.6H27.2V35.2H25.6zM27.2,33.6H28.8V35.2H27.2zM30.4,33.6H32V35.2H30.4zM33.6,33.6H35.2V35.2H33.6zM40,33.6H41.6V35.2H40zM41.6,33.6H43.2V35.2H41.6zM44.8,33.6H46.4V35.2H44.8zM46.4,33.6H48V35.2H46.4zM48,33.6H49.6V35.2H48zM49.6,33.6H51.2V35.2H49.6zM52.8,33.6H54.4V35.2H52.8zM54.4,33.6H56V35.2H54.4zM59.2,33.6H60.8V35.2H59.2zM60.8,33.6H62.4V35.2H60.8zM62.4,33.6H64V35.2H62.4zM64,33.6H65.6V35.2H64zM65.6,33.6H67.2V35.2H65.6zM70.4,33.6H72V35.2H70.4zM73.6,33.6H75.2V35.2H73.6zM75.2,33.6H76.8V35.2H75.2zM76.8,33.6H78.4V35.2H76.8zM83.2,33.6H84.8V35.2H83.2zM86.4,33.6H88V35.2H86.4zM88,33.6H89.6V35.2H88zM89.6,33.6H91.2V35.2H89.6zM94.4,33.6H96V35.2H94.4zM96,33.6H97.6V35.2H96zM97.6,33.6H99.2V35.2H97.6zM99.2,33.6H100.8V35.2H99.2zM100.8,33.6H102.4V35.2H100.8zM102.4,33.6H104V35.2H102.4zM105.6,33.6H107.2V35.2H105.6zM107.2,33.6H108.8V35.2H107.2zM108.8,33.6H110.4V35.2H108.8zM110.4,33.6H112V35.2H110.4zM112,33.6H113.6V35.2H112zM113.6,33.6H115.2V35.2H113.6zM116.8,33.6H118.4V35.2H116.8zM6.4,35.2H8V36.8H6.4zM8,35.2H9.6V36.8H8zM9.6,35.2H11.2V36.8H9.6zM11.2,35.2H12.8V36.8H11.2zM12.8,35.2H14.4V36.8H12.8zM16,35.2H17.6V36.8H16zM22.4,35.2H24V36.8H22.4zM27.2,35.2H28.8V36.8H27.2zM32,35.2H33.6V36.8H32zM35.2,35.2H36.8V36.8H35.2zM36.8,35.2H38.4V36.8H36.8zM38.4,35.2H40V36.8H38.4zM40,35.2H41.6V36.8H40zM41.6,35.2H43.2V36.8H41.6zM43.2,35.2H44.8V36.8H43.2zM48,35.2H49.6V36.8H48zM51.2,35.2H52.8V36.8H51.2zM56,35.2H57.6V36.8H56zM57.6,35.2H59.2V36.8H57.6zM59.2,35.2H60.8V36.8H59.2zM64,35.2H65.6V36.8H64zM65.6,35.2H67.2V36.8H65.6zM67.2,35.2H68.8V36.8H67.2zM70.4,35.2H72V36.8H70.4zM72,35.2H73.6V36.8H72zM80,35.2H81.6V36.8H80zM81.6,35.2H83.2V36.8H81.6zM84.8,35.2H86.4V36.8H84.8zM86.4,35.2H88V36.8H86.4zM88,35.2H89.6V36.8H88zM91.2,35.2H92.8V36.8H91.2zM96,35.2H97.6V36.8H96zM99.2,35.2H100.8V36.8H99.2zM102.4,35.2H104V36.8H102.4zM104,35.2H105.6V36.8H104zM105.6,35.2H107.2V36.8H105.6zM107.2,35.2H108.8V36.8H107.2zM108.8,35.2H110.4V36.8H108.8zM110.4,35.2H112V36.8H110.4zM112,35.2H113.6V36.8H112zM115.2,35.2H116.8V36.8H115.2zM118.4,35.2H120V36.8H118.4zM120,35.2H121.6V36.8H120zM121.6,35.2H123.2V36.8H121.6zM8,36.8H9.6V38.4H8zM11.2,36.8H12.8V38.4H11.2zM12.8,36.8H14.4V38.4H12.8zM14.4,36.8H16V38.4H14.4zM19.2,36.8H20.8V38.4H19.2zM36.8,36.8H38.4V38.4H36.8zM38.4,36.8H40V38.4H38.4zM43.2,36.8H44.8V38.4H43.2zM46.4,36.8H48V38.4H46.4zM48,36.8H49.6V38.4H48zM49.6,36.8H51.2V38.4H49.6zM51.2,36.8H52.8V38.4H51.2zM52.8,36.8H54.4V38.4H52.8zM54.4,36.8H56V38.4H54.4zM57.6,36.8H59.2V38.4H57.6zM59.2,36.8H60.8V38.4H59.2zM60.8,36.8H62.4V38.4H60.8zM62.4,36.8H64V38.4H62.4zM64,36.8H65.6V38.4H64zM70.4,36.8H72V38.4H70.4zM72,36.8H73.6V38.4H72zM76.8,36.8H78.4V38.4H76.8zM78.4,36.8H80V38.4H78.4zM80,36.8H81.6V38.4H80zM83.2,36.8H84.8V38.4H83.2zM89.6,36.8H91.2V38.4H89.6zM92.8,36.8H94.4V38.4H92.8zM94.4,36.8H96V38.4H94.4zM96,36.8H97.6V38.4H96zM97.6,36.8H99.2V38.4H97.6zM100.8,36.8H102.4V38.4H100.8zM104,36.8H105.6V38.4H104zM105.6,36.8H107.2V38.4H105.6zM113.6,36.8H115.2V38.4H113.6zM116.8,36.8H118.4V38.4H116.8zM120,36.8H121.6V38.4H120zM6.4,38.4H8V40H6.4zM9.6,38.4H11.2V40H9.6zM11.2,38.4H12.8V40H11.2zM14.4,38.4H16V40H14.4zM16,38.4H17.6V40H16zM17.6,38.4H19.2V40H17.6zM27.2,38.4H28.8V40H27.2zM28.8,38.4H30.4V40H28.8zM33.6,38.4H35.2V40H33.6zM35.2,38.4H36.8V40H35.2zM36.8,38.4H38.4V40H36.8zM40,38.4H41.6V40H40zM44.8,38.4H46.4V40H44.8zM49.6,38.4H51.2V40H49.6zM52.8,38.4H54.4V40H52.8zM56,38.4H57.6V40H56zM57.6,38.4H59.2V40H57.6zM59.2,38.4H60.8V40H59.2zM60.8,38.4H62.4V40H60.8zM62.4,38.4H64V40H62.4zM64,38.4H65.6V40H64zM65.6,38.4H67.2V40H65.6zM70.4,38.4H72V40H70.4zM80,38.4H81.6V40H80zM81.6,38.4H83.2V40H81.6zM86.4,38.4H88V40H86.4zM88,38.4H89.6V40H88zM91.2,38.4H92.8V40H91.2zM92.8,38.4H94.4V40H92.8zM96,38.4H97.6V40H96zM97.6,38.4H99.2V40H97.6zM102.4,38.4H104V40H102.4zM108.8,38.4H110.4V40H108.8zM115.2,38.4H116.8V40H115.2zM116.8,38.4H118.4V40H116.8zM118.4,38.4H120V40H118.4zM120,38.4H121.6V40H120zM6.4,40H8V41.6H6.4zM8,40H9.6V41.6H8zM12.8,40H14.4V41.6H12.8zM14.4,40H16V41.6H14.4zM22.4,40H24V41.6H22.4zM30.4,40H32V41.6H30.4zM32,40H33.6V41.6H32zM36.8,40H38.4V41.6H36.8zM44.8,40H46.4V41.6H44.8zM46.4,40H48V41.6H46.4zM54.4,40H56V41.6H54.4zM56,40H57.6V41.6H56zM59.2,40H60.8V41.6H59.2zM60.8,40H62.4V41.6H60.8zM64,40H65.6V41.6H64zM65.6,40H67.2V41.6H65.6zM68.8,40H70.4V41.6H68.8zM75.2,40H76.8V41.6H75.2zM76.8,40H78.4V41.6H76.8zM81.6,40H83.2V41.6H81.6zM83.2,40H84.8V41.6H83.2zM86.4,40H88V41.6H86.4zM94.4,40H96V41.6H94.4zM96,40H97.6V41.6H96zM97.6,40H99.2V41.6H97.6zM99.2,40H100.8V41.6H99.2zM100.8,40H102.4V41.6H100.8zM107.2,40H108.8V41.6H107.2zM108.8,40H110.4V41.6H108.8zM112,40H113.6V41.6H112zM113.6,40H115.2V41.6H113.6zM115.2,40H116.8V41.6H115.2zM116.8,40H118.4V41.6H116.8zM6.4,41.6H8V43.2H6.4zM8,41.6H9.6V43.2H8zM11.2,41.6H12.8V43.2H11.2zM14.4,41.6H16V43.2H14.4zM16,41.6H17.6V43.2H16zM17.6,41.6H19.2V43.2H17.6zM22.4,41.6H24V43.2H22.4zM24,41.6H25.6V43.2H24zM27.2,41.6H28.8V43.2H27.2zM28.8,41.6H30.4V43.2H28.8zM32,41.6H33.6V43.2H32zM33.6,41.6H35.2V43.2H33.6zM36.8,41.6H38.4V43.2H36.8zM38.4,41.6H40V43.2H38.4zM40,41.6H41.6V43.2H40zM41.6,41.6H43.2V43.2H41.6zM43.2,41.6H44.8V43.2H43.2zM46.4,41.6H48V43.2H46.4zM49.6,41.6H51.2V43.2H49.6zM51.2,41.6H52.8V43.2H51.2zM54.4,41.6H56V43.2H54.4zM57.6,41.6H59.2V43.2H57.6zM59.2,41.6H60.8V43.2H59.2zM60.8,41.6H62.4V43.2H60.8zM62.4,41.6H64V43.2H62.4zM64,41.6H65.6V43.2H64zM65.6,41.6H67.2V43.2H65.6zM70.4,41.6H72V43.2H70.4zM72,41.6H73.6V43.2H72zM78.4,41.6H80V43.2H78.4zM80,41.6H81.6V43.2H80zM83.2,41.6H84.8V43.2H83.2zM84.8,41.6H86.4V43.2H84.8zM86.4,41.6H88V43.2H86.4zM88,41.6H89.6V43.2H88zM89.6,41.6H91.2V43.2H89.6zM91.2,41.6H92.8V43.2H91.2zM94.4,41.6H96V43.2H94.4zM96,41.6H97.6V43.2H96zM97.6,41.6H99.2V43.2H97.6zM104,41.6H105.6V43.2H104zM105.6,41.6H107.2V43.2H105.6zM107.2,41.6H108.8V43.2H107.2zM112,41.6H113.6V43.2H112zM115.2,41.6H116.8V43.2H115.2zM116.8,41.6H118.4V43.2H116.8zM120,41.6H121.6V43.2H120zM121.6,41.6H123.2V43.2H121.6zM6.4,43.2H8V44.8H6.4zM9.6,43.2H11.2V44.8H9.6zM19.2,43.2H20.8V44.8H19.2zM25.6,43.2H27.2V44.8H25.6zM30.4,43.2H32V44.8H30.4zM35.2,43.2H36.8V44.8H35.2zM38.4,43.2H40V44.8H38.4zM40,43.2H41.6V44.8H40zM41.6,43.2H43.2V44.8H41.6zM46.4,43.2H48V44.8H46.4zM49.6,43.2H51.2V44.8H49.6zM51.2,43.2H52.8V44.8H51.2zM54.4,43.2H56V44.8H54.4zM56,43.2H57.6V44.8H56zM60.8,43.2H62.4V44.8H60.8zM64,43.2H65.6V44.8H64zM65.6,43.2H67.2V44.8H65.6zM70.4,43.2H72V44.8H70.4zM73.6,43.2H75.2V44.8H73.6zM75.2,43.2H76.8V44.8H75.2zM76.8,43.2H78.4V44.8H76.8zM80,43.2H81.6V44.8H80zM81.6,43.2H83.2V44.8H81.6zM84.8,43.2H86.4V44.8H84.8zM89.6,43.2H91.2V44.8H89.6zM94.4,43.2H96V44.8H94.4zM96,43.2H97.6V44.8H96zM97.6,43.2H99.2V44.8H97.6zM99.2,43.2H100.8V44.8H99.2zM100.8,43.2H102.4V44.8H100.8zM108.8,43.2H110.4V44.8H108.8zM112,43.2H113.6V44.8H112zM113.6,43.2H115.2V44.8H113.6zM116.8,43.2H118.4V44.8H116.8zM120,43.2H121.6V44.8H120zM121.6,43.2H123.2V44.8H121.6zM6.4,44.8H8V46.4H6.4zM9.6,44.8H11.2V46.4H9.6zM11.2,44.8H12.8V46.4H11.2zM12.8,44.8H14.4V46.4H12.8zM14.4,44.8H16V46.4H14.4zM16,44.8H17.6V46.4H16zM17.6,44.8H19.2V46.4H17.6zM19.2,44.8H20.8V46.4H19.2zM22.4,44.8H24V46.4H22.4zM24,44.8H25.6V46.4H24zM25.6,44.8H27.2V46.4H25.6zM28.8,44.8H30.4V46.4H28.8zM33.6,44.8H35.2V46.4H33.6zM38.4,44.8H40V46.4H38.4zM40,44.8H41.6V46.4H40zM43.2,44.8H44.8V46.4H43.2zM44.8,44.8H46.4V46.4H44.8zM46.4,44.8H48V46.4H46.4zM48,44.8H49.6V46.4H48zM49.6,44.8H51.2V46.4H49.6zM51.2,44.8H52.8V46.4H51.2zM54.4,44.8H56V46.4H54.4zM56,44.8H57.6V46.4H56zM59.2,44.8H60.8V46.4H59.2zM64,44.8H65.6V46.4H64zM68.8,44.8H70.4V46.4H68.8zM75.2,44.8H76.8V46.4H75.2zM76.8,44.8H78.4V46.4H76.8zM78.4,44.8H80V46.4H78.4zM80,44.8H81.6V46.4H80zM81.6,44.8H83.2V46.4H81.6zM83.2,44.8H84.8V46.4H83.2zM84.8,44.8H86.4V46.4H84.8zM86.4,44.8H88V46.4H86.4zM88,44.8H89.6V46.4H88zM91.2,44.8H92.8V46.4H91.2zM92.8,44.8H94.4V46.4H92.8zM96,44.8H97.6V46.4H96zM102.4,44.8H104V46.4H102.4zM104,44.8H105.6V46.4H104zM108.8,44.8H110.4V46.4H108.8zM110.4,44.8H112V46.4H110.4zM112,44.8H113.6V46.4H112zM113.6,44.8H115.2V46.4H113.6zM115.2,44.8H116.8V46.4H115.2zM116.8,44.8H118.4V46.4H116.8zM118.4,44.8H120V46.4H118.4zM121.6,44.8H123.2V46.4H121.6zM8,46.4H9.6V48H8zM11.2,46.4H12.8V48H11.2zM12.8,46.4H14.4V48H12.8zM19.2,46.4H20.8V48H19.2zM20.8,46.4H22.4V48H20.8zM24,46.4H25.6V48H24zM25.6,46.4H27.2V48H25.6zM27.2,46.4H28.8V48H27.2zM28.8,46.4H30.4V48H28.8zM30.4,46.4H32V48H30.4zM38.4,46.4H40V48H38.4zM41.6,46.4H43.2V48H41.6zM44.8,46.4H46.4V48H44.8zM51.2,46.4H52.8V48H51.2zM52.8,46.4H54.4V48H52.8zM54.4,46.4H56V48H54.4zM60.8,46.4H62.4V48H60.8zM64,46.4H65.6V48H64zM67.2,46.4H68.8V48H67.2zM72,46.4H73.6V48H72zM73.6,46.4H75.2V48H73.6zM75.2,46.4H76.8V48H75.2zM76.8,46.4H78.4V48H76.8zM83.2,46.4H84.8V48H83.2zM86.4,46.4H88V48H86.4zM88,46.4H89.6V48H88zM89.6,46.4H91.2V48H89.6zM94.4,46.4H96V48H94.4zM97.6,46.4H99.2V48H97.6zM99.2,46.4H100.8V48H99.2zM108.8,46.4H110.4V48H108.8zM115.2,46.4H116.8V48H115.2zM116.8,46.4H118.4V48H116.8zM6.4,48H8V49.6H6.4zM9.6,48H11.2V49.6H9.6zM11.2,48H12.8V49.6H11.2zM12.8,48H14.4V49.6H12.8zM16,48H17.6V49.6H16zM19.2,48H20.8V49.6H19.2zM20.8,48H22.4V49.6H20.8zM22.4,48H24V49.6H22.4zM25.6,48H27.2V49.6H25.6zM27.2,48H28.8V49.6H27.2zM28.8,48H30.4V49.6H28.8zM35.2,48H36.8V49.6H35.2zM36.8,48H38.4V49.6H36.8zM38.4,48H40V49.6H38.4zM40,48H41.6V49.6H40zM41.6,48H43.2V49.6H41.6zM43.2,48H44.8V49.6H43.2zM44.8,48H46.4V49.6H44.8zM48,48H49.6V49.6H48zM51.2,48H52.8V49.6H51.2zM52.8,48H54.4V49.6H52.8zM56,48H57.6V49.6H56zM70.4,48H72V49.6H70.4zM72,48H73.6V49.6H72zM76.8,48H78.4V49.6H76.8zM80,48H81.6V49.6H80zM83.2,48H84.8V49.6H83.2zM84.8,48H86.4V49.6H84.8zM86.4,48H88V49.6H86.4zM88,48H89.6V49.6H88zM91.2,48H92.8V49.6H91.2zM92.8,48H94.4V49.6H92.8zM102.4,48H104V49.6H102.4zM105.6,48H107.2V49.6H105.6zM107.2,48H108.8V49.6H107.2zM108.8,48H110.4V49.6H108.8zM112,48H113.6V49.6H112zM115.2,48H116.8V49.6H115.2zM118.4,48H120V49.6H118.4zM121.6,48H123.2V49.6H121.6zM8,49.6H9.6V51.2H8zM9.6,49.6H11.2V51.2H9.6zM12.8,49.6H14.4V51.2H12.8zM19.2,49.6H20.8V51.2H19.2zM24,49.6H25.6V51.2H24zM25.6,49.6H27.2V51.2H25.6zM27.2,49.6H28.8V51.2H27.2zM30.4,49.6H32V51.2H30.4zM32,49.6H33.6V51.2H32zM36.8,49.6H38.4V51.2H36.8zM38.4,49.6H40V51.2H38.4zM40,49.6H41.6V51.2H40zM41.6,49.6H43.2V51.2H41.6zM44.8,49.6H46.4V51.2H44.8zM51.2,49.6H52.8V51.2H51.2zM54.4,49.6H56V51.2H54.4zM59.2,49.6H60.8V51.2H59.2zM60.8,49.6H62.4V51.2H60.8zM62.4,49.6H64V51.2H62.4zM64,49.6H65.6V51.2H64zM65.6,49.6H67.2V51.2H65.6zM67.2,49.6H68.8V51.2H67.2zM68.8,49.6H70.4V51.2H68.8zM72,49.6H73.6V51.2H72zM73.6,49.6H75.2V51.2H73.6zM75.2,49.6H76.8V51.2H75.2zM76.8,49.6H78.4V51.2H76.8zM83.2,49.6H84.8V51.2H83.2zM88,49.6H89.6V51.2H88zM89.6,49.6H91.2V51.2H89.6zM92.8,49.6H94.4V51.2H92.8zM96,49.6H97.6V51.2H96zM99.2,49.6H100.8V51.2H99.2zM100.8,49.6H102.4V51.2H100.8zM102.4,49.6H104V51.2H102.4zM104,49.6H105.6V51.2H104zM108.8,49.6H110.4V51.2H108.8zM115.2,49.6H116.8V51.2H115.2zM120,49.6H121.6V51.2H120zM6.4,51.2H8V52.8H6.4zM11.2,51.2H12.8V52.8H11.2zM12.8,51.2H14.4V52.8H12.8zM14.4,51.2H16V52.8H14.4zM16,51.2H17.6V52.8H16zM17.6,51.2H19.2V52.8H17.6zM19.2,51.2H20.8V52.8H19.2zM20.8,51.2H22.4V52.8H20.8zM24,51.2H25.6V52.8H24zM25.6,51.2H27.2V52.8H25.6zM27.2,51.2H28.8V52.8H27.2zM30.4,51.2H32V52.8H30.4zM35.2,51.2H36.8V52.8H35.2zM36.8,51.2H38.4V52.8H36.8zM38.4,51.2H40V52.8H38.4zM40,51.2H41.6V52.8H40zM41.6,51.2H43.2V52.8H41.6zM44.8,51.2H46.4V52.8H44.8zM46.4,51.2H48V52.8H46.4zM48,51.2H49.6V52.8H48zM49.6,51.2H51.2V52.8H49.6zM51.2,51.2H52.8V52.8H51.2zM54.4,51.2H56V52.8H54.4zM56,51.2H57.6V52.8H56zM57.6,51.2H59.2V52.8H57.6zM60.8,51.2H62.4V52.8H60.8zM62.4,51.2H64V52.8H62.4zM67.2,51.2H68.8V52.8H67.2zM68.8,51.2H70.4V52.8H68.8zM75.2,51.2H76.8V52.8H75.2zM76.8,51.2H78.4V52.8H76.8zM78.4,51.2H80V52.8H78.4zM80,51.2H81.6V52.8H80zM81.6,51.2H83.2V52.8H81.6zM83.2,51.2H84.8V52.8H83.2zM86.4,51.2H88V52.8H86.4zM88,51.2H89.6V52.8H88zM97.6,51.2H99.2V52.8H97.6zM107.2,51.2H108.8V52.8H107.2zM108.8,51.2H110.4V52.8H108.8zM110.4,51.2H112V52.8H110.4zM112,51.2H113.6V52.8H112zM113.6,51.2H115.2V52.8H113.6zM115.2,51.2H116.8V52.8H115.2zM118.4,51.2H120V52.8H118.4zM121.6,51.2H123.2V52.8H121.6zM8,52.8H9.6V54.4H8zM11.2,52.8H12.8V54.4H11.2zM12.8,52.8H14.4V54.4H12.8zM19.2,52.8H20.8V54.4H19.2zM24,52.8H25.6V54.4H24zM27.2,52.8H28.8V54.4H27.2zM28.8,52.8H30.4V54.4H28.8zM33.6,52.8H35.2V54.4H33.6zM36.8,52.8H38.4V54.4H36.8zM41.6,52.8H43.2V54.4H41.6zM46.4,52.8H48V54.4H46.4zM48,52.8H49.6V54.4H48zM49.6,52.8H51.2V54.4H49.6zM51.2,52.8H52.8V54.4H51.2zM56,52.8H57.6V54.4H56zM62.4,52.8H64V54.4H62.4zM67.2,52.8H68.8V54.4H67.2zM68.8,52.8H70.4V54.4H68.8zM72,52.8H73.6V54.4H72zM75.2,52.8H76.8V54.4H75.2zM76.8,52.8H78.4V54.4H76.8zM78.4,52.8H80V54.4H78.4zM83.2,52.8H84.8V54.4H83.2zM92.8,52.8H94.4V54.4H92.8zM94.4,52.8H96V54.4H94.4zM97.6,52.8H99.2V54.4H97.6zM99.2,52.8H100.8V54.4H99.2zM100.8,52.8H102.4V54.4H100.8zM107.2,52.8H108.8V54.4H107.2zM108.8,52.8H110.4V54.4H108.8zM115.2,52.8H116.8V54.4H115.2zM120,52.8H121.6V54.4H120zM6.4,54.4H8V56H6.4zM8,54.4H9.6V56H8zM9.6,54.4H11.2V56H9.6zM11.2,54.4H12.8V56H11.2zM12.8,54.4H14.4V56H12.8zM16,54.4H17.6V56H16zM17.6,54.4H19.2V56H17.6zM20.8,54.4H22.4V56H20.8zM22.4,54.4H24V56H22.4zM24,54.4H25.6V56H24zM25.6,54.4H27.2V56H25.6zM27.2,54.4H28.8V56H27.2zM28.8,54.4H30.4V56H28.8zM30.4,54.4H32V56H30.4zM35.2,54.4H36.8V56H35.2zM36.8,54.4H38.4V56H36.8zM38.4,54.4H40V56H38.4zM40,54.4H41.6V56H40zM41.6,54.4H43.2V56H41.6zM44.8,54.4H46.4V56H44.8zM48,54.4H49.6V56H48zM51.2,54.4H52.8V56H51.2zM52.8,54.4H54.4V56H52.8zM54.4,54.4H56V56H54.4zM57.6,54.4H59.2V56H57.6zM62.4,54.4H64V56H62.4zM64,54.4H65.6V56H64zM67.2,54.4H68.8V56H67.2zM73.6,54.4H75.2V56H73.6zM75.2,54.4H76.8V56H75.2zM78.4,54.4H80V56H78.4zM83.2,54.4H84.8V56H83.2zM84.8,54.4H86.4V56H84.8zM88,54.4H89.6V56H88zM91.2,54.4H92.8V56H91.2zM99.2,54.4H100.8V56H99.2zM102.4,54.4H104V56H102.4zM104,54.4H105.6V56H104zM105.6,54.4H107.2V56H105.6zM107.2,54.4H108.8V56H107.2zM108.8,54.4H110.4V56H108.8zM112,54.4H113.6V56H112zM113.6,54.4H115.2V56H113.6zM115.2,54.4H116.8V56H115.2zM121.6,54.4H123.2V56H121.6zM6.4,56H8V57.6H6.4zM8,56H9.6V57.6H8zM12.8,56H14.4V57.6H12.8zM19.2,56H20.8V57.6H19.2zM20.8,56H22.4V57.6H20.8zM25.6,56H27.2V57.6H25.6zM27.2,56H28.8V57.6H27.2zM30.4,56H32V57.6H30.4zM32,56H33.6V57.6H32zM33.6,56H35.2V57.6H33.6zM36.8,56H38.4V57.6H36.8zM38.4,56H40V57.6H38.4zM43.2,56H44.8V57.6H43.2zM44.8,56H46.4V57.6H44.8zM46.4,56H48V57.6H46.4zM51.2,56H52.8V57.6H51.2zM52.8,56H54.4V57.6H52.8zM54.4,56H56V57.6H54.4zM56,56H57.6V57.6H56zM59.2,56H60.8V57.6H59.2zM60.8,56H62.4V57.6H60.8zM64,56H65.6V57.6H64zM65.6,56H67.2V57.6H65.6zM67.2,56H68.8V57.6H67.2zM68.8,56H70.4V57.6H68.8zM80,56H81.6V57.6H80zM81.6,56H83.2V57.6H81.6zM83.2,56H84.8V57.6H83.2zM89.6,56H91.2V57.6H89.6zM91.2,56H92.8V57.6H91.2zM92.8,56H94.4V57.6H92.8zM94.4,56H96V57.6H94.4zM96,56H97.6V57.6H96zM100.8,56H102.4V57.6H100.8zM102.4,56H104V57.6H102.4zM110.4,56H112V57.6H110.4zM112,56H113.6V57.6H112zM113.6,56H115.2V57.6H113.6zM115.2,56H116.8V57.6H115.2zM116.8,56H118.4V57.6H116.8zM120,56H121.6V57.6H120zM121.6,56H123.2V57.6H121.6zM6.4,57.6H8V59.2H6.4zM11.2,57.6H12.8V59.2H11.2zM12.8,57.6H14.4V59.2H12.8zM14.4,57.6H16V59.2H14.4zM16,57.6H17.6V59.2H16zM19.2,57.6H20.8V59.2H19.2zM20.8,57.6H22.4V59.2H20.8zM27.2,57.6H28.8V59.2H27.2zM30.4,57.6H32V59.2H30.4zM32,57.6H33.6V59.2H32zM33.6,57.6H35.2V59.2H33.6zM35.2,57.6H36.8V59.2H35.2zM40,57.6H41.6V59.2H40zM43.2,57.6H44.8V59.2H43.2zM46.4,57.6H48V59.2H46.4zM48,57.6H49.6V59.2H48zM49.6,57.6H51.2V59.2H49.6zM52.8,57.6H54.4V59.2H52.8zM54.4,57.6H56V59.2H54.4zM57.6,57.6H59.2V59.2H57.6zM65.6,57.6H67.2V59.2H65.6zM67.2,57.6H68.8V59.2H67.2zM70.4,57.6H72V59.2H70.4zM72,57.6H73.6V59.2H72zM78.4,57.6H80V59.2H78.4zM80,57.6H81.6V59.2H80zM84.8,57.6H86.4V59.2H84.8zM86.4,57.6H88V59.2H86.4zM88,57.6H89.6V59.2H88zM89.6,57.6H91.2V59.2H89.6zM91.2,57.6H92.8V59.2H91.2zM99.2,57.6H100.8V59.2H99.2zM108.8,57.6H110.4V59.2H108.8zM110.4,57.6H112V59.2H110.4zM113.6,57.6H115.2V59.2H113.6zM118.4,57.6H120V59.2H118.4zM120,57.6H121.6V59.2H120zM121.6,57.6H123.2V59.2H121.6zM6.4,59.2H8V60.8H6.4zM11.2,59.2H12.8V60.8H11.2zM17.6,59.2H19.2V60.8H17.6zM24,59.2H25.6V60.8H24zM28.8,59.2H30.4V60.8H28.8zM32,59.2H33.6V60.8H32zM33.6,59.2H35.2V60.8H33.6zM36.8,59.2H38.4V60.8H36.8zM44.8,59.2H46.4V60.8H44.8zM48,59.2H49.6V60.8H48zM49.6,59.2H51.2V60.8H49.6zM52.8,59.2H54.4V60.8H52.8zM57.6,59.2H59.2V60.8H57.6zM59.2,59.2H60.8V60.8H59.2zM60.8,59.2H62.4V60.8H60.8zM64,59.2H65.6V60.8H64zM65.6,59.2H67.2V60.8H65.6zM70.4,59.2H72V60.8H70.4zM73.6,59.2H75.2V60.8H73.6zM75.2,59.2H76.8V60.8H75.2zM76.8,59.2H78.4V60.8H76.8zM78.4,59.2H80V60.8H78.4zM80,59.2H81.6V60.8H80zM88,59.2H89.6V60.8H88zM89.6,59.2H91.2V60.8H89.6zM96,59.2H97.6V60.8H96zM97.6,59.2H99.2V60.8H97.6zM105.6,59.2H107.2V60.8H105.6zM108.8,59.2H110.4V60.8H108.8zM110.4,59.2H112V60.8H110.4zM113.6,59.2H115.2V60.8H113.6zM115.2,59.2H116.8V60.8H115.2zM118.4,59.2H120V60.8H118.4zM9.6,60.8H11.2V62.4H9.6zM11.2,60.8H12.8V62.4H11.2zM12.8,60.8H14.4V62.4H12.8zM16,60.8H17.6V62.4H16zM17.6,60.8H19.2V62.4H17.6zM19.2,60.8H20.8V62.4H19.2zM20.8,60.8H22.4V62.4H20.8zM22.4,60.8H24V62.4H22.4zM24,60.8H25.6V62.4H24zM30.4,60.8H32V62.4H30.4zM33.6,60.8H35.2V62.4H33.6zM36.8,60.8H38.4V62.4H36.8zM38.4,60.8H40V62.4H38.4zM41.6,60.8H43.2V62.4H41.6zM44.8,60.8H46.4V62.4H44.8zM49.6,60.8H51.2V62.4H49.6zM51.2,60.8H52.8V62.4H51.2zM56,60.8H57.6V62.4H56zM57.6,60.8H59.2V62.4H57.6zM60.8,60.8H62.4V62.4H60.8zM62.4,60.8H64V62.4H62.4zM64,60.8H65.6V62.4H64zM65.6,60.8H67.2V62.4H65.6zM75.2,60.8H76.8V62.4H75.2zM80,60.8H81.6V62.4H80zM83.2,60.8H84.8V62.4H83.2zM84.8,60.8H86.4V62.4H84.8zM86.4,60.8H88V62.4H86.4zM88,60.8H89.6V62.4H88zM91.2,60.8H92.8V62.4H91.2zM94.4,60.8H96V62.4H94.4zM96,60.8H97.6V62.4H96zM99.2,60.8H100.8V62.4H99.2zM102.4,60.8H104V62.4H102.4zM104,60.8H105.6V62.4H104zM105.6,60.8H107.2V62.4H105.6zM108.8,60.8H110.4V62.4H108.8zM113.6,60.8H115.2V62.4H113.6zM115.2,60.8H116.8V62.4H115.2zM116.8,60.8H118.4V62.4H116.8zM118.4,60.8H120V62.4H118.4zM120,60.8H121.6V62.4H120zM121.6,60.8H123.2V62.4H121.6zM6.4,62.4H8V64H6.4zM8,62.4H9.6V64H8zM12.8,62.4H14.4V64H12.8zM17.6,62.4H19.2V64H17.6zM19.2,62.4H20.8V64H19.2zM24,62.4H25.6V64H24zM27.2,62.4H28.8V64H27.2zM28.8,62.4H30.4V64H28.8zM30.4,62.4H32V64H30.4zM32,62.4H33.6V64H32zM33.6,62.4H35.2V64H33.6zM40,62.4H41.6V64H40zM48,62.4H49.6V64H48zM49.6,62.4H51.2V64H49.6zM51.2,62.4H52.8V64H51.2zM52.8,62.4H54.4V64H52.8zM57.6,62.4H59.2V64H57.6zM59.2,62.4H60.8V64H59.2zM62.4,62.4H64V64H62.4zM64,62.4H65.6V64H64zM68.8,62.4H70.4V64H68.8zM70.4,62.4H72V64H70.4zM72,62.4H73.6V64H72zM73.6,62.4H75.2V64H73.6zM75.2,62.4H76.8V64H75.2zM80,62.4H81.6V64H80zM81.6,62.4H83.2V64H81.6zM83.2,62.4H84.8V64H83.2zM86.4,62.4H88V64H86.4zM89.6,62.4H91.2V64H89.6zM92.8,62.4H94.4V64H92.8zM94.4,62.4H96V64H94.4zM96,62.4H97.6V64H96zM100.8,62.4H102.4V64H100.8zM110.4,62.4H112V64H110.4zM112,62.4H113.6V64H112zM115.2,62.4H116.8V64H115.2zM8,64H9.6V65.6H8zM9.6,64H11.2V65.6H9.6zM14.4,64H16V65.6H14.4zM16,64H17.6V65.6H16zM19.2,64H20.8V65.6H19.2zM20.8,64H22.4V65.6H20.8zM22.4,64H24V65.6H22.4zM24,64H25.6V65.6H24zM27.2,64H28.8V65.6H27.2zM32,64H33.6V65.6H32zM38.4,64H40V65.6H38.4zM41.6,64H43.2V65.6H41.6zM43.2,64H44.8V65.6H43.2zM46.4,64H48V65.6H46.4zM49.6,64H51.2V65.6H49.6zM51.2,64H52.8V65.6H51.2zM54.4,64H56V65.6H54.4zM59.2,64H60.8V65.6H59.2zM60.8,64H62.4V65.6H60.8zM62.4,64H64V65.6H62.4zM64,64H65.6V65.6H64zM65.6,64H67.2V65.6H65.6zM76.8,64H78.4V65.6H76.8zM78.4,64H80V65.6H78.4zM80,64H81.6V65.6H80zM83.2,64H84.8V65.6H83.2zM84.8,64H86.4V65.6H84.8zM86.4,64H88V65.6H86.4zM88,64H89.6V65.6H88zM91.2,64H92.8V65.6H91.2zM96,64H97.6V65.6H96zM99.2,64H100.8V65.6H99.2zM102.4,64H104V65.6H102.4zM107.2,64H108.8V65.6H107.2zM113.6,64H115.2V65.6H113.6zM116.8,64H118.4V65.6H116.8zM118.4,64H120V65.6H118.4zM120,64H121.6V65.6H120zM8,65.6H9.6V67.2H8zM11.2,65.6H12.8V67.2H11.2zM14.4,65.6H16V67.2H14.4zM20.8,65.6H22.4V67.2H20.8zM22.4,65.6H24V67.2H22.4zM25.6,65.6H27.2V67.2H25.6zM27.2,65.6H28.8V67.2H27.2zM28.8,65.6H30.4V67.2H28.8zM30.4,65.6H32V67.2H30.4zM33.6,65.6H35.2V67.2H33.6zM44.8,65.6H46.4V67.2H44.8zM46.4,65.6H48V67.2H46.4zM51.2,65.6H52.8V67.2H51.2zM54.4,65.6H56V67.2H54.4zM60.8,65.6H62.4V67.2H60.8zM62.4,65.6H64V67.2H62.4zM64,65.6H65.6V67.2H64zM65.6,65.6H67.2V67.2H65.6zM67.2,65.6H68.8V67.2H67.2zM68.8,65.6H70.4V67.2H68.8zM70.4,65.6H72V67.2H70.4zM73.6,65.6H75.2V67.2H73.6zM76.8,65.6H78.4V67.2H76.8zM78.4,65.6H80V67.2H78.4zM88,65.6H89.6V67.2H88zM89.6,65.6H91.2V67.2H89.6zM92.8,65.6H94.4V67.2H92.8zM97.6,65.6H99.2V67.2H97.6zM100.8,65.6H102.4V67.2H100.8zM105.6,65.6H107.2V67.2H105.6zM110.4,65.6H112V67.2H110.4zM113.6,65.6H115.2V67.2H113.6zM115.2,65.6H116.8V67.2H115.2zM118.4,65.6H120V67.2H118.4zM16,67.2H17.6V68.8H16zM19.2,67.2H20.8V68.8H19.2zM22.4,67.2H24V68.8H22.4zM24,67.2H25.6V68.8H24zM27.2,67.2H28.8V68.8H27.2zM30.4,67.2H32V68.8H30.4zM32,67.2H33.6V68.8H32zM33.6,67.2H35.2V68.8H33.6zM35.2,67.2H36.8V68.8H35.2zM38.4,67.2H40V68.8H38.4zM40,67.2H41.6V68.8H40zM41.6,67.2H43.2V68.8H41.6zM43.2,67.2H44.8V68.8H43.2zM49.6,67.2H51.2V68.8H49.6zM51.2,67.2H52.8V68.8H51.2zM54.4,67.2H56V68.8H54.4zM57.6,67.2H59.2V68.8H57.6zM59.2,67.2H60.8V68.8H59.2zM60.8,67.2H62.4V68.8H60.8zM64,67.2H65.6V68.8H64zM67.2,67.2H68.8V68.8H67.2zM68.8,67.2H70.4V68.8H68.8zM72,67.2H73.6V68.8H72zM73.6,67.2H75.2V68.8H73.6zM75.2,67.2H76.8V68.8H75.2zM76.8,67.2H78.4V68.8H76.8zM80,67.2H81.6V68.8H80zM83.2,67.2H84.8V68.8H83.2zM84.8,67.2H86.4V68.8H84.8zM86.4,67.2H88V68.8H86.4zM91.2,67.2H92.8V68.8H91.2zM94.4,67.2H96V68.8H94.4zM96,67.2H97.6V68.8H96zM99.2,67.2H100.8V68.8H99.2zM107.2,67.2H108.8V68.8H107.2zM112,67.2H113.6V68.8H112zM116.8,67.2H118.4V68.8H116.8zM120,67.2H121.6V68.8H120zM121.6,67.2H123.2V68.8H121.6zM6.4,68.8H8V70.4H6.4zM9.6,68.8H11.2V70.4H9.6zM14.4,68.8H16V70.4H14.4zM19.2,68.8H20.8V70.4H19.2zM20.8,68.8H22.4V70.4H20.8zM22.4,68.8H24V70.4H22.4zM25.6,68.8H27.2V70.4H25.6zM27.2,68.8H28.8V70.4H27.2zM30.4,68.8H32V70.4H30.4zM32,68.8H33.6V70.4H32zM36.8,68.8H38.4V70.4H36.8zM40,68.8H41.6V70.4H40zM43.2,68.8H44.8V70.4H43.2zM49.6,68.8H51.2V70.4H49.6zM52.8,68.8H54.4V70.4H52.8zM56,68.8H57.6V70.4H56zM59.2,68.8H60.8V70.4H59.2zM62.4,68.8H64V70.4H62.4zM64,68.8H65.6V70.4H64zM65.6,68.8H67.2V70.4H65.6zM67.2,68.8H68.8V70.4H67.2zM68.8,68.8H70.4V70.4H68.8zM73.6,68.8H75.2V70.4H73.6zM89.6,68.8H91.2V70.4H89.6zM92.8,68.8H94.4V70.4H92.8zM94.4,68.8H96V70.4H94.4zM96,68.8H97.6V70.4H96zM97.6,68.8H99.2V70.4H97.6zM100.8,68.8H102.4V70.4H100.8zM105.6,68.8H107.2V70.4H105.6zM108.8,68.8H110.4V70.4H108.8zM110.4,68.8H112V70.4H110.4zM112,68.8H113.6V70.4H112zM120,68.8H121.6V70.4H120zM121.6,68.8H123.2V70.4H121.6zM11.2,70.4H12.8V72H11.2zM14.4,70.4H16V72H14.4zM16,70.4H17.6V72H16zM20.8,70.4H22.4V72H20.8zM22.4,70.4H24V72H22.4zM25.6,70.4H27.2V72H25.6zM28.8,70.4H30.4V72H28.8zM32,70.4H33.6V72H32zM33.6,70.4H35.2V72H33.6zM36.8,70.4H38.4V72H36.8zM38.4,70.4H40V72H38.4zM40,70.4H41.6V72H40zM41.6,70.4H43.2V72H41.6zM51.2,70.4H52.8V72H51.2zM54.4,70.4H56V72H54.4zM59.2,70.4H60.8V72H59.2zM60.8,70.4H62.4V72H60.8zM62.4,70.4H64V72H62.4zM64,70.4H65.6V72H64zM78.4,70.4H80V72H78.4zM80,70.4H81.6V72H80zM83.2,70.4H84.8V72H83.2zM84.8,70.4H86.4V72H84.8zM88,70.4H89.6V72H88zM89.6,70.4H91.2V72H89.6zM97.6,70.4H99.2V72H97.6zM99.2,70.4H100.8V72H99.2zM102.4,70.4H104V72H102.4zM105.6,70.4H107.2V72H105.6zM107.2,70.4H108.8V72H107.2zM108.8,70.4H110.4V72H108.8zM113.6,70.4H115.2V72H113.6zM116.8,70.4H118.4V72H116.8zM118.4,70.4H120V72H118.4zM120,70.4H121.6V72H120zM9.6,72H11.2V73.6H9.6zM14.4,72H16V73.6H14.4zM20.8,72H22.4V73.6H20.8zM22.4,72H24V73.6H22.4zM24,72H25.6V73.6H24zM25.6,72H27.2V73.6H25.6zM27.2,72H28.8V73.6H27.2zM35.2,72H36.8V73.6H35.2zM36.8,72H38.4V73.6H36.8zM40,72H41.6V73.6H40zM48,72H49.6V73.6H48zM56,72H57.6V73.6H56zM57.6,72H59.2V73.6H57.6zM60.8,72H62.4V73.6H60.8zM62.4,72H64V73.6H62.4zM70.4,72H72V73.6H70.4zM73.6,72H75.2V73.6H73.6zM75.2,72H76.8V73.6H75.2zM76.8,72H78.4V73.6H76.8zM78.4,72H80V73.6H78.4zM80,72H81.6V73.6H80zM86.4,72H88V73.6H86.4zM88,72H89.6V73.6H88zM92.8,72H94.4V73.6H92.8zM97.6,72H99.2V73.6H97.6zM102.4,72H104V73.6H102.4zM108.8,72H110.4V73.6H108.8zM110.4,72H112V73.6H110.4zM112,72H113.6V73.6H112zM115.2,72H116.8V73.6H115.2zM116.8,72H118.4V73.6H116.8zM9.6,73.6H11.2V75.2H9.6zM11.2,73.6H12.8V75.2H11.2zM12.8,73.6H14.4V75.2H12.8zM14.4,73.6H16V75.2H14.4zM16,73.6H17.6V75.2H16zM19.2,73.6H20.8V75.2H19.2zM25.6,73.6H27.2V75.2H25.6zM30.4,73.6H32V75.2H30.4zM35.2,73.6H36.8V75.2H35.2zM38.4,73.6H40V75.2H38.4zM44.8,73.6H46.4V75.2H44.8zM48,73.6H49.6V75.2H48zM49.6,73.6H51.2V75.2H49.6zM51.2,73.6H52.8V75.2H51.2zM52.8,73.6H54.4V75.2H52.8zM56,73.6H57.6V75.2H56zM57.6,73.6H59.2V75.2H57.6zM59.2,73.6H60.8V75.2H59.2zM60.8,73.6H62.4V75.2H60.8zM65.6,73.6H67.2V75.2H65.6zM67.2,73.6H68.8V75.2H67.2zM68.8,73.6H70.4V75.2H68.8zM78.4,73.6H80V75.2H78.4zM81.6,73.6H83.2V75.2H81.6zM84.8,73.6H86.4V75.2H84.8zM89.6,73.6H91.2V75.2H89.6zM91.2,73.6H92.8V75.2H91.2zM96,73.6H97.6V75.2H96zM99.2,73.6H100.8V75.2H99.2zM102.4,73.6H104V75.2H102.4zM104,73.6H105.6V75.2H104zM105.6,73.6H107.2V75.2H105.6zM107.2,73.6H108.8V75.2H107.2zM108.8,73.6H110.4V75.2H108.8zM120,73.6H121.6V75.2H120zM121.6,73.6H123.2V75.2H121.6zM6.4,75.2H8V76.8H6.4zM8,75.2H9.6V76.8H8zM9.6,75.2H11.2V76.8H9.6zM12.8,75.2H14.4V76.8H12.8zM17.6,75.2H19.2V76.8H17.6zM19.2,75.2H20.8V76.8H19.2zM20.8,75.2H22.4V76.8H20.8zM24,75.2H25.6V76.8H24zM25.6,75.2H27.2V76.8H25.6zM27.2,75.2H28.8V76.8H27.2zM30.4,75.2H32V76.8H30.4zM36.8,75.2H38.4V76.8H36.8zM46.4,75.2H48V76.8H46.4zM49.6,75.2H51.2V76.8H49.6zM54.4,75.2H56V76.8H54.4zM59.2,75.2H60.8V76.8H59.2zM62.4,75.2H64V76.8H62.4zM64,75.2H65.6V76.8H64zM67.2,75.2H68.8V76.8H67.2zM70.4,75.2H72V76.8H70.4zM72,75.2H73.6V76.8H72zM76.8,75.2H78.4V76.8H76.8zM78.4,75.2H80V76.8H78.4zM84.8,75.2H86.4V76.8H84.8zM89.6,75.2H91.2V76.8H89.6zM92.8,75.2H94.4V76.8H92.8zM94.4,75.2H96V76.8H94.4zM96,75.2H97.6V76.8H96zM97.6,75.2H99.2V76.8H97.6zM99.2,75.2H100.8V76.8H99.2zM105.6,75.2H107.2V76.8H105.6zM110.4,75.2H112V76.8H110.4zM112,75.2H113.6V76.8H112zM115.2,75.2H116.8V76.8H115.2zM120,75.2H121.6V76.8H120zM6.4,76.8H8V78.4H6.4zM11.2,76.8H12.8V78.4H11.2zM12.8,76.8H14.4V78.4H12.8zM14.4,76.8H16V78.4H14.4zM16,76.8H17.6V78.4H16zM17.6,76.8H19.2V78.4H17.6zM19.2,76.8H20.8V78.4H19.2zM22.4,76.8H24V78.4H22.4zM24,76.8H25.6V78.4H24zM25.6,76.8H27.2V78.4H25.6zM27.2,76.8H28.8V78.4H27.2zM30.4,76.8H32V78.4H30.4zM32,76.8H33.6V78.4H32zM33.6,76.8H35.2V78.4H33.6zM35.2,76.8H36.8V78.4H35.2zM38.4,76.8H40V78.4H38.4zM44.8,76.8H46.4V78.4H44.8zM46.4,76.8H48V78.4H46.4zM48,76.8H49.6V78.4H48zM49.6,76.8H51.2V78.4H49.6zM51.2,76.8H52.8V78.4H51.2zM52.8,76.8H54.4V78.4H52.8zM54.4,76.8H56V78.4H54.4zM57.6,76.8H59.2V78.4H57.6zM60.8,76.8H62.4V78.4H60.8zM64,76.8H65.6V78.4H64zM67.2,76.8H68.8V78.4H67.2zM70.4,76.8H72V78.4H70.4zM76.8,76.8H78.4V78.4H76.8zM78.4,76.8H80V78.4H78.4zM80,76.8H81.6V78.4H80zM81.6,76.8H83.2V78.4H81.6zM83.2,76.8H84.8V78.4H83.2zM84.8,76.8H86.4V78.4H84.8zM86.4,76.8H88V78.4H86.4zM88,76.8H89.6V78.4H88zM91.2,76.8H92.8V78.4H91.2zM92.8,76.8H94.4V78.4H92.8zM96,76.8H97.6V78.4H96zM99.2,76.8H100.8V78.4H99.2zM100.8,76.8H102.4V78.4H100.8zM102.4,76.8H104V78.4H102.4zM104,76.8H105.6V78.4H104zM105.6,76.8H107.2V78.4H105.6zM107.2,76.8H108.8V78.4H107.2zM108.8,76.8H110.4V78.4H108.8zM110.4,76.8H112V78.4H110.4zM112,76.8H113.6V78.4H112zM113.6,76.8H115.2V78.4H113.6zM115.2,76.8H116.8V78.4H115.2zM116.8,76.8H118.4V78.4H116.8zM118.4,76.8H120V78.4H118.4zM121.6,76.8H123.2V78.4H121.6zM11.2,78.4H12.8V80H11.2zM12.8,78.4H14.4V80H12.8zM19.2,78.4H20.8V80H19.2zM30.4,78.4H32V80H30.4zM32,78.4H33.6V80H32zM36.8,78.4H38.4V80H36.8zM38.4,78.4H40V80H38.4zM40,78.4H41.6V80H40zM41.6,78.4H43.2V80H41.6zM44.8,78.4H46.4V80H44.8zM51.2,78.4H52.8V80H51.2zM52.8,78.4H54.4V80H52.8zM54.4,78.4H56V80H54.4zM59.2,78.4H60.8V80H59.2zM62.4,78.4H64V80H62.4zM64,78.4H65.6V80H64zM67.2,78.4H68.8V80H67.2zM70.4,78.4H72V80H70.4zM72,78.4H73.6V80H72zM76.8,78.4H78.4V80H76.8zM83.2,78.4H84.8V80H83.2zM86.4,78.4H88V80H86.4zM88,78.4H89.6V80H88zM92.8,78.4H94.4V80H92.8zM97.6,78.4H99.2V80H97.6zM99.2,78.4H100.8V80H99.2zM100.8,78.4H102.4V80H100.8zM107.2,78.4H108.8V80H107.2zM108.8,78.4H110.4V80H108.8zM115.2,78.4H116.8V80H115.2zM116.8,78.4H118.4V80H116.8zM118.4,78.4H120V80H118.4zM8,80H9.6V81.6H8zM9.6,80H11.2V81.6H9.6zM11.2,80H12.8V81.6H11.2zM12.8,80H14.4V81.6H12.8zM16,80H17.6V81.6H16zM19.2,80H20.8V81.6H19.2zM20.8,80H22.4V81.6H20.8zM22.4,80H24V81.6H22.4zM27.2,80H28.8V81.6H27.2zM30.4,80H32V81.6H30.4zM32,80H33.6V81.6H32zM33.6,80H35.2V81.6H33.6zM36.8,80H38.4V81.6H36.8zM41.6,80H43.2V81.6H41.6zM44.8,80H46.4V81.6H44.8zM48,80H49.6V81.6H48zM51.2,80H52.8V81.6H51.2zM54.4,80H56V81.6H54.4zM56,80H57.6V81.6H56zM57.6,80H59.2V81.6H57.6zM60.8,80H62.4V81.6H60.8zM64,80H65.6V81.6H64zM65.6,80H67.2V81.6H65.6zM68.8,80H70.4V81.6H68.8zM73.6,80H75.2V81.6H73.6zM75.2,80H76.8V81.6H75.2zM76.8,80H78.4V81.6H76.8zM80,80H81.6V81.6H80zM83.2,80H84.8V81.6H83.2zM84.8,80H86.4V81.6H84.8zM86.4,80H88V81.6H86.4zM91.2,80H92.8V81.6H91.2zM99.2,80H100.8V81.6H99.2zM100.8,80H102.4V81.6H100.8zM102.4,80H104V81.6H102.4zM104,80H105.6V81.6H104zM105.6,80H107.2V81.6H105.6zM108.8,80H110.4V81.6H108.8zM112,80H113.6V81.6H112zM115.2,80H116.8V81.6H115.2zM121.6,80H123.2V81.6H121.6zM8,81.6H9.6V83.2H8zM9.6,81.6H11.2V83.2H9.6zM12.8,81.6H14.4V83.2H12.8zM19.2,81.6H20.8V83.2H19.2zM20.8,81.6H22.4V83.2H20.8zM22.4,81.6H24V83.2H22.4zM24,81.6H25.6V83.2H24zM25.6,81.6H27.2V83.2H25.6zM27.2,81.6H28.8V83.2H27.2zM33.6,81.6H35.2V83.2H33.6zM40,81.6H41.6V83.2H40zM41.6,81.6H43.2V83.2H41.6zM44.8,81.6H46.4V83.2H44.8zM51.2,81.6H52.8V83.2H51.2zM52.8,81.6H54.4V83.2H52.8zM56,81.6H57.6V83.2H56zM57.6,81.6H59.2V83.2H57.6zM64,81.6H65.6V83.2H64zM68.8,81.6H70.4V83.2H68.8zM72,81.6H73.6V83.2H72zM75.2,81.6H76.8V83.2H75.2zM76.8,81.6H78.4V83.2H76.8zM83.2,81.6H84.8V83.2H83.2zM84.8,81.6H86.4V83.2H84.8zM89.6,81.6H91.2V83.2H89.6zM92.8,81.6H94.4V83.2H92.8zM94.4,81.6H96V83.2H94.4zM96,81.6H97.6V83.2H96zM97.6,81.6H99.2V83.2H97.6zM100.8,81.6H102.4V83.2H100.8zM102.4,81.6H104V83.2H102.4zM107.2,81.6H108.8V83.2H107.2zM108.8,81.6H110.4V83.2H108.8zM115.2,81.6H116.8V83.2H115.2zM12.8,83.2H14.4V84.8H12.8zM14.4,83.2H16V84.8H14.4zM16,83.2H17.6V84.8H16zM17.6,83.2H19.2V84.8H17.6zM19.2,83.2H20.8V84.8H19.2zM20.8,83.2H22.4V84.8H20.8zM22.4,83.2H24V84.8H22.4zM24,83.2H25.6V84.8H24zM27.2,83.2H28.8V84.8H27.2zM28.8,83.2H30.4V84.8H28.8zM32,83.2H33.6V84.8H32zM38.4,83.2H40V84.8H38.4zM40,83.2H41.6V84.8H40zM41.6,83.2H43.2V84.8H41.6zM43.2,83.2H44.8V84.8H43.2zM44.8,83.2H46.4V84.8H44.8zM46.4,83.2H48V84.8H46.4zM48,83.2H49.6V84.8H48zM49.6,83.2H51.2V84.8H49.6zM51.2,83.2H52.8V84.8H51.2zM52.8,83.2H54.4V84.8H52.8zM56,83.2H57.6V84.8H56zM57.6,83.2H59.2V84.8H57.6zM62.4,83.2H64V84.8H62.4zM64,83.2H65.6V84.8H64zM65.6,83.2H67.2V84.8H65.6zM67.2,83.2H68.8V84.8H67.2zM72,83.2H73.6V84.8H72zM76.8,83.2H78.4V84.8H76.8zM78.4,83.2H80V84.8H78.4zM80,83.2H81.6V84.8H80zM81.6,83.2H83.2V84.8H81.6zM83.2,83.2H84.8V84.8H83.2zM84.8,83.2H86.4V84.8H84.8zM86.4,83.2H88V84.8H86.4zM88,83.2H89.6V84.8H88zM91.2,83.2H92.8V84.8H91.2zM92.8,83.2H94.4V84.8H92.8zM96,83.2H97.6V84.8H96zM99.2,83.2H100.8V84.8H99.2zM104,83.2H105.6V84.8H104zM105.6,83.2H107.2V84.8H105.6zM107.2,83.2H108.8V84.8H107.2zM108.8,83.2H110.4V84.8H108.8zM110.4,83.2H112V84.8H110.4zM112,83.2H113.6V84.8H112zM113.6,83.2H115.2V84.8H113.6zM115.2,83.2H116.8V84.8H115.2zM116.8,83.2H118.4V84.8H116.8zM118.4,83.2H120V84.8H118.4zM121.6,83.2H123.2V84.8H121.6zM8,84.8H9.6V86.4H8zM9.6,84.8H11.2V86.4H9.6zM17.6,84.8H19.2V86.4H17.6zM22.4,84.8H24V86.4H22.4zM24,84.8H25.6V86.4H24zM25.6,84.8H27.2V86.4H25.6zM35.2,84.8H36.8V86.4H35.2zM43.2,84.8H44.8V86.4H43.2zM46.4,84.8H48V86.4H46.4zM49.6,84.8H51.2V86.4H49.6zM56,84.8H57.6V86.4H56zM64,84.8H65.6V86.4H64zM70.4,84.8H72V86.4H70.4zM73.6,84.8H75.2V86.4H73.6zM75.2,84.8H76.8V86.4H75.2zM80,84.8H81.6V86.4H80zM81.6,84.8H83.2V86.4H81.6zM83.2,84.8H84.8V86.4H83.2zM89.6,84.8H91.2V86.4H89.6zM92.8,84.8H94.4V86.4H92.8zM94.4,84.8H96V86.4H94.4zM97.6,84.8H99.2V86.4H97.6zM108.8,84.8H110.4V86.4H108.8zM113.6,84.8H115.2V86.4H113.6zM116.8,84.8H118.4V86.4H116.8zM6.4,86.4H8V88H6.4zM9.6,86.4H11.2V88H9.6zM16,86.4H17.6V88H16zM17.6,86.4H19.2V88H17.6zM20.8,86.4H22.4V88H20.8zM25.6,86.4H27.2V88H25.6zM27.2,86.4H28.8V88H27.2zM33.6,86.4H35.2V88H33.6zM36.8,86.4H38.4V88H36.8zM40,86.4H41.6V88H40zM44.8,86.4H46.4V88H44.8zM46.4,86.4H48V88H46.4zM48,86.4H49.6V88H48zM49.6,86.4H51.2V88H49.6zM54.4,86.4H56V88H54.4zM59.2,86.4H60.8V88H59.2zM70.4,86.4H72V88H70.4zM78.4,86.4H80V88H78.4zM80,86.4H81.6V88H80zM83.2,86.4H84.8V88H83.2zM84.8,86.4H86.4V88H84.8zM86.4,86.4H88V88H86.4zM89.6,86.4H91.2V88H89.6zM91.2,86.4H92.8V88H91.2zM99.2,86.4H100.8V88H99.2zM100.8,86.4H102.4V88H100.8zM102.4,86.4H104V88H102.4zM104,86.4H105.6V88H104zM105.6,86.4H107.2V88H105.6zM107.2,86.4H108.8V88H107.2zM112,86.4H113.6V88H112zM115.2,86.4H116.8V88H115.2zM116.8,86.4H118.4V88H116.8zM118.4,86.4H120V88H118.4zM121.6,86.4H123.2V88H121.6zM6.4,88H8V89.6H6.4zM12.8,88H14.4V89.6H12.8zM22.4,88H24V89.6H22.4zM24,88H25.6V89.6H24zM27.2,88H28.8V89.6H27.2zM30.4,88H32V89.6H30.4zM32,88H33.6V89.6H32zM35.2,88H36.8V89.6H35.2zM40,88H41.6V89.6H40zM46.4,88H48V89.6H46.4zM48,88H49.6V89.6H48zM51.2,88H52.8V89.6H51.2zM52.8,88H54.4V89.6H52.8zM54.4,88H56V89.6H54.4zM56,88H57.6V89.6H56zM59.2,88H60.8V89.6H59.2zM65.6,88H67.2V89.6H65.6zM72,88H73.6V89.6H72zM73.6,88H75.2V89.6H73.6zM76.8,88H78.4V89.6H76.8zM80,88H81.6V89.6H80zM83.2,88H84.8V89.6H83.2zM84.8,88H86.4V89.6H84.8zM86.4,88H88V89.6H86.4zM89.6,88H91.2V89.6H89.6zM92.8,88H94.4V89.6H92.8zM94.4,88H96V89.6H94.4zM96,88H97.6V89.6H96zM97.6,88H99.2V89.6H97.6zM100.8,88H102.4V89.6H100.8zM102.4,88H104V89.6H102.4zM107.2,88H108.8V89.6H107.2zM108.8,88H110.4V89.6H108.8zM110.4,88H112V89.6H110.4zM120,88H121.6V89.6H120zM121.6,88H123.2V89.6H121.6zM8,89.6H9.6V91.2H8zM9.6,89.6H11.2V91.2H9.6zM11.2,89.6H12.8V91.2H11.2zM16,89.6H17.6V91.2H16zM20.8,89.6H22.4V91.2H20.8zM22.4,89.6H24V91.2H22.4zM24,89.6H25.6V91.2H24zM27.2,89.6H28.8V91.2H27.2zM30.4,89.6H32V91.2H30.4zM38.4,89.6H40V91.2H38.4zM40,89.6H41.6V91.2H40zM41.6,89.6H43.2V91.2H41.6zM43.2,89.6H44.8V91.2H43.2zM46.4,89.6H48V91.2H46.4zM51.2,89.6H52.8V91.2H51.2zM52.8,89.6H54.4V91.2H52.8zM62.4,89.6H64V91.2H62.4zM65.6,89.6H67.2V91.2H65.6zM72,89.6H73.6V91.2H72zM73.6,89.6H75.2V91.2H73.6zM75.2,89.6H76.8V91.2H75.2zM76.8,89.6H78.4V91.2H76.8zM83.2,89.6H84.8V91.2H83.2zM84.8,89.6H86.4V91.2H84.8zM86.4,89.6H88V91.2H86.4zM88,89.6H89.6V91.2H88zM96,89.6H97.6V91.2H96zM97.6,89.6H99.2V91.2H97.6zM99.2,89.6H100.8V91.2H99.2zM105.6,89.6H107.2V91.2H105.6zM107.2,89.6H108.8V91.2H107.2zM108.8,89.6H110.4V91.2H108.8zM112,89.6H113.6V91.2H112zM113.6,89.6H115.2V91.2H113.6zM115.2,89.6H116.8V91.2H115.2zM116.8,89.6H118.4V91.2H116.8zM121.6,89.6H123.2V91.2H121.6zM9.6,91.2H11.2V92.8H9.6zM11.2,91.2H12.8V92.8H11.2zM17.6,91.2H19.2V92.8H17.6zM20.8,91.2H22.4V92.8H20.8zM24,91.2H25.6V92.8H24zM32,91.2H33.6V92.8H32zM33.6,91.2H35.2V92.8H33.6zM35.2,91.2H36.8V92.8H35.2zM36.8,91.2H38.4V92.8H36.8zM38.4,91.2H40V92.8H38.4zM41.6,91.2H43.2V92.8H41.6zM44.8,91.2H46.4V92.8H44.8zM46.4,91.2H48V92.8H46.4zM49.6,91.2H51.2V92.8H49.6zM51.2,91.2H52.8V92.8H51.2zM52.8,91.2H54.4V92.8H52.8zM54.4,91.2H56V92.8H54.4zM60.8,91.2H62.4V92.8H60.8zM62.4,91.2H64V92.8H62.4zM64,91.2H65.6V92.8H64zM67.2,91.2H68.8V92.8H67.2zM72,91.2H73.6V92.8H72zM76.8,91.2H78.4V92.8H76.8zM78.4,91.2H80V92.8H78.4zM80,91.2H81.6V92.8H80zM81.6,91.2H83.2V92.8H81.6zM84.8,91.2H86.4V92.8H84.8zM88,91.2H89.6V92.8H88zM94.4,91.2H96V92.8H94.4zM97.6,91.2H99.2V92.8H97.6zM99.2,91.2H100.8V92.8H99.2zM105.6,91.2H107.2V92.8H105.6zM110.4,91.2H112V92.8H110.4zM113.6,91.2H115.2V92.8H113.6zM120,91.2H121.6V92.8H120zM12.8,92.8H14.4V94.4H12.8zM14.4,92.8H16V94.4H14.4zM16,92.8H17.6V94.4H16zM19.2,92.8H20.8V94.4H19.2zM22.4,92.8H24V94.4H22.4zM24,92.8H25.6V94.4H24zM25.6,92.8H27.2V94.4H25.6zM27.2,92.8H28.8V94.4H27.2zM33.6,92.8H35.2V94.4H33.6zM35.2,92.8H36.8V94.4H35.2zM48,92.8H49.6V94.4H48zM52.8,92.8H54.4V94.4H52.8zM60.8,92.8H62.4V94.4H60.8zM62.4,92.8H64V94.4H62.4zM65.6,92.8H67.2V94.4H65.6zM67.2,92.8H68.8V94.4H67.2zM73.6,92.8H75.2V94.4H73.6zM75.2,92.8H76.8V94.4H75.2zM80,92.8H81.6V94.4H80zM86.4,92.8H88V94.4H86.4zM89.6,92.8H91.2V94.4H89.6zM91.2,92.8H92.8V94.4H91.2zM92.8,92.8H94.4V94.4H92.8zM102.4,92.8H104V94.4H102.4zM104,92.8H105.6V94.4H104zM105.6,92.8H107.2V94.4H105.6zM107.2,92.8H108.8V94.4H107.2zM108.8,92.8H110.4V94.4H108.8zM110.4,92.8H112V94.4H110.4zM112,92.8H113.6V94.4H112zM113.6,92.8H115.2V94.4H113.6zM115.2,92.8H116.8V94.4H115.2zM120,92.8H121.6V94.4H120zM121.6,92.8H123.2V94.4H121.6zM6.4,94.4H8V96H6.4zM11.2,94.4H12.8V96H11.2zM17.6,94.4H19.2V96H17.6zM20.8,94.4H22.4V96H20.8zM24,94.4H25.6V96H24zM30.4,94.4H32V96H30.4zM36.8,94.4H38.4V96H36.8zM38.4,94.4H40V96H38.4zM40,94.4H41.6V96H40zM46.4,94.4H48V96H46.4zM49.6,94.4H51.2V96H49.6zM52.8,94.4H54.4V96H52.8zM56,94.4H57.6V96H56zM57.6,94.4H59.2V96H57.6zM59.2,94.4H60.8V96H59.2zM60.8,94.4H62.4V96H60.8zM62.4,94.4H64V96H62.4zM64,94.4H65.6V96H64zM67.2,94.4H68.8V96H67.2zM70.4,94.4H72V96H70.4zM73.6,94.4H75.2V96H73.6zM78.4,94.4H80V96H78.4zM80,94.4H81.6V96H80zM81.6,94.4H83.2V96H81.6zM83.2,94.4H84.8V96H83.2zM84.8,94.4H86.4V96H84.8zM91.2,94.4H92.8V96H91.2zM94.4,94.4H96V96H94.4zM97.6,94.4H99.2V96H97.6zM99.2,94.4H100.8V96H99.2zM100.8,94.4H102.4V96H100.8zM104,94.4H105.6V96H104zM105.6,94.4H107.2V96H105.6zM107.2,94.4H108.8V96H107.2zM108.8,94.4H110.4V96H108.8zM113.6,94.4H115.2V96H113.6zM115.2,94.4H116.8V96H115.2zM116.8,94.4H118.4V96H116.8zM120,94.4H121.6V96H120zM6.4,96H8V97.6H6.4zM8,96H9.6V97.6H8zM12.8,96H14.4V97.6H12.8zM14.4,96H16V97.6H14.4zM16,96H17.6V97.6H16zM17.6,96H19.2V97.6H17.6zM24,96H25.6V97.6H24zM25.6,96H27.2V97.6H25.6zM27.2,96H28.8V97.6H27.2zM28.8,96H30.4V97.6H28.8zM33.6,96H35.2V97.6H33.6zM40,96H41.6V97.6H40zM43.2,96H44.8V97.6H43.2zM48,96H49.6V97.6H48zM49.6,96H51.2V97.6H49.6zM51.2,96H52.8V97.6H51.2zM52.8,96H54.4V97.6H52.8zM54.4,96H56V97.6H54.4zM68.8,96H70.4V97.6H68.8zM70.4,96H72V97.6H70.4zM72,96H73.6V97.6H72zM78.4,96H80V97.6H78.4zM80,96H81.6V97.6H80zM81.6,96H83.2V97.6H81.6zM86.4,96H88V97.6H86.4zM88,96H89.6V97.6H88zM89.6,96H91.2V97.6H89.6zM91.2,96H92.8V97.6H91.2zM97.6,96H99.2V97.6H97.6zM99.2,96H100.8V97.6H99.2zM102.4,96H104V97.6H102.4zM107.2,96H108.8V97.6H107.2zM112,96H113.6V97.6H112zM115.2,96H116.8V97.6H115.2zM118.4,96H120V97.6H118.4zM120,96H121.6V97.6H120zM9.6,97.6H11.2V99.2H9.6zM11.2,97.6H12.8V99.2H11.2zM12.8,97.6H14.4V99.2H12.8zM14.4,97.6H16V99.2H14.4zM20.8,97.6H22.4V99.2H20.8zM22.4,97.6H24V99.2H22.4zM25.6,97.6H27.2V99.2H25.6zM27.2,97.6H28.8V99.2H27.2zM28.8,97.6H30.4V99.2H28.8zM32,97.6H33.6V99.2H32zM35.2,97.6H36.8V99.2H35.2zM40,97.6H41.6V99.2H40zM43.2,97.6H44.8V99.2H43.2zM44.8,97.6H46.4V99.2H44.8zM48,97.6H49.6V99.2H48zM49.6,97.6H51.2V99.2H49.6zM52.8,97.6H54.4V99.2H52.8zM54.4,97.6H56V99.2H54.4zM56,97.6H57.6V99.2H56zM57.6,97.6H59.2V99.2H57.6zM62.4,97.6H64V99.2H62.4zM64,97.6H65.6V99.2H64zM65.6,97.6H67.2V99.2H65.6zM67.2,97.6H68.8V99.2H67.2zM68.8,97.6H70.4V99.2H68.8zM72,97.6H73.6V99.2H72zM75.2,97.6H76.8V99.2H75.2zM78.4,97.6H80V99.2H78.4zM80,97.6H81.6V99.2H80zM86.4,97.6H88V99.2H86.4zM88,97.6H89.6V99.2H88zM89.6,97.6H91.2V99.2H89.6zM92.8,97.6H94.4V99.2H92.8zM94.4,97.6H96V99.2H94.4zM97.6,97.6H99.2V99.2H97.6zM99.2,97.6H100.8V99.2H99.2zM100.8,97.6H102.4V99.2H100.8zM108.8,97.6H110.4V99.2H108.8zM113.6,97.6H115.2V99.2H113.6zM116.8,97.6H118.4V99.2H116.8zM118.4,97.6H120V99.2H118.4zM120,97.6H121.6V99.2H120zM6.4,99.2H8V100.8H6.4zM8,99.2H9.6V100.8H8zM11.2,99.2H12.8V100.8H11.2zM12.8,99.2H14.4V100.8H12.8zM14.4,99.2H16V100.8H14.4zM16,99.2H17.6V100.8H16zM19.2,99.2H20.8V100.8H19.2zM22.4,99.2H24V100.8H22.4zM25.6,99.2H27.2V100.8H25.6zM28.8,99.2H30.4V100.8H28.8zM32,99.2H33.6V100.8H32zM33.6,99.2H35.2V100.8H33.6zM35.2,99.2H36.8V100.8H35.2zM38.4,99.2H40V100.8H38.4zM40,99.2H41.6V100.8H40zM41.6,99.2H43.2V100.8H41.6zM44.8,99.2H46.4V100.8H44.8zM48,99.2H49.6V100.8H48zM49.6,99.2H51.2V100.8H49.6zM51.2,99.2H52.8V100.8H51.2zM54.4,99.2H56V100.8H54.4zM56,99.2H57.6V100.8H56zM57.6,99.2H59.2V100.8H57.6zM59.2,99.2H60.8V100.8H59.2zM60.8,99.2H62.4V100.8H60.8zM64,99.2H65.6V100.8H64zM68.8,99.2H70.4V100.8H68.8zM76.8,99.2H78.4V100.8H76.8zM83.2,99.2H84.8V100.8H83.2zM84.8,99.2H86.4V100.8H84.8zM86.4,99.2H88V100.8H86.4zM88,99.2H89.6V100.8H88zM89.6,99.2H91.2V100.8H89.6zM91.2,99.2H92.8V100.8H91.2zM94.4,99.2H96V100.8H94.4zM99.2,99.2H100.8V100.8H99.2zM102.4,99.2H104V100.8H102.4zM104,99.2H105.6V100.8H104zM105.6,99.2H107.2V100.8H105.6zM107.2,99.2H108.8V100.8H107.2zM110.4,99.2H112V100.8H110.4zM115.2,99.2H116.8V100.8H115.2zM120,99.2H121.6V100.8H120zM121.6,99.2H123.2V100.8H121.6zM8,100.8H9.6V102.4H8zM9.6,100.8H11.2V102.4H9.6zM11.2,100.8H12.8V102.4H11.2zM12.8,100.8H14.4V102.4H12.8zM14.4,100.8H16V102.4H14.4zM24,100.8H25.6V102.4H24zM27.2,100.8H28.8V102.4H27.2zM30.4,100.8H32V102.4H30.4zM36.8,100.8H38.4V102.4H36.8zM40,100.8H41.6V102.4H40zM41.6,100.8H43.2V102.4H41.6zM44.8,100.8H46.4V102.4H44.8zM46.4,100.8H48V102.4H46.4zM48,100.8H49.6V102.4H48zM49.6,100.8H51.2V102.4H49.6zM51.2,100.8H52.8V102.4H51.2zM52.8,100.8H54.4V102.4H52.8zM54.4,100.8H56V102.4H54.4zM56,100.8H57.6V102.4H56zM57.6,100.8H59.2V102.4H57.6zM60.8,100.8H62.4V102.4H60.8zM70.4,100.8H72V102.4H70.4zM72,100.8H73.6V102.4H72zM75.2,100.8H76.8V102.4H75.2zM78.4,100.8H80V102.4H78.4zM80,100.8H81.6V102.4H80zM81.6,100.8H83.2V102.4H81.6zM84.8,100.8H86.4V102.4H84.8zM89.6,100.8H91.2V102.4H89.6zM91.2,100.8H92.8V102.4H91.2zM96,100.8H97.6V102.4H96zM97.6,100.8H99.2V102.4H97.6zM100.8,100.8H102.4V102.4H100.8zM105.6,100.8H107.2V102.4H105.6zM108.8,100.8H110.4V102.4H108.8zM110.4,100.8H112V102.4H110.4zM113.6,100.8H115.2V102.4H113.6zM115.2,100.8H116.8V102.4H115.2zM120,100.8H121.6V102.4H120zM6.4,102.4H8V104H6.4zM8,102.4H9.6V104H8zM9.6,102.4H11.2V104H9.6zM12.8,102.4H14.4V104H12.8zM16,102.4H17.6V104H16zM19.2,102.4H20.8V104H19.2zM24,102.4H25.6V104H24zM27.2,102.4H28.8V104H27.2zM28.8,102.4H30.4V104H28.8zM30.4,102.4H32V104H30.4zM33.6,102.4H35.2V104H33.6zM36.8,102.4H38.4V104H36.8zM38.4,102.4H40V104H38.4zM43.2,102.4H44.8V104H43.2zM48,102.4H49.6V104H48zM54.4,102.4H56V104H54.4zM56,102.4H57.6V104H56zM57.6,102.4H59.2V104H57.6zM59.2,102.4H60.8V104H59.2zM60.8,102.4H62.4V104H60.8zM62.4,102.4H64V104H62.4zM67.2,102.4H68.8V104H67.2zM68.8,102.4H70.4V104H68.8zM73.6,102.4H75.2V104H73.6zM75.2,102.4H76.8V104H75.2zM78.4,102.4H80V104H78.4zM80,102.4H81.6V104H80zM86.4,102.4H88V104H86.4zM88,102.4H89.6V104H88zM92.8,102.4H94.4V104H92.8zM94.4,102.4H96V104H94.4zM99.2,102.4H100.8V104H99.2zM104,102.4H105.6V104H104zM107.2,102.4H108.8V104H107.2zM110.4,102.4H112V104H110.4zM112,102.4H113.6V104H112zM115.2,102.4H116.8V104H115.2zM116.8,102.4H118.4V104H116.8zM118.4,102.4H120V104H118.4zM120,102.4H121.6V104H120zM6.4,104H8V105.6H6.4zM9.6,104H11.2V105.6H9.6zM11.2,104H12.8V105.6H11.2zM17.6,104H19.2V105.6H17.6zM20.8,104H22.4V105.6H20.8zM24,104H25.6V105.6H24zM27.2,104H28.8V105.6H27.2zM32,104H33.6V105.6H32zM36.8,104H38.4V105.6H36.8zM40,104H41.6V105.6H40zM41.6,104H43.2V105.6H41.6zM44.8,104H46.4V105.6H44.8zM49.6,104H51.2V105.6H49.6zM51.2,104H52.8V105.6H51.2zM57.6,104H59.2V105.6H57.6zM60.8,104H62.4V105.6H60.8zM64,104H65.6V105.6H64zM68.8,104H70.4V105.6H68.8zM70.4,104H72V105.6H70.4zM72,104H73.6V105.6H72zM73.6,104H75.2V105.6H73.6zM76.8,104H78.4V105.6H76.8zM80,104H81.6V105.6H80zM81.6,104H83.2V105.6H81.6zM83.2,104H84.8V105.6H83.2zM86.4,104H88V105.6H86.4zM88,104H89.6V105.6H88zM94.4,104H96V105.6H94.4zM96,104H97.6V105.6H96zM97.6,104H99.2V105.6H97.6zM99.2,104H100.8V105.6H99.2zM108.8,104H110.4V105.6H108.8zM118.4,104H120V105.6H118.4zM120,104H121.6V105.6H120zM6.4,105.6H8V107.2H6.4zM8,105.6H9.6V107.2H8zM11.2,105.6H12.8V107.2H11.2zM14.4,105.6H16V107.2H14.4zM16,105.6H17.6V107.2H16zM17.6,105.6H19.2V107.2H17.6zM25.6,105.6H27.2V107.2H25.6zM27.2,105.6H28.8V107.2H27.2zM32,105.6H33.6V107.2H32zM33.6,105.6H35.2V107.2H33.6zM36.8,105.6H38.4V107.2H36.8zM38.4,105.6H40V107.2H38.4zM40,105.6H41.6V107.2H40zM43.2,105.6H44.8V107.2H43.2zM44.8,105.6H46.4V107.2H44.8zM46.4,105.6H48V107.2H46.4zM51.2,105.6H52.8V107.2H51.2zM52.8,105.6H54.4V107.2H52.8zM54.4,105.6H56V107.2H54.4zM56,105.6H57.6V107.2H56zM57.6,105.6H59.2V107.2H57.6zM64,105.6H65.6V107.2H64zM72,105.6H73.6V107.2H72zM73.6,105.6H75.2V107.2H73.6zM75.2,105.6H76.8V107.2H75.2zM76.8,105.6H78.4V107.2H76.8zM83.2,105.6H84.8V107.2H83.2zM84.8,105.6H86.4V107.2H84.8zM86.4,105.6H88V107.2H86.4zM88,105.6H89.6V107.2H88zM91.2,105.6H92.8V107.2H91.2zM94.4,105.6H96V107.2H94.4zM99.2,105.6H100.8V107.2H99.2zM102.4,105.6H104V107.2H102.4zM105.6,105.6H107.2V107.2H105.6zM107.2,105.6H108.8V107.2H107.2zM110.4,105.6H112V107.2H110.4zM112,105.6H113.6V107.2H112zM113.6,105.6H115.2V107.2H113.6zM115.2,105.6H116.8V107.2H115.2zM116.8,105.6H118.4V107.2H116.8zM118.4,105.6H120V107.2H118.4zM120,105.6H121.6V107.2H120zM121.6,105.6H123.2V107.2H121.6zM11.2,107.2H12.8V108.8H11.2zM12.8,107.2H14.4V108.8H12.8zM19.2,107.2H20.8V108.8H19.2zM24,107.2H25.6V108.8H24zM25.6,107.2H27.2V108.8H25.6zM30.4,107.2H32V108.8H30.4zM32,107.2H33.6V108.8H32zM33.6,107.2H35.2V108.8H33.6zM35.2,107.2H36.8V108.8H35.2zM43.2,107.2H44.8V108.8H43.2zM44.8,107.2H46.4V108.8H44.8zM49.6,107.2H51.2V108.8H49.6zM51.2,107.2H52.8V108.8H51.2zM54.4,107.2H56V108.8H54.4zM56,107.2H57.6V108.8H56zM60.8,107.2H62.4V108.8H60.8zM62.4,107.2H64V108.8H62.4zM65.6,107.2H67.2V108.8H65.6zM67.2,107.2H68.8V108.8H67.2zM68.8,107.2H70.4V108.8H68.8zM70.4,107.2H72V108.8H70.4zM72,107.2H73.6V108.8H72zM73.6,107.2H75.2V108.8H73.6zM83.2,107.2H84.8V108.8H83.2zM84.8,107.2H86.4V108.8H84.8zM91.2,107.2H92.8V108.8H91.2zM94.4,107.2H96V108.8H94.4zM96,107.2H97.6V108.8H96zM97.6,107.2H99.2V108.8H97.6zM100.8,107.2H102.4V108.8H100.8zM102.4,107.2H104V108.8H102.4zM110.4,107.2H112V108.8H110.4zM112,107.2H113.6V108.8H112zM113.6,107.2H115.2V108.8H113.6zM116.8,107.2H118.4V108.8H116.8zM121.6,107.2H123.2V108.8H121.6zM6.4,108.8H8V110.4H6.4zM12.8,108.8H14.4V110.4H12.8zM16,108.8H17.6V110.4H16zM17.6,108.8H19.2V110.4H17.6zM27.2,108.8H28.8V110.4H27.2zM30.4,108.8H32V110.4H30.4zM32,108.8H33.6V110.4H32zM33.6,108.8H35.2V110.4H33.6zM36.8,108.8H38.4V110.4H36.8zM43.2,108.8H44.8V110.4H43.2zM44.8,108.8H46.4V110.4H44.8zM46.4,108.8H48V110.4H46.4zM48,108.8H49.6V110.4H48zM49.6,108.8H51.2V110.4H49.6zM51.2,108.8H52.8V110.4H51.2zM52.8,108.8H54.4V110.4H52.8zM56,108.8H57.6V110.4H56zM60.8,108.8H62.4V110.4H60.8zM67.2,108.8H68.8V110.4H67.2zM70.4,108.8H72V110.4H70.4zM72,108.8H73.6V110.4H72zM75.2,108.8H76.8V110.4H75.2zM76.8,108.8H78.4V110.4H76.8zM78.4,108.8H80V110.4H78.4zM80,108.8H81.6V110.4H80zM81.6,108.8H83.2V110.4H81.6zM83.2,108.8H84.8V110.4H83.2zM86.4,108.8H88V110.4H86.4zM88,108.8H89.6V110.4H88zM89.6,108.8H91.2V110.4H89.6zM105.6,108.8H107.2V110.4H105.6zM107.2,108.8H108.8V110.4H107.2zM108.8,108.8H110.4V110.4H108.8zM110.4,108.8H112V110.4H110.4zM112,108.8H113.6V110.4H112zM113.6,108.8H115.2V110.4H113.6zM115.2,108.8H116.8V110.4H115.2zM116.8,108.8H118.4V110.4H116.8zM118.4,108.8H120V110.4H118.4zM121.6,108.8H123.2V110.4H121.6zM19.2,110.4H20.8V112H19.2zM20.8,110.4H22.4V112H20.8zM22.4,110.4H24V112H22.4zM27.2,110.4H28.8V112H27.2zM32,110.4H33.6V112H32zM33.6,110.4H35.2V112H33.6zM38.4,110.4H40V112H38.4zM41.6,110.4H43.2V112H41.6zM43.2,110.4H44.8V112H43.2zM44.8,110.4H46.4V112H44.8zM51.2,110.4H52.8V112H51.2zM52.8,110.4H54.4V112H52.8zM56,110.4H57.6V112H56zM57.6,110.4H59.2V112H57.6zM59.2,110.4H60.8V112H59.2zM60.8,110.4H62.4V112H60.8zM62.4,110.4H64V112H62.4zM65.6,110.4H67.2V112H65.6zM68.8,110.4H70.4V112H68.8zM70.4,110.4H72V112H70.4zM73.6,110.4H75.2V112H73.6zM76.8,110.4H78.4V112H76.8zM83.2,110.4H84.8V112H83.2zM88,110.4H89.6V112H88zM89.6,110.4H91.2V112H89.6zM92.8,110.4H94.4V112H92.8zM97.6,110.4H99.2V112H97.6zM100.8,110.4H102.4V112H100.8zM105.6,110.4H107.2V112H105.6zM107.2,110.4H108.8V112H107.2zM108.8,110.4H110.4V112H108.8zM115.2,110.4H116.8V112H115.2zM118.4,110.4H120V112H118.4zM6.4,112H8V113.6H6.4zM8,112H9.6V113.6H8zM9.6,112H11.2V113.6H9.6zM11.2,112H12.8V113.6H11.2zM12.8,112H14.4V113.6H12.8zM14.4,112H16V113.6H14.4zM16,112H17.6V113.6H16zM20.8,112H22.4V113.6H20.8zM24,112H25.6V113.6H24zM27.2,112H28.8V113.6H27.2zM32,112H33.6V113.6H32zM33.6,112H35.2V113.6H33.6zM44.8,112H46.4V113.6H44.8zM48,112H49.6V113.6H48zM51.2,112H52.8V113.6H51.2zM54.4,112H56V113.6H54.4zM56,112H57.6V113.6H56zM59.2,112H60.8V113.6H59.2zM64,112H65.6V113.6H64zM65.6,112H67.2V113.6H65.6zM68.8,112H70.4V113.6H68.8zM70.4,112H72V113.6H70.4zM73.6,112H75.2V113.6H73.6zM75.2,112H76.8V113.6H75.2zM76.8,112H78.4V113.6H76.8zM80,112H81.6V113.6H80zM83.2,112H84.8V113.6H83.2zM84.8,112H86.4V113.6H84.8zM86.4,112H88V113.6H86.4zM89.6,112H91.2V113.6H89.6zM91.2,112H92.8V113.6H91.2zM94.4,112H96V113.6H94.4zM97.6,112H99.2V113.6H97.6zM99.2,112H100.8V113.6H99.2zM102.4,112H104V113.6H102.4zM104,112H105.6V113.6H104zM108.8,112H110.4V113.6H108.8zM112,112H113.6V113.6H112zM115.2,112H116.8V113.6H115.2zM120,112H121.6V113.6H120zM121.6,112H123.2V113.6H121.6zM6.4,113.6H8V115.2H6.4zM16,113.6H17.6V115.2H16zM20.8,113.6H22.4V115.2H20.8zM25.6,113.6H27.2V115.2H25.6zM28.8,113.6H30.4V115.2H28.8zM32,113.6H33.6V115.2H32zM35.2,113.6H36.8V115.2H35.2zM36.8,113.6H38.4V115.2H36.8zM38.4,113.6H40V115.2H38.4zM41.6,113.6H43.2V115.2H41.6zM44.8,113.6H46.4V115.2H44.8zM51.2,113.6H52.8V115.2H51.2zM52.8,113.6H54.4V115.2H52.8zM57.6,113.6H59.2V115.2H57.6zM62.4,113.6H64V115.2H62.4zM67.2,113.6H68.8V115.2H67.2zM72,113.6H73.6V115.2H72zM76.8,113.6H78.4V115.2H76.8zM83.2,113.6H84.8V115.2H83.2zM89.6,113.6H91.2V115.2H89.6zM91.2,113.6H92.8V115.2H91.2zM94.4,113.6H96V115.2H94.4zM96,113.6H97.6V115.2H96zM97.6,113.6H99.2V115.2H97.6zM100.8,113.6H102.4V115.2H100.8zM105.6,113.6H107.2V115.2H105.6zM108.8,113.6H110.4V115.2H108.8zM115.2,113.6H116.8V115.2H115.2zM120,113.6H121.6V115.2H120zM121.6,113.6H123.2V115.2H121.6zM6.4,115.2H8V116.8H6.4zM9.6,115.2H11.2V116.8H9.6zM11.2,115.2H12.8V116.8H11.2zM12.8,115.2H14.4V116.8H12.8zM16,115.2H17.6V116.8H16zM19.2,115.2H20.8V116.8H19.2zM24,115.2H25.6V116.8H24zM27.2,115.2H28.8V116.8H27.2zM30.4,115.2H32V116.8H30.4zM36.8,115.2H38.4V116.8H36.8zM40,115.2H41.6V116.8H40zM43.2,115.2H44.8V116.8H43.2zM44.8,115.2H46.4V116.8H44.8zM46.4,115.2H48V116.8H46.4zM48,115.2H49.6V116.8H48zM49.6,115.2H51.2V116.8H49.6zM51.2,115.2H52.8V116.8H51.2zM54.4,115.2H56V116.8H54.4zM56,115.2H57.6V116.8H56zM57.6,115.2H59.2V116.8H57.6zM62.4,115.2H64V116.8H62.4zM65.6,115.2H67.2V116.8H65.6zM68.8,115.2H70.4V116.8H68.8zM73.6,115.2H75.2V116.8H73.6zM75.2,115.2H76.8V116.8H75.2zM76.8,115.2H78.4V116.8H76.8zM78.4,115.2H80V116.8H78.4zM80,115.2H81.6V116.8H80zM81.6,115.2H83.2V116.8H81.6zM83.2,115.2H84.8V116.8H83.2zM88,115.2H89.6V116.8H88zM89.6,115.2H91.2V116.8H89.6zM91.2,115.2H92.8V116.8H91.2zM97.6,115.2H99.2V116.8H97.6zM99.2,115.2H100.8V116.8H99.2zM107.2,115.2H108.8V116.8H107.2zM108.8,115.2H110.4V116.8H108.8zM110.4,115.2H112V116.8H110.4zM112,115.2H113.6V116.8H112zM113.6,115.2H115.2V116.8H113.6zM115.2,115.2H116.8V116.8H115.2zM116.8,115.2H118.4V116.8H116.8zM118.4,115.2H120V116.8H118.4zM6.4,116.8H8V118.4H6.4zM9.6,116.8H11.2V118.4H9.6zM11.2,116.8H12.8V118.4H11.2zM12.8,116.8H14.4V118.4H12.8zM16,116.8H17.6V118.4H16zM19.2,116.8H20.8V118.4H19.2zM20.8,116.8H22.4V118.4H20.8zM22.4,116.8H24V118.4H22.4zM24,116.8H25.6V118.4H24zM25.6,116.8H27.2V118.4H25.6zM27.2,116.8H28.8V118.4H27.2zM28.8,116.8H30.4V118.4H28.8zM32,116.8H33.6V118.4H32zM33.6,116.8H35.2V118.4H33.6zM35.2,116.8H36.8V118.4H35.2zM38.4,116.8H40V118.4H38.4zM40,116.8H41.6V118.4H40zM41.6,116.8H43.2V118.4H41.6zM49.6,116.8H51.2V118.4H49.6zM52.8,116.8H54.4V118.4H52.8zM60.8,116.8H62.4V118.4H60.8zM62.4,116.8H64V118.4H62.4zM65.6,116.8H67.2V118.4H65.6zM68.8,116.8H70.4V118.4H68.8zM70.4,116.8H72V118.4H70.4zM73.6,116.8H75.2V118.4H73.6zM76.8,116.8H78.4V118.4H76.8zM80,116.8H81.6V118.4H80zM81.6,116.8H83.2V118.4H81.6zM83.2,116.8H84.8V118.4H83.2zM88,116.8H89.6V118.4H88zM91.2,116.8H92.8V118.4H91.2zM92.8,116.8H94.4V118.4H92.8zM97.6,116.8H99.2V118.4H97.6zM102.4,116.8H104V118.4H102.4zM105.6,116.8H107.2V118.4H105.6zM110.4,116.8H112V118.4H110.4zM112,116.8H113.6V118.4H112zM115.2,116.8H116.8V118.4H115.2zM121.6,116.8H123.2V118.4H121.6zM6.4,118.4H8V120H6.4zM9.6,118.4H11.2V120H9.6zM11.2,118.4H12.8V120H11.2zM12.8,118.4H14.4V120H12.8zM16,118.4H17.6V120H16zM19.2,118.4H20.8V120H19.2zM22.4,118.4H24V120H22.4zM25.6,118.4H27.2V120H25.6zM27.2,118.4H28.8V120H27.2zM33.6,118.4H35.2V120H33.6zM35.2,118.4H36.8V120H35.2zM38.4,118.4H40V120H38.4zM40,118.4H41.6V120H40zM41.6,118.4H43.2V120H41.6zM48,118.4H49.6V120H48zM51.2,118.4H52.8V120H51.2zM52.8,118.4H54.4V120H52.8zM54.4,118.4H56V120H54.4zM57.6,118.4H59.2V120H57.6zM60.8,118.4H62.4V120H60.8zM62.4,118.4H64V120H62.4zM64,118.4H65.6V120H64zM67.2,118.4H68.8V120H67.2zM68.8,118.4H70.4V120H68.8zM72,118.4H73.6V120H72zM75.2,118.4H76.8V120H75.2zM76.8,118.4H78.4V120H76.8zM78.4,118.4H80V120H78.4zM80,118.4H81.6V120H80zM84.8,118.4H86.4V120H84.8zM86.4,118.4H88V120H86.4zM88,118.4H89.6V120H88zM89.6,118.4H91.2V120H89.6zM99.2,118.4H100.8V120H99.2zM102.4,118.4H104V120H102.4zM104,118.4H105.6V120H104zM105.6,118.4H107.2V120H105.6zM107.2,118.4H108.8V120H107.2zM113.6,118.4H115.2V120H113.6zM116.8,118.4H118.4V120H116.8zM121.6,118.4H123.2V120H121.6zM6.4,120H8V121.6H6.4zM16,120H17.6V121.6H16zM30.4,120H32V121.6H30.4zM33.6,120H35.2V121.6H33.6zM49.6,120H51.2V121.6H49.6zM51.2,120H52.8V121.6H51.2zM52.8,120H54.4V121.6H52.8zM60.8,120H62.4V121.6H60.8zM62.4,120H64V121.6H62.4zM64,120H65.6V121.6H64zM70.4,120H72V121.6H70.4zM73.6,120H75.2V121.6H73.6zM80,120H81.6V121.6H80zM83.2,120H84.8V121.6H83.2zM86.4,120H88V121.6H86.4zM89.6,120H91.2V121.6H89.6zM91.2,120H92.8V121.6H91.2zM92.8,120H94.4V121.6H92.8zM94.4,120H96V121.6H94.4zM96,120H97.6V121.6H96zM97.6,120H99.2V121.6H97.6zM99.2,120H100.8V121.6H99.2zM100.8,120H102.4V121.6H100.8zM104,120H105.6V121.6H104zM107.2,120H108.8V121.6H107.2zM108.8,120H110.4V121.6H108.8zM112,120H113.6V121.6H112zM121.6,120H123.2V121.6H121.6zM6.4,121.6H8V123.2H6.4zM8,121.6H9.6V123.2H8zM9.6,121.6H11.2V123.2H9.6zM11.2,121.6H12.8V123.2H11.2zM12.8,121.6H14.4V123.2H12.8zM14.4,121.6H16V123.2H14.4zM16,121.6H17.6V123.2H16zM22.4,121.6H24V123.2H22.4zM24,121.6H25.6V123.2H24zM25.6,121.6H27.2V123.2H25.6zM28.8,121.6H30.4V123.2H28.8zM33.6,121.6H35.2V123.2H33.6zM35.2,121.6H36.8V123.2H35.2zM36.8,121.6H38.4V123.2H36.8zM38.4,121.6H40V123.2H38.4zM43.2,121.6H44.8V123.2H43.2zM44.8,121.6H46.4V123.2H44.8zM48,121.6H49.6V123.2H48zM49.6,121.6H51.2V123.2H49.6zM51.2,121.6H52.8V123.2H51.2zM52.8,121.6H54.4V123.2H52.8zM57.6,121.6H59.2V123.2H57.6zM64,121.6H65.6V123.2H64zM73.6,121.6H75.2V123.2H73.6zM78.4,121.6H80V123.2H78.4zM88,121.6H89.6V123.2H88zM89.6,121.6H91.2V123.2H89.6zM91.2,121.6H92.8V123.2H91.2zM96,121.6H97.6V123.2H96zM99.2,121.6H100.8V123.2H99.2zM102.4,121.6H104V123.2H102.4zM104,121.6H105.6V123.2H104zM105.6,121.6H107.2V123.2H105.6zM110.4,121.6H112V123.2H110.4zM115.2,121.6H116.8V123.2H115.2zM118.4,121.6H120V123.2H118.4zM120,121.6H121.6V123.2H120zM121.6,121.6H123.2V123.2H121.6z" id="qr-path" fill="#000000" fill-opacity="1" fill-rule="nonzero" stroke="none" /></svg>