<?xml version='1.0' encoding='UTF-8'?>
<svg width="65.6mm" height="65.6mm" version="1.1" viewBox="0 0 65.6 65.6" xmlns="http://www.w3.org/2000/svg"><path d="M6.4,6.4H8V8H6.4zM8,6.4H9.6V8H8zM9.6,6.4H11.2V8H9.6zM11.2,6.4H12.8V8H11.2zM12.8,6.4H14.4V8H12.8zM14.4,6.4H16V8H14.4zM16,6.4H17.6V8H16zM22.4,6.4H24V8H22.4zM30.4,6.4H32V8H30.4zM32,6.4H33.6V8H32zM33.6,6.4H35.2V8H33.6zM40,6.4H41.6V8H40zM43.2,6.4H44.8V8H43.2zM44.8,6.4H46.4V8H44.8zM48,6.4H49.6V8H48zM49.6,6.4H51.2V8H49.6zM51.2,6.4H52.8V8H51.2zM52.8,6.4H54.4V8H52.8zM54.4,6.4H56V8H54.4zM56,6.4H57.6V8H56zM57.6,6.4H59.2V8H57.6zM6.4,8H8V9.6H6.4zM16,8H17.6V9.6H16zM20.8,8H22.4V9.6H20.8zM24,8H25.6V9.6H24zM27.2,8H28.8V9.6H27.2zM30.4,8H32V9.6H30.4zM32,8H33.6V9.6H32zM33.6,8H35.2V9.6H33.6zM35.2,8H36.8V9.6H35.2zM38.4,8H40V9.6H38.4zM40,8H41.6V9.6H40zM43.2,8H44.8V9.6H43.2zM48,8H49.6V9.6H48zM57.6,8H59.2V9.6H57.6zM6.4,9.6H8V11.2H6.4zM9.6,9.6H11.2V11.2H9.6zM11.2,9.6H12.8V11.2H11.2zM12.8,9.6H14.4V11.2H12.8zM16,9.6H17.6V11.2H16zM22.4,9.6H24V11.2H22.4zM28.8,9.6H30.4V11.2H28.8zM36.8,9.6H38.4V11.2H36.8zM43.2,9.6H44.8V11.2H43.2zM48,9.6H49.6V11.2H48zM51.2,9.6H52.8V11.2H51.2zM52.8,9.6H54.4V11.2H52.8zM54.4,9.6H56V11.2H54.4zM57.6,9.6H59.2V11.2H57.6zM6.4,11.2H8V12.8H6.4zM9.6,11.2H11.2V12.8H9.6zM11.2,11.2H12.8V12.8H11.2zM12.8,11.2H14.4V12.8H12.8zM16,11.2H17.6V12.8H16zM20.8,11.2H22.4V12.8H20.8zM25.6,11.2H27.2V12.8H25.6zM27.2,11.2H28.8V12.8H27.2zM28.8,11.2H30.4V12.8H28.8zM30.4,11.2H32V12.8H30.4zM33.6,11.2H35.2V12.8H33.6zM36.8,11.2H38.4V12.8H36.8zM41.6,11.2H43.2V12.8H41.6zM43.2,11.2H44.8V12.8H43.2zM44.8,11.2H46.4V12.8H44.8zM48,11.2H49.6V12.8H48zM51.2,11.2H52.8V12.8H51.2zM52.8,11.2H54.4V12.8H52.8zM54.4,11.2H56V12.8H54.4zM57.6,11.2H59.2V12.8H57.6zM6.4,12.8H8V14.4H6.4zM9.6,12.8H11.2V14.4H9.6zM11.2,12.8H12.8V14.4H11.2zM12.8,12.8H14.4V14.4H12.8zM16,12.8H17.6V14.4H16zM19.2,12.8H20.8V14.4H19.2zM22.4,12.8H24V14.4H22.4zM24,12.8H25.6V14.4H24zM25.6,12.8H27.2V14.4H25.6zM27.2,12.8H28.8V14.4H27.2zM28.8,12.8H30.4V14.4H28.8zM30.4,12.8H32V14.4H30.4zM32,12.8H33.6V14.4H32zM33.6,12.8H35.2V14.4H33.6zM38.4,12.8H40V14.4H38.4zM43.2,12.8H44.8V14.4H43.2zM44.8,12.8H46.4V14.4H44.8zM48,12.8H49.6V14.4H48zM51.2,12.8H52.8V14.4H51.2zM52.8,12.8H54.4V14.4H52.8zM54.4,12.8H56V14.4H54.4zM57.6,12.8H59.2V14.4H57.6zM6.4,14.4H8V16H6.4zM16,14.4H17.6V16H16zM22.4,14.4H24V16H22.4zM24,14.4H25.6V16H24zM25.6,14.4H27.2V16H25.6zM28.8,14.4H30.4V16H28.8zM32,14.4H33.6V16H32zM33.6,14.4H35.2V16H33.6zM36.8,14.4H38.4V16H36.8zM41.6,14.4H43.2V16H41.6zM43.2,14.4H44.8V16H43.2zM48,14.4H49.6V16H48zM57.6,14.4H59.2V16H57.6zM6.4,16H8V17.6H6.4zM8,16H9.6V17.6H8zM9.6,16H11.2V17.6H9.6zM11.2,16H12.8V17.6H11.2zM12.8,16H14.4V17.6H12.8zM14.4,16H16V17.6H14.4zM16,16H17.6V17.6H16zM19.2,16H20.8V17.6H19.2zM22.4,16H24V17.6H22.4zM25.6,16H27.2V17.6H25.6zM28.8,16H30.4V17.6H28.8zM32,16H33.6V17.6H32zM35.2,16H36.8V17.6H35.2zM38.4,16H40V17.6H38.4zM41.6,16H43.2V17.6H41.6zM44.8,16H46.4V17.6H44.8zM48,16H49.6V17.6H48zM49.6,16H51.2V17.6H49.6zM51.2,16H52.8V17.6H51.2zM52.8,16H54.4V17.6H52.8zM54.4,16H56V17.6H54.4zM56,16H57.6V17.6H56zM57.6,16H59.2V17.6H57.6zM19.2,17.6H20.8V19.2H19.2zM24,17.6H25.6V19.2H24zM25.6,17.6H27.2V19.2H25.6zM27.2,17.6H28.8V19.2H27.2zM36.8,17.6H38.4V19.2H36.8zM41.6,17.6H43.2V19.2H41.6zM44.8,17.6H46.4V19.2H44.8zM9.6,19.2H11.2V20.8H9.6zM11.2,19.2H12.8V20.8H11.2zM16,19.2H17.6V20.8H16zM17.6,19.2H19.2V20.8H17.6zM19.2,19.2H20.8V20.8H19.2zM20.8,19.2H22.4V20.8H20.8zM24,19.2H25.6V20.8H24zM30.4,19.2H32V20.8H30.4zM32,19.2H33.6V20.8H32zM35.2,19.2H36.8V20.8H35.2zM36.8,19.2H38.4V20.8H36.8zM38.4,19.2H40V20.8H38.4zM40,19.2H41.6V20.8H40zM41.6,19.2H43.2V20.8H41.6zM43.2,19.2H44.8V20.8H43.2zM46.4,19.2H48V20.8H46.4zM48,19.2H49.6V20.8H48zM51.2,19.2H52.8V20.8H51.2zM11.2,20.8H12.8V22.4H11.2zM12.8,20.8H14.4V22.4H12.8zM14.4,20.8H16V22.4H14.4zM25.6,20.8H27.2V22.4H25.6zM33.6,20.8H35.2V22.4H33.6zM35.2,20.8H36.8V22.4H35.2zM38.4,20.8H40V22.4H38.4zM40,20.8H41.6V22.4H40zM41.6,20.8H43.2V22.4H41.6zM46.4,20.8H48V22.4H46.4zM48,20.8H49.6V22.4H48zM54.4,20.8H56V22.4H54.4zM57.6,20.8H59.2V22.4H57.6zM8,22.4H9.6V24H8zM16,22.4H17.6V24H16zM20.8,22.4H22.4V24H20.8zM22.4,22.4H24V24H22.4zM24,22.4H25.6V24H24zM32,22.4H33.6V24H32zM33.6,22.4H35.2V24H33.6zM36.8,22.4H38.4V24H36.8zM38.4,22.4H40V24H38.4zM43.2,22.4H44.8V24H43.2zM44.8,22.4H46.4V24H44.8zM46.4,22.4H48V24H46.4zM52.8,22.4H54.4V24H52.8zM54.4,22.4H56V24H54.4zM56,22.4H57.6V24H56zM57.6,22.4H59.2V24H57.6zM9.6,24H11.2V25.6H9.6zM19.2,24H20.8V25.6H19.2zM20.8,24H22.4V25.6H20.8zM22.4,24H24V25.6H22.4zM27.2,24H28.8V25.6H27.2zM32,24H33.6V25.6H32zM36.8,24H38.4V25.6H36.8zM38.4,24H40V25.6H38.4zM46.4,24H48V25.6H46.4zM49.6,24H51.2V25.6H49.6zM51.2,24H52.8V25.6H51.2zM56,24H57.6V25.6H56zM8,25.6H9.6V27.2H8zM12.8,25.6H14.4V27.2H12.8zM16,25.6H17.6V27.2H16zM17.6,25.6H19.2V27.2H17.6zM20.8,25.6H22.4V27.2H20.8zM22.4,25.6H24V27.2H22.4zM25.6,25.6H27.2V27.2H25.6zM30.4,25.6H32V27.2H30.4zM32,25.6H33.6V27.2H32zM33.6,25.6H35.2V27.2H33.6zM35.2,25.6H36.8V27.2H35.2zM40,25.6H41.6V27.2H40zM43.2,25.6H44.8V27.2H43.2zM46.4,25.6H48V27.2H46.4zM56,25.6H57.6V27.2H56zM6.4,27.2H8V28.8H6.4zM8,27.2H9.6V28.8H8zM11.2,27.2H12.8V28.8H11.2zM12.8,27.2H14.4V28.8H12.8zM14.4,27.2H16V28.8H14.4zM17.6,27.2H19.2V28.8H17.6zM19.2,27.2H20.8V28.8H19.2zM20.8,27.2H22.4V28.8H20.8zM22.4,27.2H24V28.8H22.4zM25.6,27.2H27.2V28.8H25.6zM28.8,27.2H30.4V28.8H28.8zM35.2,27.2H36.8V28.8H35.2zM36.8,27.2H38.4V28.8H36.8zM40,27.2H41.6V28.8H40zM41.6,27.2H43.2V28.8H41.6zM44.8,27.2H46.4V28.8H44.8zM46.4,27.2H48V28.8H46.4zM52.8,27.2H54.4V28.8H52.8zM9.6,28.8H11.2V30.4H9.6zM11.2,28.8H12.8V30.4H11.2zM16,28.8H17.6V30.4H16zM17.6,28.8H19.2V30.4H17.6zM19.2,28.8H20.8V30.4H19.2zM20.8,28.8H22.4V30.4H20.8zM27.2,28.8H28.8V30.4H27.2zM38.4,28.8H40V30.4H38.4zM40,28.8H41.6V30.4H40zM49.6,28.8H51.2V30.4H49.6zM51.2,28.8H52.8V30.4H51.2zM52.8,28.8H54.4V30.4H52.8zM8,30.4H9.6V32H8zM14.4,30.4H16V32H14.4zM17.6,30.4H19.2V32H17.6zM22.4,30.4H24V32H22.4zM33.6,30.4H35.2V32H33.6zM35.2,30.4H36.8V32H35.2zM36.8,30.4H38.4V32H36.8zM38.4,30.4H40V32H38.4zM40,30.4H41.6V32H40zM41.6,30.4H43.2V32H41.6zM43.2,30.4H44.8V32H43.2zM49.6,30.4H51.2V32H49.6zM54.4,30.4H56V32H54.4zM56,30.4H57.6V32H56zM16,32H17.6V33.6H16zM17.6,32H19.2V33.6H17.6zM20.8,32H22.4V33.6H20.8zM24,32H25.6V33.6H24zM25.6,32H27.2V33.6H25.6zM27.2,32H28.8V33.6H27.2zM28.8,32H30.4V33.6H28.8zM32,32H33.6V33.6H32zM33.6,32H35.2V33.6H33.6zM36.8,32H38.4V33.6H36.8zM38.4,32H40V33.6H38.4zM40,32H41.6V33.6H40zM44.8,32H46.4V33.6H44.8zM46.4,32H48V33.6H46.4zM48,32H49.6V33.6H48zM49.6,32H51.2V33.6H49.6zM51.2,32H52.8V33.6H51.2zM8,33.6H9.6V35.2H8zM11.2,33.6H12.8V35.2H11.2zM14.4,33.6H16V35.2H14.4zM17.6,33.6H19.2V35.2H17.6zM19.2,33.6H20.8V35.2H19.2zM24,33.6H25.6V35.2H24zM28.8,33.6H30.4V35.2H28.8zM30.4,33.6H32V35.2H30.4zM32,33.6H33.6V35.2H32zM33.6,33.6H35.2V35.2H33.6zM35.2,33.6H36.8V35.2H35.2zM38.4,33.6H40V35.2H38.4zM40,33.6H41.6V35.2H40zM41.6,33.6H43.2V35.2H41.6zM43.2,33.6H44.8V35.2H43.2zM48,33.6H49.6V35.2H48zM51.2,33.6H52.8V35.2H51.2zM54.4,33.6H56V35.2H54.4zM56,33.6H57.6V35.2H56zM8,35.2H9.6V36.8H8zM9.6,35.2H11.2V36.8H9.6zM11.2,35.2H12.8V36.8H11.2zM12.8,35.2H14.4V36.8H12.8zM16,35.2H17.6V36.8H16zM19.2,35.2H20.8V36.8H19.2zM22.4,35.2H24V36.8H22.4zM25.6,35.2H27.2V36.8H25.6zM30.4,35.2H32V36.8H30.4zM32,35.2H33.6V36.8H32zM33.6,35.2H35.2V36.8H33.6zM41.6,35.2H43.2V36.8H41.6zM46.4,35.2H48V36.8H46.4zM48,35.2H49.6V36.8H48zM54.4,35.2H56V36.8H54.4zM56,35.2H57.6V36.8H56zM57.6,35.2H59.2V36.8H57.6zM6.4,36.8H8V38.4H6.4zM8,36.8H9.6V38.4H8zM12.8,36.8H14.4V38.4H12.8zM14.4,36.8H16V38.4H14.4zM19.2,36.8H20.8V38.4H19.2zM20.8,36.8H22.4V38.4H20.8zM24,36.8H25.6V38.4H24zM27.2,36.8H28.8V38.4H27.2zM28.8,36.8H30.4V38.4H28.8zM30.4,36.8H32V38.4H30.4zM32,36.8H33.6V38.4H32zM33.6,36.8H35.2V38.4H33.6zM36.8,36.8H38.4V38.4H36.8zM38.4,36.8H40V38.4H38.4zM41.6,36.8H43.2V38.4H41.6zM6.4,38.4H8V40H6.4zM12.8,38.4H14.4V40H12.8zM16,38.4H17.6V40H16zM19.2,38.4H20.8V40H19.2zM20.8,38.4H22.4V40H20.8zM22.4,38.4H24V40H22.4zM25.6,38.4H27.2V40H25.6zM32,38.4H33.6V40H32zM33.6,38.4H35.2V40H33.6zM35.2,38.4H36.8V40H35.2zM36.8,38.4H38.4V40H36.8zM40,38.4H41.6V40H40zM41.6,38.4H43.2V40H41.6zM44.8,38.4H46.4V40H44.8zM48,38.4H49.6V40H48zM52.8,38.4H54.4V40H52.8zM54.4,38.4H56V40H54.4zM57.6,38.4H59.2V40H57.6zM6.4,40H8V41.6H6.4zM12.8,40H14.4V41.6H12.8zM14.4,40H16V41.6H14.4zM17.6,40H19.2V41.6H17.6zM20.8,40H22.4V41.6H20.8zM22.4,40H24V41.6H22.4zM24,40H25.6V41.6H24zM25.6,40H27.2V41.6H25.6zM33.6,40H35.2V41.6H33.6zM38.4,40H40V41.6H38.4zM40,40H41.6V41.6H40zM44.8,40H46.4V41.6H44.8zM54.4,40H56V41.6H54.4zM56,40H57.6V41.6H56zM57.6,40H59.2V41.6H57.6zM9.6,41.6H11.2V43.2H9.6zM11.2,41.6H12.8V43.2H11.2zM12.8,41.6H14.4V43.2H12.8zM16,41.6H17.6V43.2H16zM20.8,41.6H22.4V43.2H20.8zM22.4,41.6H24V43.2H22.4zM24,41.6H25.6V43.2H24zM28.8,41.6H30.4V43.2H28.8zM30.4,41.6H32V43.2H30.4zM32,41.6H33.6V43.2H32zM33.6,41.6H35.2V43.2H33.6zM40,41.6H41.6V43.2H40zM41.6,41.6H43.2V43.2H41.6zM43.2,41.6H44.8V43.2H43.2zM44.8,41.6H46.4V43.2H44.8zM48,41.6H49.6V43.2H48zM56,41.6H57.6V43.2H56zM57.6,41.6H59.2V43.2H57.6zM8,43.2H9.6V44.8H8zM9.6,43.2H11.2V44.8H9.6zM11.2,43.2H12.8V44.8H11.2zM12.8,43.2H14.4V44.8H12.8zM14.4,43.2H16V44.8H14.4zM20.8,43.2H22.4V44.8H20.8zM22.4,43.2H24V44.8H22.4zM25.6,43.2H27.2V44.8H25.6zM28.8,43.2H30.4V44.8H28.8zM30.4,43.2H32V44.8H30.4zM32,43.2H33.6V44.8H32zM33.6,43.2H35.2V44.8H33.6zM38.4,43.2H40V44.8H38.4zM46.4,43.2H48V44.8H46.4zM49.6,43.2H51.2V44.8H49.6zM52.8,43.2H54.4V44.8H52.8zM57.6,43.2H59.2V44.8H57.6zM6.4,44.8H8V46.4H6.4zM9.6,44.8H11.2V46.4H9.6zM11.2,44.8H12.8V46.4H11.2zM12.8,44.8H14.4V46.4H12.8zM14.4,44.8H16V46.4H14.4zM16,44.8H17.6V46.4H16zM19.2,44.8H20.8V46.4H19.2zM20.8,44.8H22.4V46.4H20.8zM22.4,44.8H24V46.4H22.4zM28.8,44.8H30.4V46.4H28.8zM30.4,44.8H32V46.4H30.4zM33.6,44.8H35.2V46.4H33.6zM38.4,44.8H40V46.4H38.4zM40,44.8H41.6V46.4H40zM44.8,44.8H46.4V46.4H44.8zM46.4,44.8H48V46.4H46.4zM48,44.8H49.6V46.4H48zM49.6,44.8H51.2V46.4H49.6zM51.2,44.8H52.8V46.4H51.2zM56,44.8H57.6V46.4H56zM57.6,44.8H59.2V46.4H57.6zM19.2,46.4H20.8V48H19.2zM24,46.4H25.6V48H24zM28.8,46.4H30.4V48H28.8zM30.4,46.4H32V48H30.4zM33.6,46.4H35.2V48H33.6zM35.2,46.4H36.8V48H35.2zM40,46.4H41.6V48H40zM44.8,46.4H46.4V48H44.8zM51.2,46.4H52.8V48H51.2zM54.4,46.4H56V48H54.4zM56,46.4H57.6V48H56zM6.4,48H8V49.6H6.4zM8,48H9.6V49.6H8zM9.6,48H11.2V49.6H9.6zM11.2,48H12.8V49.6H11.2zM12.8,48H14.4V49.6H12.8zM14.4,48H16V49.6H14.4zM16,48H17.6V49.6H16zM19.2,48H20.8V49.6H19.2zM20.8,48H22.4V49.6H20.8zM22.4,48H24V49.6H22.4zM24,48H25.6V49.6H24zM28.8,48H30.4V49.6H28.8zM32,48H33.6V49.6H32zM40,48H41.6V49.6H40zM43.2,48H44.8V49.6H43.2zM44.8,48H46.4V49.6H44.8zM48,48H49.6V49.6H48zM51.2,48H52.8V49.6H51.2zM52.8,48H54.4V49.6H52.8zM54.4,48H56V49.6H54.4zM6.4,49.6H8V51.2H6.4zM16,49.6H17.6V51.2H16zM20.8,49.6H22.4V51.2H20.8zM22.4,49.6H24V51.2H22.4zM25.6,49.6H27.2V51.2H25.6zM27.2,49.6H28.8V51.2H27.2zM32,49.6H33.6V51.2H32zM38.4,49.6H40V51.2H38.4zM44.8,49.6H46.4V51.2H44.8zM51.2,49.6H52.8V51.2H51.2zM52.8,49.6H54.4V51.2H52.8zM54.4,49.6H56V51.2H54.4zM56,49.6H57.6V51.2H56zM57.6,49.6H59.2V51.2H57.6zM6.4,51.2H8V52.8H6.4zM9.6,51.2H11.2V52.8H9.6zM11.2,51.2H12.8V52.8H11.2zM12.8,51.2H14.4V52.8H12.8zM16,51.2H17.6V52.8H16zM22.4,51.2H24V52.8H22.4zM27.2,51.2H28.8V52.8H27.2zM33.6,51.2H35.2V52.8H33.6zM35.2,51.2H36.8V52.8H35.2zM36.8,51.2H38.4V52.8H36.8zM41.6,51.2H43.2V52.8H41.6zM43.2,51.2H44.8V52.8H43.2zM44.8,51.2H46.4V52.8H44.8zM46.4,51.2H48V52.8H46.4zM48,51.2H49.6V52.8H48zM49.6,51.2H51.2V52.8H49.6zM51.2,51.2H52.8V52.8H51.2zM54.4,51.2H56V52.8H54.4zM56,51.2H57.6V52.8H56zM6.4,52.8H8V54.4H6.4zM9.6,52.8H11.2V54.4H9.6zM11.2,52.8H12.8V54.4H11.2zM12.8,52.8H14.4V54.4H12.8zM16,52.8H17.6V54.4H16zM19.2,52.8H20.8V54.4H19.2zM20.8,52.8H22.4V54.4H20.8zM22.4,52.8H24V54.4H22.4zM25.6,52.8H27.2V54.4H25.6zM27.2,52.8H28.8V54.4H27.2zM30.4,52.8H32V54.4H30.4zM32,52.8H33.6V54.4H32zM33.6,52.8H35.2V54.4H33.6zM35.2,52.8H36.8V54.4H35.2zM36.8,52.8H38.4V54.4H36.8zM38.4,52.8H40V54.4H38.4zM40,52.8H41.6V54.4H40zM41.6,52.8H43.2V54.4H41.6zM49.6,52.8H51.2V54.4H49.6zM52.8,52.8H54.4V54.4H52.8zM54.4,52.8H56V54.4H54.4zM6.4,54.4H8V56H6.4zM9.6,54.4H11.2V56H9.6zM11.2,54.4H12.8V56H11.2zM12.8,54.4H14.4V56H12.8zM16,54.4H17.6V56H16zM19.2,54.4H20.8V56H19.2zM20.8,54.4H22.4V56H20.8zM24,54.4H25.6V56H24zM28.8,54.4H30.4V56H28.8zM33.6,54.4H35.2V56H33.6zM36.8,54.4H38.4V56H36.8zM40,54.4H41.6V56H40zM41.6,54.4H43.2V56H41.6zM44.8,54.4H46.4V56H44.8zM46.4,54.4H48V56H46.4zM48,54.4H49.6V56H48zM6.4,56H8V57.6H6.4zM16,56H17.6V57.6H16zM20.8,56H22.4V57.6H20.8zM24,56H25.6V57.6H24zM27.2,56H28.8V57.6H27.2zM33.6,56H35.2V57.6H33.6zM35.2,56H36.8V57.6H35.2zM43.2,56H44.8V57.6H43.2zM44.8,56H46.4V57.6H44.8zM54.4,56H56V57.6H54.4zM57.6,56H59.2V57.6H57.6zM6.4,57.6H8V59.2H6.4zM8,57.6H9.6V59.2H8zM9.6,57.6H11.2V59.2H9.6zM11.2,57.6H12.8V59.2H11.2zM12.8,57.6H14.4V59.2H12.8zM14.4,57.6H16V59.2H14.4zM16,57.6H17.6V59.2H16zM20.8,57.6H22.4V59.2H20.8zM24,57.6H25.6V59.2H24zM27.2,57.6H28.8V59.2H27.2zM32,57.6H33.6V59.2H32zM33.6,57.6H35.2V59.2H33.6zM38.4,57.6H40V59.2H38.4zM41.6,57.6H43.2V59.2H41.6zM49.6,57.6H51.2V59.2H49.6zM51.2,57.6H52.8V59.2H51.2z" id="qr-path" fill="#000000" fill-opacity="1" fill-rule="nonzero" stroke="none"/></svg>