<?xml version='1.0' encoding='UTF-8'?>
<svg width="59.2mm" height="59.2mm" version="1.1" viewBox="0 0 59.2 59.2" xmlns="http://www.w3.org/2000/svg"><path d="M6.4,6.4H8V8H6.4zM8,6.4H9.6V8H8zM9.6,6.4H11.2V8H9.6zM11.2,6.4H12.8V8H11.2zM12.8,6.4H14.4V8H12.8zM14.4,6.4H16V8H14.4zM16,6.4H17.6V8H16zM19.2,6.4H20.8V8H19.2zM22.4,6.4H24V8H22.4zM25.6,6.4H27.2V8H25.6zM32,6.4H33.6V8H32zM35.2,6.4H36.8V8H35.2zM38.4,6.4H40V8H38.4zM41.6,6.4H43.2V8H41.6zM43.2,6.4H44.8V8H43.2zM44.8,6.4H46.4V8H44.8zM46.4,6.4H48V8H46.4zM48,6.4H49.6V8H48zM49.6,6.4H51.2V8H49.6zM51.2,6.4H52.8V8H51.2zM6.4,8H8V9.6H6.4zM16,8H17.6V9.6H16zM22.4,8H24V9.6H22.4zM24,8H25.6V9.6H24zM27.2,8H28.8V9.6H27.2zM32,8H33.6V9.6H32zM36.8,8H38.4V9.6H36.8zM38.4,8H40V9.6H38.4zM41.6,8H43.2V9.6H41.6zM51.2,8H52.8V9.6H51.2zM6.4,9.6H8V11.2H6.4zM9.6,9.6H11.2V11.2H9.6zM11.2,9.6H12.8V11.2H11.2zM12.8,9.6H14.4V11.2H12.8zM16,9.6H17.6V11.2H16zM20.8,9.6H22.4V11.2H20.8zM22.4,9.6H24V11.2H22.4zM27.2,9.6H28.8V11.2H27.2zM28.8,9.6H30.4V11.2H28.8zM32,9.6H33.6V11.2H32zM36.8,9.6H38.4V11.2H36.8zM41.6,9.6H43.2V11.2H41.6zM44.8,9.6H46.4V11.2H44.8zM46.4,9.6H48V11.2H46.4zM48,9.6H49.6V11.2H48zM51.2,9.6H52.8V11.2H51.2zM6.4,11.2H8V12.8H6.4zM9.6,11.2H11.2V12.8H9.6zM11.2,11.2H12.8V12.8H11.2zM12.8,11.2H14.4V12.8H12.8zM16,11.2H17.6V12.8H16zM19.2,11.2H20.8V12.8H19.2zM24,11.2H25.6V12.8H24zM25.6,11.2H27.2V12.8H25.6zM30.4,11.2H32V12.8H30.4zM32,11.2H33.6V12.8H32zM35.2,11.2H36.8V12.8H35.2zM38.4,11.2H40V12.8H38.4zM41.6,11.2H43.2V12.8H41.6zM44.8,11.2H46.4V12.8H44.8zM46.4,11.2H48V12.8H46.4zM48,11.2H49.6V12.8H48zM51.2,11.2H52.8V12.8H51.2zM6.4,12.8H8V14.4H6.4zM9.6,12.8H11.2V14.4H9.6zM11.2,12.8H12.8V14.4H11.2zM12.8,12.8H14.4V14.4H12.8zM16,12.8H17.6V14.4H16zM24,12.8H25.6V14.4H24zM30.4,12.8H32V14.4H30.4zM32,12.8H33.6V14.4H32zM33.6,12.8H35.2V14.4H33.6zM36.8,12.8H38.4V14.4H36.8zM41.6,12.8H43.2V14.4H41.6zM44.8,12.8H46.4V14.4H44.8zM46.4,12.8H48V14.4H46.4zM48,12.8H49.6V14.4H48zM51.2,12.8H52.8V14.4H51.2zM6.4,14.4H8V16H6.4zM16,14.4H17.6V16H16zM20.8,14.4H22.4V16H20.8zM25.6,14.4H27.2V16H25.6zM27.2,14.4H28.8V16H27.2zM35.2,14.4H36.8V16H35.2zM36.8,14.4H38.4V16H36.8zM41.6,14.4H43.2V16H41.6zM51.2,14.4H52.8V16H51.2zM6.4,16H8V17.6H6.4zM8,16H9.6V17.6H8zM9.6,16H11.2V17.6H9.6zM11.2,16H12.8V17.6H11.2zM12.8,16H14.4V17.6H12.8zM14.4,16H16V17.6H14.4zM16,16H17.6V17.6H16zM19.2,16H20.8V17.6H19.2zM22.4,16H24V17.6H22.4zM25.6,16H27.2V17.6H25.6zM28.8,16H30.4V17.6H28.8zM32,16H33.6V17.6H32zM35.2,16H36.8V17.6H35.2zM38.4,16H40V17.6H38.4zM41.6,16H43.2V17.6H41.6zM43.2,16H44.8V17.6H43.2zM44.8,16H46.4V17.6H44.8zM46.4,16H48V17.6H46.4zM48,16H49.6V17.6H48zM49.6,16H51.2V17.6H49.6zM51.2,16H52.8V17.6H51.2zM22.4,17.6H24V19.2H22.4zM24,17.6H25.6V19.2H24zM27.2,17.6H28.8V19.2H27.2zM28.8,17.6H30.4V19.2H28.8zM30.4,17.6H32V19.2H30.4zM38.4,17.6H40V19.2H38.4zM9.6,19.2H11.2V20.8H9.6zM12.8,19.2H14.4V20.8H12.8zM14.4,19.2H16V20.8H14.4zM16,19.2H17.6V20.8H16zM19.2,19.2H20.8V20.8H19.2zM22.4,19.2H24V20.8H22.4zM24,19.2H25.6V20.8H24zM32,19.2H33.6V20.8H32zM36.8,19.2H38.4V20.8H36.8zM38.4,19.2H40V20.8H38.4zM40,19.2H41.6V20.8H40zM46.4,19.2H48V20.8H46.4zM51.2,19.2H52.8V20.8H51.2zM12.8,20.8H14.4V22.4H12.8zM20.8,20.8H22.4V22.4H20.8zM22.4,20.8H24V22.4H22.4zM24,20.8H25.6V22.4H24zM28.8,20.8H30.4V22.4H28.8zM33.6,20.8H35.2V22.4H33.6zM40,20.8H41.6V22.4H40zM41.6,20.8H43.2V22.4H41.6zM43.2,20.8H44.8V22.4H43.2zM46.4,20.8H48V22.4H46.4zM51.2,20.8H52.8V22.4H51.2zM6.4,22.4H8V24H6.4zM9.6,22.4H11.2V24H9.6zM12.8,22.4H14.4V24H12.8zM16,22.4H17.6V24H16zM24,22.4H25.6V24H24zM27.2,22.4H28.8V24H27.2zM30.4,22.4H32V24H30.4zM32,22.4H33.6V24H32zM35.2,22.4H36.8V24H35.2zM44.8,22.4H46.4V24H44.8zM49.6,22.4H51.2V24H49.6zM51.2,22.4H52.8V24H51.2zM8,24H9.6V25.6H8zM12.8,24H14.4V25.6H12.8zM17.6,24H19.2V25.6H17.6zM20.8,24H22.4V25.6H20.8zM28.8,24H30.4V25.6H28.8zM32,24H33.6V25.6H32zM35.2,24H36.8V25.6H35.2zM36.8,24H38.4V25.6H36.8zM38.4,24H40V25.6H38.4zM40,24H41.6V25.6H40zM41.6,24H43.2V25.6H41.6zM49.6,24H51.2V25.6H49.6zM8,25.6H9.6V27.2H8zM12.8,25.6H14.4V27.2H12.8zM16,25.6H17.6V27.2H16zM25.6,25.6H27.2V27.2H25.6zM28.8,25.6H30.4V27.2H28.8zM32,25.6H33.6V27.2H32zM33.6,25.6H35.2V27.2H33.6zM36.8,25.6H38.4V27.2H36.8zM38.4,25.6H40V27.2H38.4zM41.6,25.6H43.2V27.2H41.6zM43.2,25.6H44.8V27.2H43.2zM8,27.2H9.6V28.8H8zM9.6,27.2H11.2V28.8H9.6zM17.6,27.2H19.2V28.8H17.6zM24,27.2H25.6V28.8H24zM28.8,27.2H30.4V28.8H28.8zM35.2,27.2H36.8V28.8H35.2zM38.4,27.2H40V28.8H38.4zM40,27.2H41.6V28.8H40zM41.6,27.2H43.2V28.8H41.6zM43.2,27.2H44.8V28.8H43.2zM51.2,27.2H52.8V28.8H51.2zM6.4,28.8H8V30.4H6.4zM8,28.8H9.6V30.4H8zM16,28.8H17.6V30.4H16zM22.4,28.8H24V30.4H22.4zM27.2,28.8H28.8V30.4H27.2zM30.4,28.8H32V30.4H30.4zM32,28.8H33.6V30.4H32zM40,28.8H41.6V30.4H40zM43.2,28.8H44.8V30.4H43.2zM48,28.8H49.6V30.4H48zM49.6,28.8H51.2V30.4H49.6zM51.2,28.8H52.8V30.4H51.2zM11.2,30.4H12.8V32H11.2zM17.6,30.4H19.2V32H17.6zM25.6,30.4H27.2V32H25.6zM27.2,30.4H28.8V32H27.2zM28.8,30.4H30.4V32H28.8zM32,30.4H33.6V32H32zM33.6,30.4H35.2V32H33.6zM36.8,30.4H38.4V32H36.8zM40,30.4H41.6V32H40zM41.6,30.4H43.2V32H41.6zM43.2,30.4H44.8V32H43.2zM6.4,32H8V33.6H6.4zM9.6,32H11.2V33.6H9.6zM11.2,32H12.8V33.6H11.2zM12.8,32H14.4V33.6H12.8zM14.4,32H16V33.6H14.4zM16,32H17.6V33.6H16zM17.6,32H19.2V33.6H17.6zM19.2,32H20.8V33.6H19.2zM20.8,32H22.4V33.6H20.8zM22.4,32H24V33.6H22.4zM25.6,32H27.2V33.6H25.6zM30.4,32H32V33.6H30.4zM36.8,32H38.4V33.6H36.8zM38.4,32H40V33.6H38.4zM40,32H41.6V33.6H40zM41.6,32H43.2V33.6H41.6zM46.4,32H48V33.6H46.4zM11.2,33.6H12.8V35.2H11.2zM17.6,33.6H19.2V35.2H17.6zM19.2,33.6H20.8V35.2H19.2zM20.8,33.6H22.4V35.2H20.8zM22.4,33.6H24V35.2H22.4zM24,33.6H25.6V35.2H24zM25.6,33.6H27.2V35.2H25.6zM33.6,33.6H35.2V35.2H33.6zM38.4,33.6H40V35.2H38.4zM40,33.6H41.6V35.2H40zM41.6,33.6H43.2V35.2H41.6zM46.4,33.6H48V35.2H46.4zM49.6,33.6H51.2V35.2H49.6zM51.2,33.6H52.8V35.2H51.2zM6.4,35.2H8V36.8H6.4zM9.6,35.2H11.2V36.8H9.6zM11.2,35.2H12.8V36.8H11.2zM12.8,35.2H14.4V36.8H12.8zM14.4,35.2H16V36.8H14.4zM16,35.2H17.6V36.8H16zM17.6,35.2H19.2V36.8H17.6zM20.8,35.2H22.4V36.8H20.8zM22.4,35.2H24V36.8H22.4zM24,35.2H25.6V36.8H24zM28.8,35.2H30.4V36.8H28.8zM30.4,35.2H32V36.8H30.4zM35.2,35.2H36.8V36.8H35.2zM40,35.2H41.6V36.8H40zM43.2,35.2H44.8V36.8H43.2zM44.8,35.2H46.4V36.8H44.8zM46.4,35.2H48V36.8H46.4zM48,35.2H49.6V36.8H48zM49.6,35.2H51.2V36.8H49.6zM51.2,35.2H52.8V36.8H51.2zM8,36.8H9.6V38.4H8zM9.6,36.8H11.2V38.4H9.6zM19.2,36.8H20.8V38.4H19.2zM24,36.8H25.6V38.4H24zM25.6,36.8H27.2V38.4H25.6zM33.6,36.8H35.2V38.4H33.6zM35.2,36.8H36.8V38.4H35.2zM38.4,36.8H40V38.4H38.4zM41.6,36.8H43.2V38.4H41.6zM46.4,36.8H48V38.4H46.4zM51.2,36.8H52.8V38.4H51.2zM6.4,38.4H8V40H6.4zM9.6,38.4H11.2V40H9.6zM12.8,38.4H14.4V40H12.8zM16,38.4H17.6V40H16zM17.6,38.4H19.2V40H17.6zM25.6,38.4H27.2V40H25.6zM28.8,38.4H30.4V40H28.8zM30.4,38.4H32V40H30.4zM35.2,38.4H36.8V40H35.2zM36.8,38.4H38.4V40H36.8zM38.4,38.4H40V40H38.4zM40,38.4H41.6V40H40zM41.6,38.4H43.2V40H41.6zM43.2,38.4H44.8V40H43.2zM44.8,38.4H46.4V40H44.8zM49.6,38.4H51.2V40H49.6zM51.2,38.4H52.8V40H51.2zM19.2,40H20.8V41.6H19.2zM20.8,40H22.4V41.6H20.8zM22.4,40H24V41.6H22.4zM24,40H25.6V41.6H24zM25.6,40H27.2V41.6H25.6zM30.4,40H32V41.6H30.4zM32,40H33.6V41.6H32zM33.6,40H35.2V41.6H33.6zM36.8,40H38.4V41.6H36.8zM38.4,40H40V41.6H38.4zM44.8,40H46.4V41.6H44.8zM49.6,40H51.2V41.6H49.6zM51.2,40H52.8V41.6H51.2zM6.4,41.6H8V43.2H6.4zM8,41.6H9.6V43.2H8zM9.6,41.6H11.2V43.2H9.6zM11.2,41.6H12.8V43.2H11.2zM12.8,41.6H14.4V43.2H12.8zM14.4,41.6H16V43.2H14.4zM16,41.6H17.6V43.2H16zM20.8,41.6H22.4V43.2H20.8zM22.4,41.6H24V43.2H22.4zM24,41.6H25.6V43.2H24zM30.4,41.6H32V43.2H30.4zM32,41.6H33.6V43.2H32zM33.6,41.6H35.2V43.2H33.6zM36.8,41.6H38.4V43.2H36.8zM38.4,41.6H40V43.2H38.4zM41.6,41.6H43.2V43.2H41.6zM44.8,41.6H46.4V43.2H44.8zM48,41.6H49.6V43.2H48zM49.6,41.6H51.2V43.2H49.6zM51.2,41.6H52.8V43.2H51.2zM6.4,43.2H8V44.8H6.4zM16,43.2H17.6V44.8H16zM19.2,43.2H20.8V44.8H19.2zM22.4,43.2H24V44.8H22.4zM24,43.2H25.6V44.8H24zM27.2,43.2H28.8V44.8H27.2zM28.8,43.2H30.4V44.8H28.8zM30.4,43.2H32V44.8H30.4zM32,43.2H33.6V44.8H32zM33.6,43.2H35.2V44.8H33.6zM38.4,43.2H40V44.8H38.4zM44.8,43.2H46.4V44.8H44.8zM49.6,43.2H51.2V44.8H49.6zM6.4,44.8H8V46.4H6.4zM9.6,44.8H11.2V46.4H9.6zM11.2,44.8H12.8V46.4H11.2zM12.8,44.8H14.4V46.4H12.8zM16,44.8H17.6V46.4H16zM19.2,44.8H20.8V46.4H19.2zM22.4,44.8H24V46.4H22.4zM28.8,44.8H30.4V46.4H28.8zM30.4,44.8H32V46.4H30.4zM32,44.8H33.6V46.4H32zM35.2,44.8H36.8V46.4H35.2zM38.4,44.8H40V46.4H38.4zM40,44.8H41.6V46.4H40zM41.6,44.8H43.2V46.4H41.6zM43.2,44.8H44.8V46.4H43.2zM44.8,44.8H46.4V46.4H44.8zM46.4,44.8H48V46.4H46.4zM51.2,44.8H52.8V46.4H51.2zM6.4,46.4H8V48H6.4zM9.6,46.4H11.2V48H9.6zM11.2,46.4H12.8V48H11.2zM12.8,46.4H14.4V48H12.8zM16,46.4H17.6V48H16zM20.8,46.4H22.4V48H20.8zM24,46.4H25.6V48H24zM25.6,46.4H27.2V48H25.6zM28.8,46.4H30.4V48H28.8zM32,46.4H33.6V48H32zM33.6,46.4H35.2V48H33.6zM38.4,46.4H40V48H38.4zM40,46.4H41.6V48H40zM44.8,46.4H46.4V48H44.8zM48,46.4H49.6V48H48zM6.4,48H8V49.6H6.4zM9.6,48H11.2V49.6H9.6zM11.2,48H12.8V49.6H11.2zM12.8,48H14.4V49.6H12.8zM16,48H17.6V49.6H16zM19.2,48H20.8V49.6H19.2zM20.8,48H22.4V49.6H20.8zM25.6,48H27.2V49.6H25.6zM32,48H33.6V49.6H32zM33.6,48H35.2V49.6H33.6zM35.2,48H36.8V49.6H35.2zM36.8,48H38.4V49.6H36.8zM43.2,48H44.8V49.6H43.2zM44.8,48H46.4V49.6H44.8zM46.4,48H48V49.6H46.4zM48,48H49.6V49.6H48zM51.2,48H52.8V49.6H51.2zM6.4,49.6H8V51.2H6.4zM16,49.6H17.6V51.2H16zM20.8,49.6H22.4V51.2H20.8zM22.4,49.6H24V51.2H22.4zM24,49.6H25.6V51.2H24zM25.6,49.6H27.2V51.2H25.6zM27.2,49.6H28.8V51.2H27.2zM36.8,49.6H38.4V51.2H36.8zM38.4,49.6H40V51.2H38.4zM40,49.6H41.6V51.2H40zM43.2,49.6H44.8V51.2H43.2zM49.6,49.6H51.2V51.2H49.6zM6.4,51.2H8V52.8H6.4zM8,51.2H9.6V52.8H8zM9.6,51.2H11.2V52.8H9.6zM11.2,51.2H12.8V52.8H11.2zM12.8,51.2H14.4V52.8H12.8zM14.4,51.2H16V52.8H14.4zM16,51.2H17.6V52.8H16zM22.4,51.2H24V52.8H22.4zM32,51.2H33.6V52.8H32zM35.2,51.2H36.8V52.8H35.2zM36.8,51.2H38.4V52.8H36.8zM38.4,51.2H40V52.8H38.4zM40,51.2H41.6V52.8H40zM44.8,51.2H46.4V52.8H44.8zM49.6,51.2H51.2V52.8H49.6zM51.2,51.2H52.8V52.8H51.2z" id="qr-path" fill="#000000" fill-opacity="1" fill-rule="nonzero" stroke="none"/></svg>