<?xml version='1.0' encoding='UTF-8'?>
<svg width="110.4mm" height="110.4mm" version="1.1" viewBox="0 0 110.4 110.4" xmlns="http://www.w3.org/2000/svg"><path d="M6.4,6.4H8V8H6.4zM8,6.4H9.6V8H8zM9.6,6.4H11.2V8H9.6zM11.2,6.4H12.8V8H11.2zM12.8,6.4H14.4V8H12.8zM14.4,6.4H16V8H14.4zM16,6.4H17.6V8H16zM19.2,6.4H20.8V8H19.2zM20.8,6.4H22.4V8H20.8zM22.4,6.4H24V8H22.4zM25.6,6.4H27.2V8H25.6zM27.2,6.4H28.8V8H27.2zM28.8,6.4H30.4V8H28.8zM33.6,6.4H35.2V8H33.6zM36.8,6.4H38.4V8H36.8zM38.4,6.4H40V8H38.4zM41.6,6.4H43.2V8H41.6zM44.8,6.4H46.4V8H44.8zM54.4,6.4H56V8H54.4zM59.2,6.4H60.8V8H59.2zM60.8,6.4H62.4V8H60.8zM62.4,6.4H64V8H62.4zM65.6,6.4H67.2V8H65.6zM67.2,6.4H68.8V8H67.2zM68.8,6.4H70.4V8H68.8zM70.4,6.4H72V8H70.4zM72,6.4H73.6V8H72zM73.6,6.4H75.2V8H73.6zM78.4,6.4H80V8H78.4zM88,6.4H89.6V8H88zM89.6,6.4H91.2V8H89.6zM92.8,6.4H94.4V8H92.8zM94.4,6.4H96V8H94.4zM96,6.4H97.6V8H96zM97.6,6.4H99.2V8H97.6zM99.2,6.4H100.8V8H99.2zM100.8,6.4H102.4V8H100.8zM102.4,6.4H104V8H102.4zM6.4,8H8V9.6H6.4zM16,8H17.6V9.6H16zM19.2,8H20.8V9.6H19.2zM22.4,8H24V9.6H22.4zM24,8H25.6V9.6H24zM25.6,8H27.2V9.6H25.6zM27.2,8H28.8V9.6H27.2zM28.8,8H30.4V9.6H28.8zM30.4,8H32V9.6H30.4zM35.2,8H36.8V9.6H35.2zM36.8,8H38.4V9.6H36.8zM38.4,8H40V9.6H38.4zM41.6,8H43.2V9.6H41.6zM43.2,8H44.8V9.6H43.2zM49.6,8H51.2V9.6H49.6zM51.2,8H52.8V9.6H51.2zM52.8,8H54.4V9.6H52.8zM54.4,8H56V9.6H54.4zM57.6,8H59.2V9.6H57.6zM59.2,8H60.8V9.6H59.2zM62.4,8H64V9.6H62.4zM64,8H65.6V9.6H64zM67.2,8H68.8V9.6H67.2zM68.8,8H70.4V9.6H68.8zM70.4,8H72V9.6H70.4zM72,8H73.6V9.6H72zM73.6,8H75.2V9.6H73.6zM75.2,8H76.8V9.6H75.2zM78.4,8H80V9.6H78.4zM80,8H81.6V9.6H80zM84.8,8H86.4V9.6H84.8zM88,8H89.6V9.6H88zM89.6,8H91.2V9.6H89.6zM92.8,8H94.4V9.6H92.8zM102.4,8H104V9.6H102.4zM6.4,9.6H8V11.2H6.4zM9.6,9.6H11.2V11.2H9.6zM11.2,9.6H12.8V11.2H11.2zM12.8,9.6H14.4V11.2H12.8zM16,9.6H17.6V11.2H16zM19.2,9.6H20.8V11.2H19.2zM24,9.6H25.6V11.2H24zM28.8,9.6H30.4V11.2H28.8zM32,9.6H33.6V11.2H32zM33.6,9.6H35.2V11.2H33.6zM36.8,9.6H38.4V11.2H36.8zM43.2,9.6H44.8V11.2H43.2zM46.4,9.6H48V11.2H46.4zM48,9.6H49.6V11.2H48zM49.6,9.6H51.2V11.2H49.6zM59.2,9.6H60.8V11.2H59.2zM62.4,9.6H64V11.2H62.4zM67.2,9.6H68.8V11.2H67.2zM70.4,9.6H72V11.2H70.4zM72,9.6H73.6V11.2H72zM76.8,9.6H78.4V11.2H76.8zM80,9.6H81.6V11.2H80zM81.6,9.6H83.2V11.2H81.6zM83.2,9.6H84.8V11.2H83.2zM86.4,9.6H88V11.2H86.4zM88,9.6H89.6V11.2H88zM89.6,9.6H91.2V11.2H89.6zM92.8,9.6H94.4V11.2H92.8zM96,9.6H97.6V11.2H96zM97.6,9.6H99.2V11.2H97.6zM99.2,9.6H100.8V11.2H99.2zM102.4,9.6H104V11.2H102.4zM6.4,11.2H8V12.8H6.4zM9.6,11.2H11.2V12.8H9.6zM11.2,11.2H12.8V12.8H11.2zM12.8,11.2H14.4V12.8H12.8zM16,11.2H17.6V12.8H16zM20.8,11.2H22.4V12.8H20.8zM22.4,11.2H24V12.8H22.4zM27.2,11.2H28.8V12.8H27.2zM30.4,11.2H32V12.8H30.4zM32,11.2H33.6V12.8H32zM35.2,11.2H36.8V12.8H35.2zM36.8,11.2H38.4V12.8H36.8zM38.4,11.2H40V12.8H38.4zM40,11.2H41.6V12.8H40zM43.2,11.2H44.8V12.8H43.2zM46.4,11.2H48V12.8H46.4zM48,11.2H49.6V12.8H48zM49.6,11.2H51.2V12.8H49.6zM52.8,11.2H54.4V12.8H52.8zM54.4,11.2H56V12.8H54.4zM60.8,11.2H62.4V12.8H60.8zM68.8,11.2H70.4V12.8H68.8zM70.4,11.2H72V12.8H70.4zM75.2,11.2H76.8V12.8H75.2zM83.2,11.2H84.8V12.8H83.2zM84.8,11.2H86.4V12.8H84.8zM86.4,11.2H88V12.8H86.4zM89.6,11.2H91.2V12.8H89.6zM92.8,11.2H94.4V12.8H92.8zM96,11.2H97.6V12.8H96zM97.6,11.2H99.2V12.8H97.6zM99.2,11.2H100.8V12.8H99.2zM102.4,11.2H104V12.8H102.4zM6.4,12.8H8V14.4H6.4zM9.6,12.8H11.2V14.4H9.6zM11.2,12.8H12.8V14.4H11.2zM12.8,12.8H14.4V14.4H12.8zM16,12.8H17.6V14.4H16zM24,12.8H25.6V14.4H24zM25.6,12.8H27.2V14.4H25.6zM32,12.8H33.6V14.4H32zM33.6,12.8H35.2V14.4H33.6zM40,12.8H41.6V14.4H40zM41.6,12.8H43.2V14.4H41.6zM46.4,12.8H48V14.4H46.4zM49.6,12.8H51.2V14.4H49.6zM51.2,12.8H52.8V14.4H51.2zM52.8,12.8H54.4V14.4H52.8zM54.4,12.8H56V14.4H54.4zM56,12.8H57.6V14.4H56zM57.6,12.8H59.2V14.4H57.6zM62.4,12.8H64V14.4H62.4zM64,12.8H65.6V14.4H64zM70.4,12.8H72V14.4H70.4zM72,12.8H73.6V14.4H72zM73.6,12.8H75.2V14.4H73.6zM75.2,12.8H76.8V14.4H75.2zM78.4,12.8H80V14.4H78.4zM81.6,12.8H83.2V14.4H81.6zM83.2,12.8H84.8V14.4H83.2zM84.8,12.8H86.4V14.4H84.8zM86.4,12.8H88V14.4H86.4zM88,12.8H89.6V14.4H88zM92.8,12.8H94.4V14.4H92.8zM96,12.8H97.6V14.4H96zM97.6,12.8H99.2V14.4H97.6zM99.2,12.8H100.8V14.4H99.2zM102.4,12.8H104V14.4H102.4zM6.4,14.4H8V16H6.4zM16,14.4H17.6V16H16zM19.2,14.4H20.8V16H19.2zM24,14.4H25.6V16H24zM27.2,14.4H28.8V16H27.2zM28.8,14.4H30.4V16H28.8zM33.6,14.4H35.2V16H33.6zM38.4,14.4H40V16H38.4zM44.8,14.4H46.4V16H44.8zM46.4,14.4H48V16H46.4zM49.6,14.4H51.2V16H49.6zM51.2,14.4H52.8V16H51.2zM57.6,14.4H59.2V16H57.6zM62.4,14.4H64V16H62.4zM64,14.4H65.6V16H64zM70.4,14.4H72V16H70.4zM72,14.4H73.6V16H72zM76.8,14.4H78.4V16H76.8zM78.4,14.4H80V16H78.4zM80,14.4H81.6V16H80zM83.2,14.4H84.8V16H83.2zM84.8,14.4H86.4V16H84.8zM86.4,14.4H88V16H86.4zM92.8,14.4H94.4V16H92.8zM102.4,14.4H104V16H102.4zM6.4,16H8V17.6H6.4zM8,16H9.6V17.6H8zM9.6,16H11.2V17.6H9.6zM11.2,16H12.8V17.6H11.2zM12.8,16H14.4V17.6H12.8zM14.4,16H16V17.6H14.4zM16,16H17.6V17.6H16zM19.2,16H20.8V17.6H19.2zM22.4,16H24V17.6H22.4zM25.6,16H27.2V17.6H25.6zM28.8,16H30.4V17.6H28.8zM32,16H33.6V17.6H32zM35.2,16H36.8V17.6H35.2zM38.4,16H40V17.6H38.4zM41.6,16H43.2V17.6H41.6zM44.8,16H46.4V17.6H44.8zM48,16H49.6V17.6H48zM51.2,16H52.8V17.6H51.2zM54.4,16H56V17.6H54.4zM57.6,16H59.2V17.6H57.6zM60.8,16H62.4V17.6H60.8zM64,16H65.6V17.6H64zM67.2,16H68.8V17.6H67.2zM70.4,16H72V17.6H70.4zM73.6,16H75.2V17.6H73.6zM76.8,16H78.4V17.6H76.8zM80,16H81.6V17.6H80zM83.2,16H84.8V17.6H83.2zM86.4,16H88V17.6H86.4zM89.6,16H91.2V17.6H89.6zM92.8,16H94.4V17.6H92.8zM94.4,16H96V17.6H94.4zM96,16H97.6V17.6H96zM97.6,16H99.2V17.6H97.6zM99.2,16H100.8V17.6H99.2zM100.8,16H102.4V17.6H100.8zM102.4,16H104V17.6H102.4zM19.2,17.6H20.8V19.2H19.2zM20.8,17.6H22.4V19.2H20.8zM22.4,17.6H24V19.2H22.4zM24,17.6H25.6V19.2H24zM25.6,17.6H27.2V19.2H25.6zM27.2,17.6H28.8V19.2H27.2zM32,17.6H33.6V19.2H32zM38.4,17.6H40V19.2H38.4zM40,17.6H41.6V19.2H40zM41.6,17.6H43.2V19.2H41.6zM43.2,17.6H44.8V19.2H43.2zM49.6,17.6H51.2V19.2H49.6zM51.2,17.6H52.8V19.2H51.2zM57.6,17.6H59.2V19.2H57.6zM59.2,17.6H60.8V19.2H59.2zM60.8,17.6H62.4V19.2H60.8zM62.4,17.6H64V19.2H62.4zM64,17.6H65.6V19.2H64zM67.2,17.6H68.8V19.2H67.2zM72,17.6H73.6V19.2H72zM75.2,17.6H76.8V19.2H75.2zM78.4,17.6H80V19.2H78.4zM80,17.6H81.6V19.2H80zM84.8,17.6H86.4V19.2H84.8zM88,17.6H89.6V19.2H88zM89.6,17.6H91.2V19.2H89.6zM9.6,19.2H11.2V20.8H9.6zM11.2,19.2H12.8V20.8H11.2zM12.8,19.2H14.4V20.8H12.8zM16,19.2H17.6V20.8H16zM19.2,19.2H20.8V20.8H19.2zM20.8,19.2H22.4V20.8H20.8zM27.2,19.2H28.8V20.8H27.2zM28.8,19.2H30.4V20.8H28.8zM33.6,19.2H35.2V20.8H33.6zM38.4,19.2H40V20.8H38.4zM41.6,19.2H43.2V20.8H41.6zM43.2,19.2H44.8V20.8H43.2zM44.8,19.2H46.4V20.8H44.8zM51.2,19.2H52.8V20.8H51.2zM52.8,19.2H54.4V20.8H52.8zM54.4,19.2H56V20.8H54.4zM56,19.2H57.6V20.8H56zM57.6,19.2H59.2V20.8H57.6zM59.2,19.2H60.8V20.8H59.2zM60.8,19.2H62.4V20.8H60.8zM62.4,19.2H64V20.8H62.4zM67.2,19.2H68.8V20.8H67.2zM70.4,19.2H72V20.8H70.4zM75.2,19.2H76.8V20.8H75.2zM81.6,19.2H83.2V20.8H81.6zM83.2,19.2H84.8V20.8H83.2zM86.4,19.2H88V20.8H86.4zM88,19.2H89.6V20.8H88zM89.6,19.2H91.2V20.8H89.6zM91.2,19.2H92.8V20.8H91.2zM92.8,19.2H94.4V20.8H92.8zM94.4,19.2H96V20.8H94.4zM99.2,19.2H100.8V20.8H99.2zM100.8,19.2H102.4V20.8H100.8zM102.4,19.2H104V20.8H102.4zM11.2,20.8H12.8V22.4H11.2zM12.8,20.8H14.4V22.4H12.8zM17.6,20.8H19.2V22.4H17.6zM25.6,20.8H27.2V22.4H25.6zM30.4,20.8H32V22.4H30.4zM32,20.8H33.6V22.4H32zM35.2,20.8H36.8V22.4H35.2zM36.8,20.8H38.4V22.4H36.8zM40,20.8H41.6V22.4H40zM59.2,20.8H60.8V22.4H59.2zM60.8,20.8H62.4V22.4H60.8zM62.4,20.8H64V22.4H62.4zM67.2,20.8H68.8V22.4H67.2zM70.4,20.8H72V22.4H70.4zM72,20.8H73.6V22.4H72zM76.8,20.8H78.4V22.4H76.8zM78.4,20.8H80V22.4H78.4zM81.6,20.8H83.2V22.4H81.6zM83.2,20.8H84.8V22.4H83.2zM84.8,20.8H86.4V22.4H84.8zM91.2,20.8H92.8V22.4H91.2zM92.8,20.8H94.4V22.4H92.8zM94.4,20.8H96V22.4H94.4zM96,20.8H97.6V22.4H96zM8,22.4H9.6V24H8zM9.6,22.4H11.2V24H9.6zM12.8,22.4H14.4V24H12.8zM14.4,22.4H16V24H14.4zM16,22.4H17.6V24H16zM17.6,22.4H19.2V24H17.6zM22.4,22.4H24V24H22.4zM25.6,22.4H27.2V24H25.6zM27.2,22.4H28.8V24H27.2zM28.8,22.4H30.4V24H28.8zM33.6,22.4H35.2V24H33.6zM36.8,22.4H38.4V24H36.8zM38.4,22.4H40V24H38.4zM41.6,22.4H43.2V24H41.6zM48,22.4H49.6V24H48zM49.6,22.4H51.2V24H49.6zM56,22.4H57.6V24H56zM59.2,22.4H60.8V24H59.2zM67.2,22.4H68.8V24H67.2zM70.4,22.4H72V24H70.4zM73.6,22.4H75.2V24H73.6zM75.2,22.4H76.8V24H75.2zM76.8,22.4H78.4V24H76.8zM78.4,22.4H80V24H78.4zM80,22.4H81.6V24H80zM83.2,22.4H84.8V24H83.2zM84.8,22.4H86.4V24H84.8zM86.4,22.4H88V24H86.4zM88,22.4H89.6V24H88zM89.6,22.4H91.2V24H89.6zM99.2,22.4H100.8V24H99.2zM100.8,22.4H102.4V24H100.8zM102.4,22.4H104V24H102.4zM12.8,24H14.4V25.6H12.8zM14.4,24H16V25.6H14.4zM19.2,24H20.8V25.6H19.2zM22.4,24H24V25.6H22.4zM30.4,24H32V25.6H30.4zM33.6,24H35.2V25.6H33.6zM35.2,24H36.8V25.6H35.2zM36.8,24H38.4V25.6H36.8zM41.6,24H43.2V25.6H41.6zM43.2,24H44.8V25.6H43.2zM46.4,24H48V25.6H46.4zM52.8,24H54.4V25.6H52.8zM54.4,24H56V25.6H54.4zM56,24H57.6V25.6H56zM57.6,24H59.2V25.6H57.6zM60.8,24H62.4V25.6H60.8zM62.4,24H64V25.6H62.4zM64,24H65.6V25.6H64zM65.6,24H67.2V25.6H65.6zM67.2,24H68.8V25.6H67.2zM72,24H73.6V25.6H72zM73.6,24H75.2V25.6H73.6zM76.8,24H78.4V25.6H76.8zM78.4,24H80V25.6H78.4zM81.6,24H83.2V25.6H81.6zM84.8,24H86.4V25.6H84.8zM86.4,24H88V25.6H86.4zM89.6,24H91.2V25.6H89.6zM91.2,24H92.8V25.6H91.2zM96,24H97.6V25.6H96zM102.4,24H104V25.6H102.4zM8,25.6H9.6V27.2H8zM11.2,25.6H12.8V27.2H11.2zM16,25.6H17.6V27.2H16zM19.2,25.6H20.8V27.2H19.2zM20.8,25.6H22.4V27.2H20.8zM24,25.6H25.6V27.2H24zM27.2,25.6H28.8V27.2H27.2zM28.8,25.6H30.4V27.2H28.8zM30.4,25.6H32V27.2H30.4zM33.6,25.6H35.2V27.2H33.6zM35.2,25.6H36.8V27.2H35.2zM40,25.6H41.6V27.2H40zM43.2,25.6H44.8V27.2H43.2zM48,25.6H49.6V27.2H48zM49.6,25.6H51.2V27.2H49.6zM56,25.6H57.6V27.2H56zM60.8,25.6H62.4V27.2H60.8zM62.4,25.6H64V27.2H62.4zM65.6,25.6H67.2V27.2H65.6zM68.8,25.6H70.4V27.2H68.8zM70.4,25.6H72V27.2H70.4zM72,25.6H73.6V27.2H72zM75.2,25.6H76.8V27.2H75.2zM80,25.6H81.6V27.2H80zM81.6,25.6H83.2V27.2H81.6zM83.2,25.6H84.8V27.2H83.2zM84.8,25.6H86.4V27.2H84.8zM86.4,25.6H88V27.2H86.4zM88,25.6H89.6V27.2H88zM89.6,25.6H91.2V27.2H89.6zM94.4,25.6H96V27.2H94.4zM97.6,25.6H99.2V27.2H97.6zM99.2,25.6H100.8V27.2H99.2zM100.8,25.6H102.4V27.2H100.8zM102.4,25.6H104V27.2H102.4zM9.6,27.2H11.2V28.8H9.6zM12.8,27.2H14.4V28.8H12.8zM19.2,27.2H20.8V28.8H19.2zM20.8,27.2H22.4V28.8H20.8zM30.4,27.2H32V28.8H30.4zM33.6,27.2H35.2V28.8H33.6zM35.2,27.2H36.8V28.8H35.2zM36.8,27.2H38.4V28.8H36.8zM40,27.2H41.6V28.8H40zM48,27.2H49.6V28.8H48zM49.6,27.2H51.2V28.8H49.6zM52.8,27.2H54.4V28.8H52.8zM60.8,27.2H62.4V28.8H60.8zM62.4,27.2H64V28.8H62.4zM64,27.2H65.6V28.8H64zM65.6,27.2H67.2V28.8H65.6zM68.8,27.2H70.4V28.8H68.8zM70.4,27.2H72V28.8H70.4zM72,27.2H73.6V28.8H72zM73.6,27.2H75.2V28.8H73.6zM75.2,27.2H76.8V28.8H75.2zM81.6,27.2H83.2V28.8H81.6zM84.8,27.2H86.4V28.8H84.8zM91.2,27.2H92.8V28.8H91.2zM92.8,27.2H94.4V28.8H92.8zM97.6,27.2H99.2V28.8H97.6zM100.8,27.2H102.4V28.8H100.8zM6.4,28.8H8V30.4H6.4zM9.6,28.8H11.2V30.4H9.6zM11.2,28.8H12.8V30.4H11.2zM14.4,28.8H16V30.4H14.4zM16,28.8H17.6V30.4H16zM19.2,28.8H20.8V30.4H19.2zM22.4,28.8H24V30.4H22.4zM24,28.8H25.6V30.4H24zM27.2,28.8H28.8V30.4H27.2zM33.6,28.8H35.2V30.4H33.6zM35.2,28.8H36.8V30.4H35.2zM38.4,28.8H40V30.4H38.4zM43.2,28.8H44.8V30.4H43.2zM46.4,28.8H48V30.4H46.4zM56,28.8H57.6V30.4H56zM57.6,28.8H59.2V30.4H57.6zM59.2,28.8H60.8V30.4H59.2zM62.4,28.8H64V30.4H62.4zM64,28.8H65.6V30.4H64zM65.6,28.8H67.2V30.4H65.6zM80,28.8H81.6V30.4H80zM81.6,28.8H83.2V30.4H81.6zM94.4,28.8H96V30.4H94.4zM96,28.8H97.6V30.4H96zM100.8,28.8H102.4V30.4H100.8zM102.4,28.8H104V30.4H102.4zM6.4,30.4H8V32H6.4zM14.4,30.4H16V32H14.4zM22.4,30.4H24V32H22.4zM27.2,30.4H28.8V32H27.2zM33.6,30.4H35.2V32H33.6zM35.2,30.4H36.8V32H35.2zM36.8,30.4H38.4V32H36.8zM38.4,30.4H40V32H38.4zM40,30.4H41.6V32H40zM41.6,30.4H43.2V32H41.6zM44.8,30.4H46.4V32H44.8zM48,30.4H49.6V32H48zM49.6,30.4H51.2V32H49.6zM52.8,30.4H54.4V32H52.8zM54.4,30.4H56V32H54.4zM64,30.4H65.6V32H64zM68.8,30.4H70.4V32H68.8zM72,30.4H73.6V32H72zM76.8,30.4H78.4V32H76.8zM78.4,30.4H80V32H78.4zM84.8,30.4H86.4V32H84.8zM92.8,30.4H94.4V32H92.8zM96,30.4H97.6V32H96zM102.4,30.4H104V32H102.4zM6.4,32H8V33.6H6.4zM9.6,32H11.2V33.6H9.6zM12.8,32H14.4V33.6H12.8zM16,32H17.6V33.6H16zM17.6,32H19.2V33.6H17.6zM20.8,32H22.4V33.6H20.8zM22.4,32H24V33.6H22.4zM25.6,32H27.2V33.6H25.6zM27.2,32H28.8V33.6H27.2zM30.4,32H32V33.6H30.4zM32,32H33.6V33.6H32zM35.2,32H36.8V33.6H35.2zM36.8,32H38.4V33.6H36.8zM41.6,32H43.2V33.6H41.6zM43.2,32H44.8V33.6H43.2zM44.8,32H46.4V33.6H44.8zM46.4,32H48V33.6H46.4zM48,32H49.6V33.6H48zM51.2,32H52.8V33.6H51.2zM52.8,32H54.4V33.6H52.8zM57.6,32H59.2V33.6H57.6zM59.2,32H60.8V33.6H59.2zM64,32H65.6V33.6H64zM68.8,32H70.4V33.6H68.8zM70.4,32H72V33.6H70.4zM72,32H73.6V33.6H72zM78.4,32H80V33.6H78.4zM80,32H81.6V33.6H80zM81.6,32H83.2V33.6H81.6zM83.2,32H84.8V33.6H83.2zM88,32H89.6V33.6H88zM89.6,32H91.2V33.6H89.6zM94.4,32H96V33.6H94.4zM97.6,32H99.2V33.6H97.6zM99.2,32H100.8V33.6H99.2zM102.4,32H104V33.6H102.4zM6.4,33.6H8V35.2H6.4zM11.2,33.6H12.8V35.2H11.2zM17.6,33.6H19.2V35.2H17.6zM22.4,33.6H24V35.2H22.4zM24,33.6H25.6V35.2H24zM25.6,33.6H27.2V35.2H25.6zM28.8,33.6H30.4V35.2H28.8zM30.4,33.6H32V35.2H30.4zM33.6,33.6H35.2V35.2H33.6zM35.2,33.6H36.8V35.2H35.2zM36.8,33.6H38.4V35.2H36.8zM38.4,33.6H40V35.2H38.4zM40,33.6H41.6V35.2H40zM41.6,33.6H43.2V35.2H41.6zM44.8,33.6H46.4V35.2H44.8zM54.4,33.6H56V35.2H54.4zM57.6,33.6H59.2V35.2H57.6zM59.2,33.6H60.8V35.2H59.2zM64,33.6H65.6V35.2H64zM65.6,33.6H67.2V35.2H65.6zM72,33.6H73.6V35.2H72zM73.6,33.6H75.2V35.2H73.6zM81.6,33.6H83.2V35.2H81.6zM84.8,33.6H86.4V35.2H84.8zM91.2,33.6H92.8V35.2H91.2zM92.8,33.6H94.4V35.2H92.8zM94.4,33.6H96V35.2H94.4zM99.2,33.6H100.8V35.2H99.2zM100.8,33.6H102.4V35.2H100.8zM6.4,35.2H8V36.8H6.4zM8,35.2H9.6V36.8H8zM9.6,35.2H11.2V36.8H9.6zM12.8,35.2H14.4V36.8H12.8zM16,35.2H17.6V36.8H16zM17.6,35.2H19.2V36.8H17.6zM20.8,35.2H22.4V36.8H20.8zM24,35.2H25.6V36.8H24zM27.2,35.2H28.8V36.8H27.2zM28.8,35.2H30.4V36.8H28.8zM32,35.2H33.6V36.8H32zM33.6,35.2H35.2V36.8H33.6zM35.2,35.2H36.8V36.8H35.2zM36.8,35.2H38.4V36.8H36.8zM38.4,35.2H40V36.8H38.4zM40,35.2H41.6V36.8H40zM41.6,35.2H43.2V36.8H41.6zM43.2,35.2H44.8V36.8H43.2zM48,35.2H49.6V36.8H48zM49.6,35.2H51.2V36.8H49.6zM51.2,35.2H52.8V36.8H51.2zM52.8,35.2H54.4V36.8H52.8zM56,35.2H57.6V36.8H56zM60.8,35.2H62.4V36.8H60.8zM65.6,35.2H67.2V36.8H65.6zM75.2,35.2H76.8V36.8H75.2zM78.4,35.2H80V36.8H78.4zM80,35.2H81.6V36.8H80zM81.6,35.2H83.2V36.8H81.6zM86.4,35.2H88V36.8H86.4zM88,35.2H89.6V36.8H88zM89.6,35.2H91.2V36.8H89.6zM94.4,35.2H96V36.8H94.4zM97.6,35.2H99.2V36.8H97.6zM99.2,35.2H100.8V36.8H99.2zM100.8,35.2H102.4V36.8H100.8zM102.4,35.2H104V36.8H102.4zM6.4,36.8H8V38.4H6.4zM9.6,36.8H11.2V38.4H9.6zM11.2,36.8H12.8V38.4H11.2zM19.2,36.8H20.8V38.4H19.2zM20.8,36.8H22.4V38.4H20.8zM25.6,36.8H27.2V38.4H25.6zM28.8,36.8H30.4V38.4H28.8zM30.4,36.8H32V38.4H30.4zM35.2,36.8H36.8V38.4H35.2zM36.8,36.8H38.4V38.4H36.8zM38.4,36.8H40V38.4H38.4zM44.8,36.8H46.4V38.4H44.8zM49.6,36.8H51.2V38.4H49.6zM51.2,36.8H52.8V38.4H51.2zM56,36.8H57.6V38.4H56zM60.8,36.8H62.4V38.4H60.8zM65.6,36.8H67.2V38.4H65.6zM67.2,36.8H68.8V38.4H67.2zM68.8,36.8H70.4V38.4H68.8zM72,36.8H73.6V38.4H72zM73.6,36.8H75.2V38.4H73.6zM76.8,36.8H78.4V38.4H76.8zM78.4,36.8H80V38.4H78.4zM80,36.8H81.6V38.4H80zM84.8,36.8H86.4V38.4H84.8zM86.4,36.8H88V38.4H86.4zM89.6,36.8H91.2V38.4H89.6zM94.4,36.8H96V38.4H94.4zM96,36.8H97.6V38.4H96zM102.4,36.8H104V38.4H102.4zM9.6,38.4H11.2V40H9.6zM14.4,38.4H16V40H14.4zM16,38.4H17.6V40H16zM24,38.4H25.6V40H24zM25.6,38.4H27.2V40H25.6zM32,38.4H33.6V40H32zM33.6,38.4H35.2V40H33.6zM38.4,38.4H40V40H38.4zM40,38.4H41.6V40H40zM41.6,38.4H43.2V40H41.6zM43.2,38.4H44.8V40H43.2zM44.8,38.4H46.4V40H44.8zM48,38.4H49.6V40H48zM51.2,38.4H52.8V40H51.2zM52.8,38.4H54.4V40H52.8zM54.4,38.4H56V40H54.4zM57.6,38.4H59.2V40H57.6zM59.2,38.4H60.8V40H59.2zM62.4,38.4H64V40H62.4zM64,38.4H65.6V40H64zM65.6,38.4H67.2V40H65.6zM67.2,38.4H68.8V40H67.2zM70.4,38.4H72V40H70.4zM72,38.4H73.6V40H72zM73.6,38.4H75.2V40H73.6zM75.2,38.4H76.8V40H75.2zM78.4,38.4H80V40H78.4zM81.6,38.4H83.2V40H81.6zM83.2,38.4H84.8V40H83.2zM84.8,38.4H86.4V40H84.8zM86.4,38.4H88V40H86.4zM89.6,38.4H91.2V40H89.6zM91.2,38.4H92.8V40H91.2zM92.8,38.4H94.4V40H92.8zM94.4,38.4H96V40H94.4zM97.6,38.4H99.2V40H97.6zM99.2,38.4H100.8V40H99.2zM100.8,38.4H102.4V40H100.8zM102.4,38.4H104V40H102.4zM9.6,40H11.2V41.6H9.6zM11.2,40H12.8V41.6H11.2zM12.8,40H14.4V41.6H12.8zM14.4,40H16V41.6H14.4zM17.6,40H19.2V41.6H17.6zM19.2,40H20.8V41.6H19.2zM27.2,40H28.8V41.6H27.2zM28.8,40H30.4V41.6H28.8zM32,40H33.6V41.6H32zM33.6,40H35.2V41.6H33.6zM36.8,40H38.4V41.6H36.8zM38.4,40H40V41.6H38.4zM40,40H41.6V41.6H40zM41.6,40H43.2V41.6H41.6zM44.8,40H46.4V41.6H44.8zM46.4,40H48V41.6H46.4zM48,40H49.6V41.6H48zM54.4,40H56V41.6H54.4zM56,40H57.6V41.6H56zM59.2,40H60.8V41.6H59.2zM60.8,40H62.4V41.6H60.8zM65.6,40H67.2V41.6H65.6zM68.8,40H70.4V41.6H68.8zM72,40H73.6V41.6H72zM73.6,40H75.2V41.6H73.6zM75.2,40H76.8V41.6H75.2zM81.6,40H83.2V41.6H81.6zM83.2,40H84.8V41.6H83.2zM84.8,40H86.4V41.6H84.8zM91.2,40H92.8V41.6H91.2zM92.8,40H94.4V41.6H92.8zM11.2,41.6H12.8V43.2H11.2zM12.8,41.6H14.4V43.2H12.8zM16,41.6H17.6V43.2H16zM17.6,41.6H19.2V43.2H17.6zM22.4,41.6H24V43.2H22.4zM24,41.6H25.6V43.2H24zM27.2,41.6H28.8V43.2H27.2zM28.8,41.6H30.4V43.2H28.8zM30.4,41.6H32V43.2H30.4zM32,41.6H33.6V43.2H32zM33.6,41.6H35.2V43.2H33.6zM41.6,41.6H43.2V43.2H41.6zM43.2,41.6H44.8V43.2H43.2zM46.4,41.6H48V43.2H46.4zM49.6,41.6H51.2V43.2H49.6zM52.8,41.6H54.4V43.2H52.8zM65.6,41.6H67.2V43.2H65.6zM68.8,41.6H70.4V43.2H68.8zM70.4,41.6H72V43.2H70.4zM76.8,41.6H78.4V43.2H76.8zM78.4,41.6H80V43.2H78.4zM80,41.6H81.6V43.2H80zM81.6,41.6H83.2V43.2H81.6zM83.2,41.6H84.8V43.2H83.2zM84.8,41.6H86.4V43.2H84.8zM88,41.6H89.6V43.2H88zM96,41.6H97.6V43.2H96zM99.2,41.6H100.8V43.2H99.2zM100.8,41.6H102.4V43.2H100.8zM102.4,41.6H104V43.2H102.4zM8,43.2H9.6V44.8H8zM9.6,43.2H11.2V44.8H9.6zM11.2,43.2H12.8V44.8H11.2zM12.8,43.2H14.4V44.8H12.8zM14.4,43.2H16V44.8H14.4zM19.2,43.2H20.8V44.8H19.2zM22.4,43.2H24V44.8H22.4zM32,43.2H33.6V44.8H32zM35.2,43.2H36.8V44.8H35.2zM40,43.2H41.6V44.8H40zM41.6,43.2H43.2V44.8H41.6zM43.2,43.2H44.8V44.8H43.2zM48,43.2H49.6V44.8H48zM49.6,43.2H51.2V44.8H49.6zM51.2,43.2H52.8V44.8H51.2zM52.8,43.2H54.4V44.8H52.8zM56,43.2H57.6V44.8H56zM59.2,43.2H60.8V44.8H59.2zM64,43.2H65.6V44.8H64zM65.6,43.2H67.2V44.8H65.6zM67.2,43.2H68.8V44.8H67.2zM72,43.2H73.6V44.8H72zM75.2,43.2H76.8V44.8H75.2zM76.8,43.2H78.4V44.8H76.8zM80,43.2H81.6V44.8H80zM84.8,43.2H86.4V44.8H84.8zM86.4,43.2H88V44.8H86.4zM91.2,43.2H92.8V44.8H91.2zM92.8,43.2H94.4V44.8H92.8zM97.6,43.2H99.2V44.8H97.6zM8,44.8H9.6V46.4H8zM12.8,44.8H14.4V46.4H12.8zM14.4,44.8H16V46.4H14.4zM16,44.8H17.6V46.4H16zM19.2,44.8H20.8V46.4H19.2zM20.8,44.8H22.4V46.4H20.8zM27.2,44.8H28.8V46.4H27.2zM28.8,44.8H30.4V46.4H28.8zM33.6,44.8H35.2V46.4H33.6zM35.2,44.8H36.8V46.4H35.2zM36.8,44.8H38.4V46.4H36.8zM40,44.8H41.6V46.4H40zM44.8,44.8H46.4V46.4H44.8zM52.8,44.8H54.4V46.4H52.8zM54.4,44.8H56V46.4H54.4zM56,44.8H57.6V46.4H56zM62.4,44.8H64V46.4H62.4zM68.8,44.8H70.4V46.4H68.8zM72,44.8H73.6V46.4H72zM75.2,44.8H76.8V46.4H75.2zM81.6,44.8H83.2V46.4H81.6zM83.2,44.8H84.8V46.4H83.2zM84.8,44.8H86.4V46.4H84.8zM86.4,44.8H88V46.4H86.4zM88,44.8H89.6V46.4H88zM91.2,44.8H92.8V46.4H91.2zM92.8,44.8H94.4V46.4H92.8zM94.4,44.8H96V46.4H94.4zM96,44.8H97.6V46.4H96zM97.6,44.8H99.2V46.4H97.6zM99.2,44.8H100.8V46.4H99.2zM100.8,44.8H102.4V46.4H100.8zM12.8,46.4H14.4V48H12.8zM14.4,46.4H16V48H14.4zM19.2,46.4H20.8V48H19.2zM20.8,46.4H22.4V48H20.8zM27.2,46.4H28.8V48H27.2zM30.4,46.4H32V48H30.4zM33.6,46.4H35.2V48H33.6zM36.8,46.4H38.4V48H36.8zM41.6,46.4H43.2V48H41.6zM43.2,46.4H44.8V48H43.2zM44.8,46.4H46.4V48H44.8zM48,46.4H49.6V48H48zM52.8,46.4H54.4V48H52.8zM57.6,46.4H59.2V48H57.6zM60.8,46.4H62.4V48H60.8zM64,46.4H65.6V48H64zM67.2,46.4H68.8V48H67.2zM72,46.4H73.6V48H72zM73.6,46.4H75.2V48H73.6zM81.6,46.4H83.2V48H81.6zM84.8,46.4H86.4V48H84.8zM89.6,46.4H91.2V48H89.6zM91.2,46.4H92.8V48H91.2zM92.8,46.4H94.4V48H92.8zM96,46.4H97.6V48H96zM99.2,46.4H100.8V48H99.2zM11.2,48H12.8V49.6H11.2zM14.4,48H16V49.6H14.4zM16,48H17.6V49.6H16zM17.6,48H19.2V49.6H17.6zM19.2,48H20.8V49.6H19.2zM20.8,48H22.4V49.6H20.8zM25.6,48H27.2V49.6H25.6zM30.4,48H32V49.6H30.4zM32,48H33.6V49.6H32zM35.2,48H36.8V49.6H35.2zM41.6,48H43.2V49.6H41.6zM44.8,48H46.4V49.6H44.8zM46.4,48H48V49.6H46.4zM48,48H49.6V49.6H48zM51.2,48H52.8V49.6H51.2zM52.8,48H54.4V49.6H52.8zM54.4,48H56V49.6H54.4zM56,48H57.6V49.6H56zM60.8,48H62.4V49.6H60.8zM62.4,48H64V49.6H62.4zM65.6,48H67.2V49.6H65.6zM76.8,48H78.4V49.6H76.8zM78.4,48H80V49.6H78.4zM80,48H81.6V49.6H80zM81.6,48H83.2V49.6H81.6zM84.8,48H86.4V49.6H84.8zM86.4,48H88V49.6H86.4zM88,48H89.6V49.6H88zM89.6,48H91.2V49.6H89.6zM94.4,48H96V49.6H94.4zM96,48H97.6V49.6H96zM100.8,48H102.4V49.6H100.8zM102.4,48H104V49.6H102.4zM8,49.6H9.6V51.2H8zM12.8,49.6H14.4V51.2H12.8zM19.2,49.6H20.8V51.2H19.2zM20.8,49.6H22.4V51.2H20.8zM22.4,49.6H24V51.2H22.4zM24,49.6H25.6V51.2H24zM25.6,49.6H27.2V51.2H25.6zM28.8,49.6H30.4V51.2H28.8zM32,49.6H33.6V51.2H32zM36.8,49.6H38.4V51.2H36.8zM41.6,49.6H43.2V51.2H41.6zM43.2,49.6H44.8V51.2H43.2zM46.4,49.6H48V51.2H46.4zM49.6,49.6H51.2V51.2H49.6zM52.8,49.6H54.4V51.2H52.8zM54.4,49.6H56V51.2H54.4zM64,49.6H65.6V51.2H64zM67.2,49.6H68.8V51.2H67.2zM72,49.6H73.6V51.2H72zM76.8,49.6H78.4V51.2H76.8zM80,49.6H81.6V51.2H80zM81.6,49.6H83.2V51.2H81.6zM89.6,49.6H91.2V51.2H89.6zM92.8,49.6H94.4V51.2H92.8zM96,49.6H97.6V51.2H96zM100.8,49.6H102.4V51.2H100.8zM102.4,49.6H104V51.2H102.4zM6.4,51.2H8V52.8H6.4zM8,51.2H9.6V52.8H8zM9.6,51.2H11.2V52.8H9.6zM11.2,51.2H12.8V52.8H11.2zM12.8,51.2H14.4V52.8H12.8zM14.4,51.2H16V52.8H14.4zM16,51.2H17.6V52.8H16zM17.6,51.2H19.2V52.8H17.6zM19.2,51.2H20.8V52.8H19.2zM24,51.2H25.6V52.8H24zM33.6,51.2H35.2V52.8H33.6zM35.2,51.2H36.8V52.8H35.2zM36.8,51.2H38.4V52.8H36.8zM38.4,51.2H40V52.8H38.4zM40,51.2H41.6V52.8H40zM41.6,51.2H43.2V52.8H41.6zM43.2,51.2H44.8V52.8H43.2zM44.8,51.2H46.4V52.8H44.8zM46.4,51.2H48V52.8H46.4zM49.6,51.2H51.2V52.8H49.6zM51.2,51.2H52.8V52.8H51.2zM52.8,51.2H54.4V52.8H52.8zM54.4,51.2H56V52.8H54.4zM56,51.2H57.6V52.8H56zM57.6,51.2H59.2V52.8H57.6zM59.2,51.2H60.8V52.8H59.2zM60.8,51.2H62.4V52.8H60.8zM68.8,51.2H70.4V52.8H68.8zM70.4,51.2H72V52.8H70.4zM72,51.2H73.6V52.8H72zM75.2,51.2H76.8V52.8H75.2zM78.4,51.2H80V52.8H78.4zM80,51.2H81.6V52.8H80zM81.6,51.2H83.2V52.8H81.6zM83.2,51.2H84.8V52.8H83.2zM84.8,51.2H86.4V52.8H84.8zM89.6,51.2H91.2V52.8H89.6zM91.2,51.2H92.8V52.8H91.2zM92.8,51.2H94.4V52.8H92.8zM94.4,51.2H96V52.8H94.4zM96,51.2H97.6V52.8H96zM97.6,51.2H99.2V52.8H97.6zM99.2,51.2H100.8V52.8H99.2zM102.4,51.2H104V52.8H102.4zM6.4,52.8H8V54.4H6.4zM11.2,52.8H12.8V54.4H11.2zM12.8,52.8H14.4V54.4H12.8zM19.2,52.8H20.8V54.4H19.2zM24,52.8H25.6V54.4H24zM28.8,52.8H30.4V54.4H28.8zM33.6,52.8H35.2V54.4H33.6zM35.2,52.8H36.8V54.4H35.2zM38.4,52.8H40V54.4H38.4zM44.8,52.8H46.4V54.4H44.8zM48,52.8H49.6V54.4H48zM49.6,52.8H51.2V54.4H49.6zM51.2,52.8H52.8V54.4H51.2zM57.6,52.8H59.2V54.4H57.6zM60.8,52.8H62.4V54.4H60.8zM62.4,52.8H64V54.4H62.4zM67.2,52.8H68.8V54.4H67.2zM70.4,52.8H72V54.4H70.4zM72,52.8H73.6V54.4H72zM73.6,52.8H75.2V54.4H73.6zM81.6,52.8H83.2V54.4H81.6zM88,52.8H89.6V54.4H88zM89.6,52.8H91.2V54.4H89.6zM96,52.8H97.6V54.4H96zM99.2,52.8H100.8V54.4H99.2zM6.4,54.4H8V56H6.4zM8,54.4H9.6V56H8zM9.6,54.4H11.2V56H9.6zM11.2,54.4H12.8V56H11.2zM12.8,54.4H14.4V56H12.8zM16,54.4H17.6V56H16zM19.2,54.4H20.8V56H19.2zM35.2,54.4H36.8V56H35.2zM38.4,54.4H40V56H38.4zM40,54.4H41.6V56H40zM41.6,54.4H43.2V56H41.6zM43.2,54.4H44.8V56H43.2zM48,54.4H49.6V56H48zM49.6,54.4H51.2V56H49.6zM51.2,54.4H52.8V56H51.2zM54.4,54.4H56V56H54.4zM57.6,54.4H59.2V56H57.6zM62.4,54.4H64V56H62.4zM65.6,54.4H67.2V56H65.6zM72,54.4H73.6V56H72zM75.2,54.4H76.8V56H75.2zM76.8,54.4H78.4V56H76.8zM81.6,54.4H83.2V56H81.6zM84.8,54.4H86.4V56H84.8zM89.6,54.4H91.2V56H89.6zM92.8,54.4H94.4V56H92.8zM96,54.4H97.6V56H96zM97.6,54.4H99.2V56H97.6zM99.2,54.4H100.8V56H99.2zM100.8,54.4H102.4V56H100.8zM102.4,54.4H104V56H102.4zM8,56H9.6V57.6H8zM9.6,56H11.2V57.6H9.6zM12.8,56H14.4V57.6H12.8zM19.2,56H20.8V57.6H19.2zM20.8,56H22.4V57.6H20.8zM22.4,56H24V57.6H22.4zM24,56H25.6V57.6H24zM25.6,56H27.2V57.6H25.6zM27.2,56H28.8V57.6H27.2zM36.8,56H38.4V57.6H36.8zM38.4,56H40V57.6H38.4zM46.4,56H48V57.6H46.4zM48,56H49.6V57.6H48zM51.2,56H52.8V57.6H51.2zM57.6,56H59.2V57.6H57.6zM62.4,56H64V57.6H62.4zM64,56H65.6V57.6H64zM65.6,56H67.2V57.6H65.6zM68.8,56H70.4V57.6H68.8zM70.4,56H72V57.6H70.4zM72,56H73.6V57.6H72zM73.6,56H75.2V57.6H73.6zM76.8,56H78.4V57.6H76.8zM78.4,56H80V57.6H78.4zM88,56H89.6V57.6H88zM89.6,56H91.2V57.6H89.6zM96,56H97.6V57.6H96zM100.8,56H102.4V57.6H100.8zM6.4,57.6H8V59.2H6.4zM8,57.6H9.6V59.2H8zM12.8,57.6H14.4V59.2H12.8zM14.4,57.6H16V59.2H14.4zM16,57.6H17.6V59.2H16zM17.6,57.6H19.2V59.2H17.6zM19.2,57.6H20.8V59.2H19.2zM24,57.6H25.6V59.2H24zM27.2,57.6H28.8V59.2H27.2zM30.4,57.6H32V59.2H30.4zM33.6,57.6H35.2V59.2H33.6zM43.2,57.6H44.8V59.2H43.2zM46.4,57.6H48V59.2H46.4zM51.2,57.6H52.8V59.2H51.2zM52.8,57.6H54.4V59.2H52.8zM54.4,57.6H56V59.2H54.4zM56,57.6H57.6V59.2H56zM57.6,57.6H59.2V59.2H57.6zM59.2,57.6H60.8V59.2H59.2zM60.8,57.6H62.4V59.2H60.8zM64,57.6H65.6V59.2H64zM65.6,57.6H67.2V59.2H65.6zM70.4,57.6H72V59.2H70.4zM73.6,57.6H75.2V59.2H73.6zM75.2,57.6H76.8V59.2H75.2zM78.4,57.6H80V59.2H78.4zM80,57.6H81.6V59.2H80zM81.6,57.6H83.2V59.2H81.6zM83.2,57.6H84.8V59.2H83.2zM89.6,57.6H91.2V59.2H89.6zM91.2,57.6H92.8V59.2H91.2zM92.8,57.6H94.4V59.2H92.8zM94.4,57.6H96V59.2H94.4zM96,57.6H97.6V59.2H96zM97.6,57.6H99.2V59.2H97.6zM99.2,57.6H100.8V59.2H99.2zM100.8,57.6H102.4V59.2H100.8zM6.4,59.2H8V60.8H6.4zM9.6,59.2H11.2V60.8H9.6zM11.2,59.2H12.8V60.8H11.2zM20.8,59.2H22.4V60.8H20.8zM22.4,59.2H24V60.8H22.4zM24,59.2H25.6V60.8H24zM25.6,59.2H27.2V60.8H25.6zM33.6,59.2H35.2V60.8H33.6zM36.8,59.2H38.4V60.8H36.8zM38.4,59.2H40V60.8H38.4zM40,59.2H41.6V60.8H40zM44.8,59.2H46.4V60.8H44.8zM51.2,59.2H52.8V60.8H51.2zM54.4,59.2H56V60.8H54.4zM56,59.2H57.6V60.8H56zM60.8,59.2H62.4V60.8H60.8zM72,59.2H73.6V60.8H72zM73.6,59.2H75.2V60.8H73.6zM75.2,59.2H76.8V60.8H75.2zM76.8,59.2H78.4V60.8H76.8zM81.6,59.2H83.2V60.8H81.6zM83.2,59.2H84.8V60.8H83.2zM84.8,59.2H86.4V60.8H84.8zM91.2,59.2H92.8V60.8H91.2zM92.8,59.2H94.4V60.8H92.8zM94.4,59.2H96V60.8H94.4zM99.2,59.2H100.8V60.8H99.2zM6.4,60.8H8V62.4H6.4zM8,60.8H9.6V62.4H8zM11.2,60.8H12.8V62.4H11.2zM12.8,60.8H14.4V62.4H12.8zM16,60.8H17.6V62.4H16zM22.4,60.8H24V62.4H22.4zM28.8,60.8H30.4V62.4H28.8zM30.4,60.8H32V62.4H30.4zM32,60.8H33.6V62.4H32zM35.2,60.8H36.8V62.4H35.2zM36.8,60.8H38.4V62.4H36.8zM38.4,60.8H40V62.4H38.4zM40,60.8H41.6V62.4H40zM43.2,60.8H44.8V62.4H43.2zM44.8,60.8H46.4V62.4H44.8zM46.4,60.8H48V62.4H46.4zM48,60.8H49.6V62.4H48zM49.6,60.8H51.2V62.4H49.6zM51.2,60.8H52.8V62.4H51.2zM56,60.8H57.6V62.4H56zM57.6,60.8H59.2V62.4H57.6zM60.8,60.8H62.4V62.4H60.8zM62.4,60.8H64V62.4H62.4zM68.8,60.8H70.4V62.4H68.8zM72,60.8H73.6V62.4H72zM75.2,60.8H76.8V62.4H75.2zM76.8,60.8H78.4V62.4H76.8zM78.4,60.8H80V62.4H78.4zM80,60.8H81.6V62.4H80zM81.6,60.8H83.2V62.4H81.6zM83.2,60.8H84.8V62.4H83.2zM84.8,60.8H86.4V62.4H84.8zM86.4,60.8H88V62.4H86.4zM88,60.8H89.6V62.4H88zM89.6,60.8H91.2V62.4H89.6zM91.2,60.8H92.8V62.4H91.2zM92.8,60.8H94.4V62.4H92.8zM94.4,60.8H96V62.4H94.4zM96,60.8H97.6V62.4H96zM97.6,60.8H99.2V62.4H97.6zM99.2,60.8H100.8V62.4H99.2zM100.8,60.8H102.4V62.4H100.8zM102.4,60.8H104V62.4H102.4zM6.4,62.4H8V64H6.4zM8,62.4H9.6V64H8zM12.8,62.4H14.4V64H12.8zM14.4,62.4H16V64H14.4zM17.6,62.4H19.2V64H17.6zM22.4,62.4H24V64H22.4zM24,62.4H25.6V64H24zM25.6,62.4H27.2V64H25.6zM30.4,62.4H32V64H30.4zM32,62.4H33.6V64H32zM36.8,62.4H38.4V64H36.8zM40,62.4H41.6V64H40zM44.8,62.4H46.4V64H44.8zM46.4,62.4H48V64H46.4zM49.6,62.4H51.2V64H49.6zM52.8,62.4H54.4V64H52.8zM54.4,62.4H56V64H54.4zM56,62.4H57.6V64H56zM59.2,62.4H60.8V64H59.2zM62.4,62.4H64V64H62.4zM64,62.4H65.6V64H64zM65.6,62.4H67.2V64H65.6zM68.8,62.4H70.4V64H68.8zM72,62.4H73.6V64H72zM75.2,62.4H76.8V64H75.2zM80,62.4H81.6V64H80zM88,62.4H89.6V64H88zM89.6,62.4H91.2V64H89.6zM92.8,62.4H94.4V64H92.8zM100.8,62.4H102.4V64H100.8zM11.2,64H12.8V65.6H11.2zM16,64H17.6V65.6H16zM17.6,64H19.2V65.6H17.6zM19.2,64H20.8V65.6H19.2zM22.4,64H24V65.6H22.4zM24,64H25.6V65.6H24zM25.6,64H27.2V65.6H25.6zM27.2,64H28.8V65.6H27.2zM28.8,64H30.4V65.6H28.8zM30.4,64H32V65.6H30.4zM32,64H33.6V65.6H32zM33.6,64H35.2V65.6H33.6zM35.2,64H36.8V65.6H35.2zM36.8,64H38.4V65.6H36.8zM38.4,64H40V65.6H38.4zM40,64H41.6V65.6H40zM41.6,64H43.2V65.6H41.6zM44.8,64H46.4V65.6H44.8zM51.2,64H52.8V65.6H51.2zM52.8,64H54.4V65.6H52.8zM59.2,64H60.8V65.6H59.2zM62.4,64H64V65.6H62.4zM67.2,64H68.8V65.6H67.2zM70.4,64H72V65.6H70.4zM72,64H73.6V65.6H72zM78.4,64H80V65.6H78.4zM81.6,64H83.2V65.6H81.6zM83.2,64H84.8V65.6H83.2zM84.8,64H86.4V65.6H84.8zM86.4,64H88V65.6H86.4zM88,64H89.6V65.6H88zM89.6,64H91.2V65.6H89.6zM100.8,64H102.4V65.6H100.8zM9.6,65.6H11.2V67.2H9.6zM11.2,65.6H12.8V67.2H11.2zM14.4,65.6H16V67.2H14.4zM19.2,65.6H20.8V67.2H19.2zM20.8,65.6H22.4V67.2H20.8zM24,65.6H25.6V67.2H24zM27.2,65.6H28.8V67.2H27.2zM28.8,65.6H30.4V67.2H28.8zM38.4,65.6H40V67.2H38.4zM40,65.6H41.6V67.2H40zM43.2,65.6H44.8V67.2H43.2zM46.4,65.6H48V67.2H46.4zM51.2,65.6H52.8V67.2H51.2zM52.8,65.6H54.4V67.2H52.8zM59.2,65.6H60.8V67.2H59.2zM60.8,65.6H62.4V67.2H60.8zM62.4,65.6H64V67.2H62.4zM64,65.6H65.6V67.2H64zM65.6,65.6H67.2V67.2H65.6zM67.2,65.6H68.8V67.2H67.2zM68.8,65.6H70.4V67.2H68.8zM70.4,65.6H72V67.2H70.4zM72,65.6H73.6V67.2H72zM73.6,65.6H75.2V67.2H73.6zM75.2,65.6H76.8V67.2H75.2zM81.6,65.6H83.2V67.2H81.6zM83.2,65.6H84.8V67.2H83.2zM84.8,65.6H86.4V67.2H84.8zM88,65.6H89.6V67.2H88zM91.2,65.6H92.8V67.2H91.2zM94.4,65.6H96V67.2H94.4zM97.6,65.6H99.2V67.2H97.6zM99.2,65.6H100.8V67.2H99.2zM100.8,65.6H102.4V67.2H100.8zM6.4,67.2H8V68.8H6.4zM9.6,67.2H11.2V68.8H9.6zM14.4,67.2H16V68.8H14.4zM16,67.2H17.6V68.8H16zM27.2,67.2H28.8V68.8H27.2zM30.4,67.2H32V68.8H30.4zM32,67.2H33.6V68.8H32zM33.6,67.2H35.2V68.8H33.6zM35.2,67.2H36.8V68.8H35.2zM43.2,67.2H44.8V68.8H43.2zM46.4,67.2H48V68.8H46.4zM48,67.2H49.6V68.8H48zM51.2,67.2H52.8V68.8H51.2zM56,67.2H57.6V68.8H56zM57.6,67.2H59.2V68.8H57.6zM59.2,67.2H60.8V68.8H59.2zM62.4,67.2H64V68.8H62.4zM64,67.2H65.6V68.8H64zM65.6,67.2H67.2V68.8H65.6zM67.2,67.2H68.8V68.8H67.2zM70.4,67.2H72V68.8H70.4zM73.6,67.2H75.2V68.8H73.6zM78.4,67.2H80V68.8H78.4zM80,67.2H81.6V68.8H80zM83.2,67.2H84.8V68.8H83.2zM86.4,67.2H88V68.8H86.4zM89.6,67.2H91.2V68.8H89.6zM91.2,67.2H92.8V68.8H91.2zM92.8,67.2H94.4V68.8H92.8zM94.4,67.2H96V68.8H94.4zM96,67.2H97.6V68.8H96zM100.8,67.2H102.4V68.8H100.8zM102.4,67.2H104V68.8H102.4zM9.6,68.8H11.2V70.4H9.6zM12.8,68.8H14.4V70.4H12.8zM14.4,68.8H16V70.4H14.4zM19.2,68.8H20.8V70.4H19.2zM24,68.8H25.6V70.4H24zM27.2,68.8H28.8V70.4H27.2zM30.4,68.8H32V70.4H30.4zM35.2,68.8H36.8V70.4H35.2zM36.8,68.8H38.4V70.4H36.8zM38.4,68.8H40V70.4H38.4zM41.6,68.8H43.2V70.4H41.6zM44.8,68.8H46.4V70.4H44.8zM46.4,68.8H48V70.4H46.4zM48,68.8H49.6V70.4H48zM49.6,68.8H51.2V70.4H49.6zM62.4,68.8H64V70.4H62.4zM64,68.8H65.6V70.4H64zM67.2,68.8H68.8V70.4H67.2zM70.4,68.8H72V70.4H70.4zM72,68.8H73.6V70.4H72zM76.8,68.8H78.4V70.4H76.8zM80,68.8H81.6V70.4H80zM84.8,68.8H86.4V70.4H84.8zM89.6,68.8H91.2V70.4H89.6zM91.2,68.8H92.8V70.4H91.2zM94.4,68.8H96V70.4H94.4zM96,68.8H97.6V70.4H96zM100.8,68.8H102.4V70.4H100.8zM102.4,68.8H104V70.4H102.4zM6.4,70.4H8V72H6.4zM8,70.4H9.6V72H8zM11.2,70.4H12.8V72H11.2zM14.4,70.4H16V72H14.4zM16,70.4H17.6V72H16zM20.8,70.4H22.4V72H20.8zM22.4,70.4H24V72H22.4zM24,70.4H25.6V72H24zM27.2,70.4H28.8V72H27.2zM28.8,70.4H30.4V72H28.8zM35.2,70.4H36.8V72H35.2zM36.8,70.4H38.4V72H36.8zM40,70.4H41.6V72H40zM43.2,70.4H44.8V72H43.2zM44.8,70.4H46.4V72H44.8zM46.4,70.4H48V72H46.4zM62.4,70.4H64V72H62.4zM64,70.4H65.6V72H64zM65.6,70.4H67.2V72H65.6zM78.4,70.4H80V72H78.4zM80,70.4H81.6V72H80zM81.6,70.4H83.2V72H81.6zM83.2,70.4H84.8V72H83.2zM88,70.4H89.6V72H88zM89.6,70.4H91.2V72H89.6zM92.8,70.4H94.4V72H92.8zM96,70.4H97.6V72H96zM97.6,70.4H99.2V72H97.6zM99.2,70.4H100.8V72H99.2zM102.4,70.4H104V72H102.4zM8,72H9.6V73.6H8zM9.6,72H11.2V73.6H9.6zM11.2,72H12.8V73.6H11.2zM12.8,72H14.4V73.6H12.8zM17.6,72H19.2V73.6H17.6zM19.2,72H20.8V73.6H19.2zM20.8,72H22.4V73.6H20.8zM22.4,72H24V73.6H22.4zM25.6,72H27.2V73.6H25.6zM36.8,72H38.4V73.6H36.8zM38.4,72H40V73.6H38.4zM48,72H49.6V73.6H48zM52.8,72H54.4V73.6H52.8zM59.2,72H60.8V73.6H59.2zM62.4,72H64V73.6H62.4zM64,72H65.6V73.6H64zM67.2,72H68.8V73.6H67.2zM68.8,72H70.4V73.6H68.8zM72,72H73.6V73.6H72zM73.6,72H75.2V73.6H73.6zM75.2,72H76.8V73.6H75.2zM76.8,72H78.4V73.6H76.8zM80,72H81.6V73.6H80zM81.6,72H83.2V73.6H81.6zM84.8,72H86.4V73.6H84.8zM91.2,72H92.8V73.6H91.2zM92.8,72H94.4V73.6H92.8zM94.4,72H96V73.6H94.4zM97.6,72H99.2V73.6H97.6zM99.2,72H100.8V73.6H99.2zM11.2,73.6H12.8V75.2H11.2zM12.8,73.6H14.4V75.2H12.8zM16,73.6H17.6V75.2H16zM24,73.6H25.6V75.2H24zM25.6,73.6H27.2V75.2H25.6zM27.2,73.6H28.8V75.2H27.2zM30.4,73.6H32V75.2H30.4zM32,73.6H33.6V75.2H32zM35.2,73.6H36.8V75.2H35.2zM38.4,73.6H40V75.2H38.4zM48,73.6H49.6V75.2H48zM49.6,73.6H51.2V75.2H49.6zM51.2,73.6H52.8V75.2H51.2zM54.4,73.6H56V75.2H54.4zM56,73.6H57.6V75.2H56zM57.6,73.6H59.2V75.2H57.6zM59.2,73.6H60.8V75.2H59.2zM62.4,73.6H64V75.2H62.4zM64,73.6H65.6V75.2H64zM65.6,73.6H67.2V75.2H65.6zM67.2,73.6H68.8V75.2H67.2zM68.8,73.6H70.4V75.2H68.8zM72,73.6H73.6V75.2H72zM73.6,73.6H75.2V75.2H73.6zM76.8,73.6H78.4V75.2H76.8zM78.4,73.6H80V75.2H78.4zM81.6,73.6H83.2V75.2H81.6zM86.4,73.6H88V75.2H86.4zM88,73.6H89.6V75.2H88zM92.8,73.6H94.4V75.2H92.8zM96,73.6H97.6V75.2H96zM97.6,73.6H99.2V75.2H97.6zM100.8,73.6H102.4V75.2H100.8zM102.4,73.6H104V75.2H102.4zM12.8,75.2H14.4V76.8H12.8zM14.4,75.2H16V76.8H14.4zM19.2,75.2H20.8V76.8H19.2zM20.8,75.2H22.4V76.8H20.8zM27.2,75.2H28.8V76.8H27.2zM32,75.2H33.6V76.8H32zM38.4,75.2H40V76.8H38.4zM40,75.2H41.6V76.8H40zM41.6,75.2H43.2V76.8H41.6zM44.8,75.2H46.4V76.8H44.8zM46.4,75.2H48V76.8H46.4zM51.2,75.2H52.8V76.8H51.2zM56,75.2H57.6V76.8H56zM57.6,75.2H59.2V76.8H57.6zM59.2,75.2H60.8V76.8H59.2zM62.4,75.2H64V76.8H62.4zM64,75.2H65.6V76.8H64zM65.6,75.2H67.2V76.8H65.6zM68.8,75.2H70.4V76.8H68.8zM72,75.2H73.6V76.8H72zM76.8,75.2H78.4V76.8H76.8zM80,75.2H81.6V76.8H80zM81.6,75.2H83.2V76.8H81.6zM84.8,75.2H86.4V76.8H84.8zM86.4,75.2H88V76.8H86.4zM91.2,75.2H92.8V76.8H91.2zM92.8,75.2H94.4V76.8H92.8zM94.4,75.2H96V76.8H94.4zM96,75.2H97.6V76.8H96zM97.6,75.2H99.2V76.8H97.6zM100.8,75.2H102.4V76.8H100.8zM102.4,75.2H104V76.8H102.4zM6.4,76.8H8V78.4H6.4zM9.6,76.8H11.2V78.4H9.6zM11.2,76.8H12.8V78.4H11.2zM12.8,76.8H14.4V78.4H12.8zM16,76.8H17.6V78.4H16zM17.6,76.8H19.2V78.4H17.6zM19.2,76.8H20.8V78.4H19.2zM22.4,76.8H24V78.4H22.4zM24,76.8H25.6V78.4H24zM32,76.8H33.6V78.4H32zM33.6,76.8H35.2V78.4H33.6zM36.8,76.8H38.4V78.4H36.8zM38.4,76.8H40V78.4H38.4zM40,76.8H41.6V78.4H40zM44.8,76.8H46.4V78.4H44.8zM51.2,76.8H52.8V78.4H51.2zM56,76.8H57.6V78.4H56zM67.2,76.8H68.8V78.4H67.2zM72,76.8H73.6V78.4H72zM75.2,76.8H76.8V78.4H75.2zM80,76.8H81.6V78.4H80zM83.2,76.8H84.8V78.4H83.2zM86.4,76.8H88V78.4H86.4zM88,76.8H89.6V78.4H88zM91.2,76.8H92.8V78.4H91.2zM92.8,76.8H94.4V78.4H92.8zM96,76.8H97.6V78.4H96zM97.6,76.8H99.2V78.4H97.6zM9.6,78.4H11.2V80H9.6zM17.6,78.4H19.2V80H17.6zM19.2,78.4H20.8V80H19.2zM22.4,78.4H24V80H22.4zM28.8,78.4H30.4V80H28.8zM33.6,78.4H35.2V80H33.6zM35.2,78.4H36.8V80H35.2zM36.8,78.4H38.4V80H36.8zM40,78.4H41.6V80H40zM43.2,78.4H44.8V80H43.2zM52.8,78.4H54.4V80H52.8zM54.4,78.4H56V80H54.4zM56,78.4H57.6V80H56zM60.8,78.4H62.4V80H60.8zM62.4,78.4H64V80H62.4zM64,78.4H65.6V80H64zM65.6,78.4H67.2V80H65.6zM70.4,78.4H72V80H70.4zM72,78.4H73.6V80H72zM73.6,78.4H75.2V80H73.6zM78.4,78.4H80V80H78.4zM81.6,78.4H83.2V80H81.6zM84.8,78.4H86.4V80H84.8zM89.6,78.4H91.2V80H89.6zM92.8,78.4H94.4V80H92.8zM94.4,78.4H96V80H94.4zM99.2,78.4H100.8V80H99.2zM11.2,80H12.8V81.6H11.2zM16,80H17.6V81.6H16zM17.6,80H19.2V81.6H17.6zM19.2,80H20.8V81.6H19.2zM27.2,80H28.8V81.6H27.2zM28.8,80H30.4V81.6H28.8zM30.4,80H32V81.6H30.4zM32,80H33.6V81.6H32zM33.6,80H35.2V81.6H33.6zM35.2,80H36.8V81.6H35.2zM36.8,80H38.4V81.6H36.8zM40,80H41.6V81.6H40zM41.6,80H43.2V81.6H41.6zM44.8,80H46.4V81.6H44.8zM46.4,80H48V81.6H46.4zM48,80H49.6V81.6H48zM52.8,80H54.4V81.6H52.8zM56,80H57.6V81.6H56zM57.6,80H59.2V81.6H57.6zM59.2,80H60.8V81.6H59.2zM60.8,80H62.4V81.6H60.8zM65.6,80H67.2V81.6H65.6zM70.4,80H72V81.6H70.4zM72,80H73.6V81.6H72zM73.6,80H75.2V81.6H73.6zM75.2,80H76.8V81.6H75.2zM76.8,80H78.4V81.6H76.8zM78.4,80H80V81.6H78.4zM80,80H81.6V81.6H80zM83.2,80H84.8V81.6H83.2zM86.4,80H88V81.6H86.4zM91.2,80H92.8V81.6H91.2zM92.8,80H94.4V81.6H92.8zM94.4,80H96V81.6H94.4zM97.6,80H99.2V81.6H97.6zM99.2,80H100.8V81.6H99.2zM100.8,80H102.4V81.6H100.8zM102.4,80H104V81.6H102.4zM6.4,81.6H8V83.2H6.4zM8,81.6H9.6V83.2H8zM9.6,81.6H11.2V83.2H9.6zM11.2,81.6H12.8V83.2H11.2zM24,81.6H25.6V83.2H24zM25.6,81.6H27.2V83.2H25.6zM36.8,81.6H38.4V83.2H36.8zM38.4,81.6H40V83.2H38.4zM41.6,81.6H43.2V83.2H41.6zM43.2,81.6H44.8V83.2H43.2zM46.4,81.6H48V83.2H46.4zM52.8,81.6H54.4V83.2H52.8zM54.4,81.6H56V83.2H54.4zM57.6,81.6H59.2V83.2H57.6zM59.2,81.6H60.8V83.2H59.2zM64,81.6H65.6V83.2H64zM65.6,81.6H67.2V83.2H65.6zM67.2,81.6H68.8V83.2H67.2zM68.8,81.6H70.4V83.2H68.8zM70.4,81.6H72V83.2H70.4zM73.6,81.6H75.2V83.2H73.6zM76.8,81.6H78.4V83.2H76.8zM80,81.6H81.6V83.2H80zM83.2,81.6H84.8V83.2H83.2zM84.8,81.6H86.4V83.2H84.8zM89.6,81.6H91.2V83.2H89.6zM91.2,81.6H92.8V83.2H91.2zM100.8,81.6H102.4V83.2H100.8zM102.4,81.6H104V83.2H102.4zM9.6,83.2H11.2V84.8H9.6zM11.2,83.2H12.8V84.8H11.2zM16,83.2H17.6V84.8H16zM17.6,83.2H19.2V84.8H17.6zM19.2,83.2H20.8V84.8H19.2zM20.8,83.2H22.4V84.8H20.8zM22.4,83.2H24V84.8H22.4zM24,83.2H25.6V84.8H24zM25.6,83.2H27.2V84.8H25.6zM28.8,83.2H30.4V84.8H28.8zM33.6,83.2H35.2V84.8H33.6zM40,83.2H41.6V84.8H40zM43.2,83.2H44.8V84.8H43.2zM44.8,83.2H46.4V84.8H44.8zM46.4,83.2H48V84.8H46.4zM49.6,83.2H51.2V84.8H49.6zM51.2,83.2H52.8V84.8H51.2zM52.8,83.2H54.4V84.8H52.8zM57.6,83.2H59.2V84.8H57.6zM59.2,83.2H60.8V84.8H59.2zM60.8,83.2H62.4V84.8H60.8zM62.4,83.2H64V84.8H62.4zM65.6,83.2H67.2V84.8H65.6zM67.2,83.2H68.8V84.8H67.2zM73.6,83.2H75.2V84.8H73.6zM75.2,83.2H76.8V84.8H75.2zM80,83.2H81.6V84.8H80zM81.6,83.2H83.2V84.8H81.6zM84.8,83.2H86.4V84.8H84.8zM86.4,83.2H88V84.8H86.4zM88,83.2H89.6V84.8H88zM89.6,83.2H91.2V84.8H89.6zM92.8,83.2H94.4V84.8H92.8zM94.4,83.2H96V84.8H94.4zM96,83.2H97.6V84.8H96zM97.6,83.2H99.2V84.8H97.6zM99.2,83.2H100.8V84.8H99.2zM100.8,83.2H102.4V84.8H100.8zM9.6,84.8H11.2V86.4H9.6zM11.2,84.8H12.8V86.4H11.2zM12.8,84.8H14.4V86.4H12.8zM14.4,84.8H16V86.4H14.4zM17.6,84.8H19.2V86.4H17.6zM20.8,84.8H22.4V86.4H20.8zM24,84.8H25.6V86.4H24zM30.4,84.8H32V86.4H30.4zM40,84.8H41.6V86.4H40zM43.2,84.8H44.8V86.4H43.2zM51.2,84.8H52.8V86.4H51.2zM52.8,84.8H54.4V86.4H52.8zM59.2,84.8H60.8V86.4H59.2zM60.8,84.8H62.4V86.4H60.8zM67.2,84.8H68.8V86.4H67.2zM70.4,84.8H72V86.4H70.4zM72,84.8H73.6V86.4H72zM73.6,84.8H75.2V86.4H73.6zM75.2,84.8H76.8V86.4H75.2zM76.8,84.8H78.4V86.4H76.8zM84.8,84.8H86.4V86.4H84.8zM88,84.8H89.6V86.4H88zM89.6,84.8H91.2V86.4H89.6zM94.4,84.8H96V86.4H94.4zM97.6,84.8H99.2V86.4H97.6zM99.2,84.8H100.8V86.4H99.2zM9.6,86.4H11.2V88H9.6zM11.2,86.4H12.8V88H11.2zM12.8,86.4H14.4V88H12.8zM14.4,86.4H16V88H14.4zM16,86.4H17.6V88H16zM17.6,86.4H19.2V88H17.6zM19.2,86.4H20.8V88H19.2zM20.8,86.4H22.4V88H20.8zM24,86.4H25.6V88H24zM25.6,86.4H27.2V88H25.6zM27.2,86.4H28.8V88H27.2zM28.8,86.4H30.4V88H28.8zM30.4,86.4H32V88H30.4zM38.4,86.4H40V88H38.4zM40,86.4H41.6V88H40zM44.8,86.4H46.4V88H44.8zM46.4,86.4H48V88H46.4zM52.8,86.4H54.4V88H52.8zM54.4,86.4H56V88H54.4zM56,86.4H57.6V88H56zM59.2,86.4H60.8V88H59.2zM62.4,86.4H64V88H62.4zM65.6,86.4H67.2V88H65.6zM67.2,86.4H68.8V88H67.2zM70.4,86.4H72V88H70.4zM72,86.4H73.6V88H72zM75.2,86.4H76.8V88H75.2zM76.8,86.4H78.4V88H76.8zM78.4,86.4H80V88H78.4zM80,86.4H81.6V88H80zM81.6,86.4H83.2V88H81.6zM86.4,86.4H88V88H86.4zM88,86.4H89.6V88H88zM92.8,86.4H94.4V88H92.8zM94.4,86.4H96V88H94.4zM96,86.4H97.6V88H96zM97.6,86.4H99.2V88H97.6zM100.8,86.4H102.4V88H100.8zM102.4,86.4H104V88H102.4zM6.4,88H8V89.6H6.4zM8,88H9.6V89.6H8zM9.6,88H11.2V89.6H9.6zM12.8,88H14.4V89.6H12.8zM17.6,88H19.2V89.6H17.6zM19.2,88H20.8V89.6H19.2zM20.8,88H22.4V89.6H20.8zM24,88H25.6V89.6H24zM25.6,88H27.2V89.6H25.6zM33.6,88H35.2V89.6H33.6zM36.8,88H38.4V89.6H36.8zM38.4,88H40V89.6H38.4zM41.6,88H43.2V89.6H41.6zM43.2,88H44.8V89.6H43.2zM46.4,88H48V89.6H46.4zM56,88H57.6V89.6H56zM57.6,88H59.2V89.6H57.6zM62.4,88H64V89.6H62.4zM64,88H65.6V89.6H64zM68.8,88H70.4V89.6H68.8zM70.4,88H72V89.6H70.4zM73.6,88H75.2V89.6H73.6zM76.8,88H78.4V89.6H76.8zM80,88H81.6V89.6H80zM89.6,88H91.2V89.6H89.6zM94.4,88H96V89.6H94.4zM96,88H97.6V89.6H96zM6.4,89.6H8V91.2H6.4zM8,89.6H9.6V91.2H8zM9.6,89.6H11.2V91.2H9.6zM11.2,89.6H12.8V91.2H11.2zM16,89.6H17.6V91.2H16zM22.4,89.6H24V91.2H22.4zM24,89.6H25.6V91.2H24zM27.2,89.6H28.8V91.2H27.2zM28.8,89.6H30.4V91.2H28.8zM33.6,89.6H35.2V91.2H33.6zM35.2,89.6H36.8V91.2H35.2zM36.8,89.6H38.4V91.2H36.8zM38.4,89.6H40V91.2H38.4zM41.6,89.6H43.2V91.2H41.6zM44.8,89.6H46.4V91.2H44.8zM46.4,89.6H48V91.2H46.4zM49.6,89.6H51.2V91.2H49.6zM51.2,89.6H52.8V91.2H51.2zM52.8,89.6H54.4V91.2H52.8zM54.4,89.6H56V91.2H54.4zM56,89.6H57.6V91.2H56zM57.6,89.6H59.2V91.2H57.6zM59.2,89.6H60.8V91.2H59.2zM62.4,89.6H64V91.2H62.4zM64,89.6H65.6V91.2H64zM67.2,89.6H68.8V91.2H67.2zM72,89.6H73.6V91.2H72zM73.6,89.6H75.2V91.2H73.6zM75.2,89.6H76.8V91.2H75.2zM80,89.6H81.6V91.2H80zM81.6,89.6H83.2V91.2H81.6zM83.2,89.6H84.8V91.2H83.2zM84.8,89.6H86.4V91.2H84.8zM86.4,89.6H88V91.2H86.4zM88,89.6H89.6V91.2H88zM89.6,89.6H91.2V91.2H89.6zM91.2,89.6H92.8V91.2H91.2zM92.8,89.6H94.4V91.2H92.8zM94.4,89.6H96V91.2H94.4zM96,89.6H97.6V91.2H96zM99.2,89.6H100.8V91.2H99.2zM100.8,89.6H102.4V91.2H100.8zM19.2,91.2H20.8V92.8H19.2zM20.8,91.2H22.4V92.8H20.8zM28.8,91.2H30.4V92.8H28.8zM35.2,91.2H36.8V92.8H35.2zM38.4,91.2H40V92.8H38.4zM40,91.2H41.6V92.8H40zM44.8,91.2H46.4V92.8H44.8zM48,91.2H49.6V92.8H48zM51.2,91.2H52.8V92.8H51.2zM57.6,91.2H59.2V92.8H57.6zM59.2,91.2H60.8V92.8H59.2zM60.8,91.2H62.4V92.8H60.8zM62.4,91.2H64V92.8H62.4zM65.6,91.2H67.2V92.8H65.6zM67.2,91.2H68.8V92.8H67.2zM70.4,91.2H72V92.8H70.4zM73.6,91.2H75.2V92.8H73.6zM75.2,91.2H76.8V92.8H75.2zM83.2,91.2H84.8V92.8H83.2zM89.6,91.2H91.2V92.8H89.6zM96,91.2H97.6V92.8H96zM97.6,91.2H99.2V92.8H97.6zM100.8,91.2H102.4V92.8H100.8zM6.4,92.8H8V94.4H6.4zM8,92.8H9.6V94.4H8zM9.6,92.8H11.2V94.4H9.6zM11.2,92.8H12.8V94.4H11.2zM12.8,92.8H14.4V94.4H12.8zM14.4,92.8H16V94.4H14.4zM16,92.8H17.6V94.4H16zM20.8,92.8H22.4V94.4H20.8zM24,92.8H25.6V94.4H24zM27.2,92.8H28.8V94.4H27.2zM28.8,92.8H30.4V94.4H28.8zM30.4,92.8H32V94.4H30.4zM33.6,92.8H35.2V94.4H33.6zM35.2,92.8H36.8V94.4H35.2zM36.8,92.8H38.4V94.4H36.8zM38.4,92.8H40V94.4H38.4zM41.6,92.8H43.2V94.4H41.6zM43.2,92.8H44.8V94.4H43.2zM49.6,92.8H51.2V94.4H49.6zM51.2,92.8H52.8V94.4H51.2zM54.4,92.8H56V94.4H54.4zM57.6,92.8H59.2V94.4H57.6zM60.8,92.8H62.4V94.4H60.8zM62.4,92.8H64V94.4H62.4zM64,92.8H65.6V94.4H64zM68.8,92.8H70.4V94.4H68.8zM72,92.8H73.6V94.4H72zM73.6,92.8H75.2V94.4H73.6zM78.4,92.8H80V94.4H78.4zM80,92.8H81.6V94.4H80zM81.6,92.8H83.2V94.4H81.6zM83.2,92.8H84.8V94.4H83.2zM86.4,92.8H88V94.4H86.4zM88,92.8H89.6V94.4H88zM89.6,92.8H91.2V94.4H89.6zM92.8,92.8H94.4V94.4H92.8zM96,92.8H97.6V94.4H96zM99.2,92.8H100.8V94.4H99.2zM100.8,92.8H102.4V94.4H100.8zM102.4,92.8H104V94.4H102.4zM6.4,94.4H8V96H6.4zM16,94.4H17.6V96H16zM20.8,94.4H22.4V96H20.8zM25.6,94.4H27.2V96H25.6zM27.2,94.4H28.8V96H27.2zM28.8,94.4H30.4V96H28.8zM30.4,94.4H32V96H30.4zM32,94.4H33.6V96H32zM33.6,94.4H35.2V96H33.6zM35.2,94.4H36.8V96H35.2zM38.4,94.4H40V96H38.4zM40,94.4H41.6V96H40zM41.6,94.4H43.2V96H41.6zM43.2,94.4H44.8V96H43.2zM46.4,94.4H48V96H46.4zM48,94.4H49.6V96H48zM51.2,94.4H52.8V96H51.2zM57.6,94.4H59.2V96H57.6zM59.2,94.4H60.8V96H59.2zM62.4,94.4H64V96H62.4zM68.8,94.4H70.4V96H68.8zM70.4,94.4H72V96H70.4zM72,94.4H73.6V96H72zM76.8,94.4H78.4V96H76.8zM86.4,94.4H88V96H86.4zM88,94.4H89.6V96H88zM89.6,94.4H91.2V96H89.6zM96,94.4H97.6V96H96zM100.8,94.4H102.4V96H100.8zM102.4,94.4H104V96H102.4zM6.4,96H8V97.6H6.4zM9.6,96H11.2V97.6H9.6zM11.2,96H12.8V97.6H11.2zM12.8,96H14.4V97.6H12.8zM16,96H17.6V97.6H16zM19.2,96H20.8V97.6H19.2zM20.8,96H22.4V97.6H20.8zM24,96H25.6V97.6H24zM25.6,96H27.2V97.6H25.6zM27.2,96H28.8V97.6H27.2zM35.2,96H36.8V97.6H35.2zM36.8,96H38.4V97.6H36.8zM40,96H41.6V97.6H40zM43.2,96H44.8V97.6H43.2zM44.8,96H46.4V97.6H44.8zM46.4,96H48V97.6H46.4zM48,96H49.6V97.6H48zM51.2,96H52.8V97.6H51.2zM52.8,96H54.4V97.6H52.8zM54.4,96H56V97.6H54.4zM56,96H57.6V97.6H56zM57.6,96H59.2V97.6H57.6zM62.4,96H64V97.6H62.4zM65.6,96H67.2V97.6H65.6zM67.2,96H68.8V97.6H67.2zM68.8,96H70.4V97.6H68.8zM75.2,96H76.8V97.6H75.2zM78.4,96H80V97.6H78.4zM81.6,96H83.2V97.6H81.6zM83.2,96H84.8V97.6H83.2zM88,96H89.6V97.6H88zM89.6,96H91.2V97.6H89.6zM91.2,96H92.8V97.6H91.2zM92.8,96H94.4V97.6H92.8zM94.4,96H96V97.6H94.4zM96,96H97.6V97.6H96zM97.6,96H99.2V97.6H97.6zM99.2,96H100.8V97.6H99.2zM6.4,97.6H8V99.2H6.4zM9.6,97.6H11.2V99.2H9.6zM11.2,97.6H12.8V99.2H11.2zM12.8,97.6H14.4V99.2H12.8zM16,97.6H17.6V99.2H16zM19.2,97.6H20.8V99.2H19.2zM22.4,97.6H24V99.2H22.4zM25.6,97.6H27.2V99.2H25.6zM28.8,97.6H30.4V99.2H28.8zM30.4,97.6H32V99.2H30.4zM32,97.6H33.6V99.2H32zM33.6,97.6H35.2V99.2H33.6zM35.2,97.6H36.8V99.2H35.2zM38.4,97.6H40V99.2H38.4zM41.6,97.6H43.2V99.2H41.6zM46.4,97.6H48V99.2H46.4zM49.6,97.6H51.2V99.2H49.6zM54.4,97.6H56V99.2H54.4zM56,97.6H57.6V99.2H56zM60.8,97.6H62.4V99.2H60.8zM62.4,97.6H64V99.2H62.4zM67.2,97.6H68.8V99.2H67.2zM70.4,97.6H72V99.2H70.4zM72,97.6H73.6V99.2H72zM73.6,97.6H75.2V99.2H73.6zM75.2,97.6H76.8V99.2H75.2zM81.6,97.6H83.2V99.2H81.6zM84.8,97.6H86.4V99.2H84.8zM88,97.6H89.6V99.2H88zM89.6,97.6H91.2V99.2H89.6zM91.2,97.6H92.8V99.2H91.2zM96,97.6H97.6V99.2H96zM99.2,97.6H100.8V99.2H99.2zM102.4,97.6H104V99.2H102.4zM6.4,99.2H8V100.8H6.4zM9.6,99.2H11.2V100.8H9.6zM11.2,99.2H12.8V100.8H11.2zM12.8,99.2H14.4V100.8H12.8zM16,99.2H17.6V100.8H16zM19.2,99.2H20.8V100.8H19.2zM20.8,99.2H22.4V100.8H20.8zM22.4,99.2H24V100.8H22.4zM24,99.2H25.6V100.8H24zM27.2,99.2H28.8V100.8H27.2zM28.8,99.2H30.4V100.8H28.8zM30.4,99.2H32V100.8H30.4zM33.6,99.2H35.2V100.8H33.6zM35.2,99.2H36.8V100.8H35.2zM36.8,99.2H38.4V100.8H36.8zM38.4,99.2H40V100.8H38.4zM49.6,99.2H51.2V100.8H49.6zM51.2,99.2H52.8V100.8H51.2zM52.8,99.2H54.4V100.8H52.8zM54.4,99.2H56V100.8H54.4zM57.6,99.2H59.2V100.8H57.6zM68.8,99.2H70.4V100.8H68.8zM75.2,99.2H76.8V100.8H75.2zM78.4,99.2H80V100.8H78.4zM80,99.2H81.6V100.8H80zM81.6,99.2H83.2V100.8H81.6zM83.2,99.2H84.8V100.8H83.2zM84.8,99.2H86.4V100.8H84.8zM86.4,99.2H88V100.8H86.4zM91.2,99.2H92.8V100.8H91.2zM94.4,99.2H96V100.8H94.4zM97.6,99.2H99.2V100.8H97.6zM99.2,99.2H100.8V100.8H99.2zM102.4,99.2H104V100.8H102.4zM6.4,100.8H8V102.4H6.4zM16,100.8H17.6V102.4H16zM20.8,100.8H22.4V102.4H20.8zM25.6,100.8H27.2V102.4H25.6zM33.6,100.8H35.2V102.4H33.6zM38.4,100.8H40V102.4H38.4zM43.2,100.8H44.8V102.4H43.2zM48,100.8H49.6V102.4H48zM49.6,100.8H51.2V102.4H49.6zM52.8,100.8H54.4V102.4H52.8zM54.4,100.8H56V102.4H54.4zM56,100.8H57.6V102.4H56zM57.6,100.8H59.2V102.4H57.6zM59.2,100.8H60.8V102.4H59.2zM65.6,100.8H67.2V102.4H65.6zM67.2,100.8H68.8V102.4H67.2zM68.8,100.8H70.4V102.4H68.8zM70.4,100.8H72V102.4H70.4zM73.6,100.8H75.2V102.4H73.6zM76.8,100.8H78.4V102.4H76.8zM80,100.8H81.6V102.4H80zM86.4,100.8H88V102.4H86.4zM89.6,100.8H91.2V102.4H89.6zM91.2,100.8H92.8V102.4H91.2zM92.8,100.8H94.4V102.4H92.8zM94.4,100.8H96V102.4H94.4zM102.4,100.8H104V102.4H102.4zM6.4,102.4H8V104H6.4zM8,102.4H9.6V104H8zM9.6,102.4H11.2V104H9.6zM11.2,102.4H12.8V104H11.2zM12.8,102.4H14.4V104H12.8zM14.4,102.4H16V104H14.4zM16,102.4H17.6V104H16zM25.6,102.4H27.2V104H25.6zM28.8,102.4H30.4V104H28.8zM30.4,102.4H32V104H30.4zM33.6,102.4H35.2V104H33.6zM35.2,102.4H36.8V104H35.2zM38.4,102.4H40V104H38.4zM43.2,102.4H44.8V104H43.2zM48,102.4H49.6V104H48zM56,102.4H57.6V104H56zM62.4,102.4H64V104H62.4zM64,102.4H65.6V104H64zM65.6,102.4H67.2V104H65.6zM75.2,102.4H76.8V104H75.2zM78.4,102.4H80V104H78.4zM81.6,102.4H83.2V104H81.6zM83.2,102.4H84.8V104H83.2zM84.8,102.4H86.4V104H84.8zM89.6,102.4H91.2V104H89.6zM91.2,102.4H92.8V104H91.2zM97.6,102.4H99.2V104H97.6zM99.2,102.4H100.8V104H99.2zM100.8,102.4H102.4V104H100.8zM102.4,102.4H104V104H102.4z" id="qr-path" fill="#000000" fill-opacity="1" fill-rule="nonzero" stroke="none" /></svg>