<?xml version='1.0' encoding='UTF-8'?>
<svg width="91.2mm" height="91.2mm" version="1.1" viewBox="0 0 91.2 91.2" xmlns="http://www.w3.org/2000/svg"><path d="M6.4,6.4H8V8H6.4zM8,6.4H9.6V8H8zM9.6,6.4H11.2V8H9.6zM11.2,6.4H12.8V8H11.2zM12.8,6.4H14.4V8H12.8zM14.4,6.4H16V8H14.4zM16,6.4H17.6V8H16zM20.8,6.4H22.4V8H20.8zM22.4,6.4H24V8H22.4zM30.4,6.4H32V8H30.4zM32,6.4H33.6V8H32zM35.2,6.4H36.8V8H35.2zM38.4,6.4H40V8H38.4zM41.6,6.4H43.2V8H41.6zM43.2,6.4H44.8V8H43.2zM46.4,6.4H48V8H46.4zM51.2,6.4H52.8V8H51.2zM54.4,6.4H56V8H54.4zM56,6.4H57.6V8H56zM57.6,6.4H59.2V8H57.6zM59.2,6.4H60.8V8H59.2zM60.8,6.4H62.4V8H60.8zM62.4,6.4H64V8H62.4zM70.4,6.4H72V8H70.4zM73.6,6.4H75.2V8H73.6zM75.2,6.4H76.8V8H75.2zM76.8,6.4H78.4V8H76.8zM78.4,6.4H80V8H78.4zM80,6.4H81.6V8H80zM81.6,6.4H83.2V8H81.6zM83.2,6.4H84.8V8H83.2zM6.4,8H8V9.6H6.4zM16,8H17.6V9.6H16zM19.2,8H20.8V9.6H19.2zM27.2,8H28.8V9.6H27.2zM32,8H33.6V9.6H32zM33.6,8H35.2V9.6H33.6zM35.2,8H36.8V9.6H35.2zM36.8,8H38.4V9.6H36.8zM38.4,8H40V9.6H38.4zM41.6,8H43.2V9.6H41.6zM43.2,8H44.8V9.6H43.2zM46.4,8H48V9.6H46.4zM49.6,8H51.2V9.6H49.6zM51.2,8H52.8V9.6H51.2zM56,8H57.6V9.6H56zM60.8,8H62.4V9.6H60.8zM64,8H65.6V9.6H64zM65.6,8H67.2V9.6H65.6zM67.2,8H68.8V9.6H67.2zM68.8,8H70.4V9.6H68.8zM70.4,8H72V9.6H70.4zM73.6,8H75.2V9.6H73.6zM83.2,8H84.8V9.6H83.2zM6.4,9.6H8V11.2H6.4zM9.6,9.6H11.2V11.2H9.6zM11.2,9.6H12.8V11.2H11.2zM12.8,9.6H14.4V11.2H12.8zM16,9.6H17.6V11.2H16zM19.2,9.6H20.8V11.2H19.2zM20.8,9.6H22.4V11.2H20.8zM27.2,9.6H28.8V11.2H27.2zM33.6,9.6H35.2V11.2H33.6zM35.2,9.6H36.8V11.2H35.2zM36.8,9.6H38.4V11.2H36.8zM40,9.6H41.6V11.2H40zM41.6,9.6H43.2V11.2H41.6zM43.2,9.6H44.8V11.2H43.2zM46.4,9.6H48V11.2H46.4zM49.6,9.6H51.2V11.2H49.6zM51.2,9.6H52.8V11.2H51.2zM52.8,9.6H54.4V11.2H52.8zM54.4,9.6H56V11.2H54.4zM56,9.6H57.6V11.2H56zM57.6,9.6H59.2V11.2H57.6zM65.6,9.6H67.2V11.2H65.6zM68.8,9.6H70.4V11.2H68.8zM70.4,9.6H72V11.2H70.4zM73.6,9.6H75.2V11.2H73.6zM76.8,9.6H78.4V11.2H76.8zM78.4,9.6H80V11.2H78.4zM80,9.6H81.6V11.2H80zM83.2,9.6H84.8V11.2H83.2zM6.4,11.2H8V12.8H6.4zM9.6,11.2H11.2V12.8H9.6zM11.2,11.2H12.8V12.8H11.2zM12.8,11.2H14.4V12.8H12.8zM16,11.2H17.6V12.8H16zM19.2,11.2H20.8V12.8H19.2zM25.6,11.2H27.2V12.8H25.6zM28.8,11.2H30.4V12.8H28.8zM30.4,11.2H32V12.8H30.4zM32,11.2H33.6V12.8H32zM35.2,11.2H36.8V12.8H35.2zM38.4,11.2H40V12.8H38.4zM41.6,11.2H43.2V12.8H41.6zM43.2,11.2H44.8V12.8H43.2zM46.4,11.2H48V12.8H46.4zM52.8,11.2H54.4V12.8H52.8zM59.2,11.2H60.8V12.8H59.2zM62.4,11.2H64V12.8H62.4zM65.6,11.2H67.2V12.8H65.6zM68.8,11.2H70.4V12.8H68.8zM73.6,11.2H75.2V12.8H73.6zM76.8,11.2H78.4V12.8H76.8zM78.4,11.2H80V12.8H78.4zM80,11.2H81.6V12.8H80zM83.2,11.2H84.8V12.8H83.2zM6.4,12.8H8V14.4H6.4zM9.6,12.8H11.2V14.4H9.6zM11.2,12.8H12.8V14.4H11.2zM12.8,12.8H14.4V14.4H12.8zM16,12.8H17.6V14.4H16zM19.2,12.8H20.8V14.4H19.2zM20.8,12.8H22.4V14.4H20.8zM22.4,12.8H24V14.4H22.4zM24,12.8H25.6V14.4H24zM25.6,12.8H27.2V14.4H25.6zM27.2,12.8H28.8V14.4H27.2zM38.4,12.8H40V14.4H38.4zM40,12.8H41.6V14.4H40zM41.6,12.8H43.2V14.4H41.6zM43.2,12.8H44.8V14.4H43.2zM44.8,12.8H46.4V14.4H44.8zM46.4,12.8H48V14.4H46.4zM48,12.8H49.6V14.4H48zM49.6,12.8H51.2V14.4H49.6zM52.8,12.8H54.4V14.4H52.8zM54.4,12.8H56V14.4H54.4zM56,12.8H57.6V14.4H56zM57.6,12.8H59.2V14.4H57.6zM60.8,12.8H62.4V14.4H60.8zM73.6,12.8H75.2V14.4H73.6zM76.8,12.8H78.4V14.4H76.8zM78.4,12.8H80V14.4H78.4zM80,12.8H81.6V14.4H80zM83.2,12.8H84.8V14.4H83.2zM6.4,14.4H8V16H6.4zM16,14.4H17.6V16H16zM19.2,14.4H20.8V16H19.2zM20.8,14.4H22.4V16H20.8zM24,14.4H25.6V16H24zM25.6,14.4H27.2V16H25.6zM28.8,14.4H30.4V16H28.8zM35.2,14.4H36.8V16H35.2zM38.4,14.4H40V16H38.4zM41.6,14.4H43.2V16H41.6zM48,14.4H49.6V16H48zM49.6,14.4H51.2V16H49.6zM51.2,14.4H52.8V16H51.2zM59.2,14.4H60.8V16H59.2zM60.8,14.4H62.4V16H60.8zM62.4,14.4H64V16H62.4zM65.6,14.4H67.2V16H65.6zM67.2,14.4H68.8V16H67.2zM73.6,14.4H75.2V16H73.6zM83.2,14.4H84.8V16H83.2zM6.4,16H8V17.6H6.4zM8,16H9.6V17.6H8zM9.6,16H11.2V17.6H9.6zM11.2,16H12.8V17.6H11.2zM12.8,16H14.4V17.6H12.8zM14.4,16H16V17.6H14.4zM16,16H17.6V17.6H16zM19.2,16H20.8V17.6H19.2zM22.4,16H24V17.6H22.4zM25.6,16H27.2V17.6H25.6zM28.8,16H30.4V17.6H28.8zM32,16H33.6V17.6H32zM35.2,16H36.8V17.6H35.2zM38.4,16H40V17.6H38.4zM41.6,16H43.2V17.6H41.6zM44.8,16H46.4V17.6H44.8zM48,16H49.6V17.6H48zM51.2,16H52.8V17.6H51.2zM54.4,16H56V17.6H54.4zM57.6,16H59.2V17.6H57.6zM60.8,16H62.4V17.6H60.8zM64,16H65.6V17.6H64zM67.2,16H68.8V17.6H67.2zM70.4,16H72V17.6H70.4zM73.6,16H75.2V17.6H73.6zM75.2,16H76.8V17.6H75.2zM76.8,16H78.4V17.6H76.8zM78.4,16H80V17.6H78.4zM80,16H81.6V17.6H80zM81.6,16H83.2V17.6H81.6zM83.2,16H84.8V17.6H83.2zM25.6,17.6H27.2V19.2H25.6zM27.2,17.6H28.8V19.2H27.2zM28.8,17.6H30.4V19.2H28.8zM30.4,17.6H32V19.2H30.4zM32,17.6H33.6V19.2H32zM33.6,17.6H35.2V19.2H33.6zM35.2,17.6H36.8V19.2H35.2zM40,17.6H41.6V19.2H40zM41.6,17.6H43.2V19.2H41.6zM48,17.6H49.6V19.2H48zM56,17.6H57.6V19.2H56zM59.2,17.6H60.8V19.2H59.2zM65.6,17.6H67.2V19.2H65.6zM67.2,17.6H68.8V19.2H67.2zM68.8,17.6H70.4V19.2H68.8zM70.4,17.6H72V19.2H70.4zM9.6,19.2H11.2V20.8H9.6zM14.4,19.2H16V20.8H14.4zM16,19.2H17.6V20.8H16zM17.6,19.2H19.2V20.8H17.6zM19.2,19.2H20.8V20.8H19.2zM22.4,19.2H24V20.8H22.4zM24,19.2H25.6V20.8H24zM27.2,19.2H28.8V20.8H27.2zM30.4,19.2H32V20.8H30.4zM32,19.2H33.6V20.8H32zM33.6,19.2H35.2V20.8H33.6zM35.2,19.2H36.8V20.8H35.2zM41.6,19.2H43.2V20.8H41.6zM43.2,19.2H44.8V20.8H43.2zM44.8,19.2H46.4V20.8H44.8zM46.4,19.2H48V20.8H46.4zM48,19.2H49.6V20.8H48zM49.6,19.2H51.2V20.8H49.6zM51.2,19.2H52.8V20.8H51.2zM52.8,19.2H54.4V20.8H52.8zM54.4,19.2H56V20.8H54.4zM56,19.2H57.6V20.8H56zM57.6,19.2H59.2V20.8H57.6zM60.8,19.2H62.4V20.8H60.8zM67.2,19.2H68.8V20.8H67.2zM68.8,19.2H70.4V20.8H68.8zM72,19.2H73.6V20.8H72zM75.2,19.2H76.8V20.8H75.2zM76.8,19.2H78.4V20.8H76.8zM78.4,19.2H80V20.8H78.4zM80,19.2H81.6V20.8H80zM81.6,19.2H83.2V20.8H81.6zM6.4,20.8H8V22.4H6.4zM8,20.8H9.6V22.4H8zM9.6,20.8H11.2V22.4H9.6zM19.2,20.8H20.8V22.4H19.2zM20.8,20.8H22.4V22.4H20.8zM22.4,20.8H24V22.4H22.4zM24,20.8H25.6V22.4H24zM25.6,20.8H27.2V22.4H25.6zM27.2,20.8H28.8V22.4H27.2zM28.8,20.8H30.4V22.4H28.8zM30.4,20.8H32V22.4H30.4zM33.6,20.8H35.2V22.4H33.6zM36.8,20.8H38.4V22.4H36.8zM38.4,20.8H40V22.4H38.4zM40,20.8H41.6V22.4H40zM44.8,20.8H46.4V22.4H44.8zM46.4,20.8H48V22.4H46.4zM48,20.8H49.6V22.4H48zM49.6,20.8H51.2V22.4H49.6zM52.8,20.8H54.4V22.4H52.8zM56,20.8H57.6V22.4H56zM57.6,20.8H59.2V22.4H57.6zM59.2,20.8H60.8V22.4H59.2zM64,20.8H65.6V22.4H64zM65.6,20.8H67.2V22.4H65.6zM68.8,20.8H70.4V22.4H68.8zM72,20.8H73.6V22.4H72zM75.2,20.8H76.8V22.4H75.2zM76.8,20.8H78.4V22.4H76.8zM80,20.8H81.6V22.4H80zM81.6,20.8H83.2V22.4H81.6zM83.2,20.8H84.8V22.4H83.2zM8,22.4H9.6V24H8zM16,22.4H17.6V24H16zM19.2,22.4H20.8V24H19.2zM20.8,22.4H22.4V24H20.8zM22.4,22.4H24V24H22.4zM24,22.4H25.6V24H24zM25.6,22.4H27.2V24H25.6zM27.2,22.4H28.8V24H27.2zM33.6,22.4H35.2V24H33.6zM36.8,22.4H38.4V24H36.8zM40,22.4H41.6V24H40zM44.8,22.4H46.4V24H44.8zM46.4,22.4H48V24H46.4zM48,22.4H49.6V24H48zM49.6,22.4H51.2V24H49.6zM54.4,22.4H56V24H54.4zM56,22.4H57.6V24H56zM65.6,22.4H67.2V24H65.6zM70.4,22.4H72V24H70.4zM80,22.4H81.6V24H80zM83.2,22.4H84.8V24H83.2zM8,24H9.6V25.6H8zM11.2,24H12.8V25.6H11.2zM17.6,24H19.2V25.6H17.6zM19.2,24H20.8V25.6H19.2zM20.8,24H22.4V25.6H20.8zM24,24H25.6V25.6H24zM25.6,24H27.2V25.6H25.6zM27.2,24H28.8V25.6H27.2zM28.8,24H30.4V25.6H28.8zM30.4,24H32V25.6H30.4zM48,24H49.6V25.6H48zM49.6,24H51.2V25.6H49.6zM52.8,24H54.4V25.6H52.8zM62.4,24H64V25.6H62.4zM64,24H65.6V25.6H64zM67.2,24H68.8V25.6H67.2zM68.8,24H70.4V25.6H68.8zM75.2,24H76.8V25.6H75.2zM76.8,24H78.4V25.6H76.8zM78.4,24H80V25.6H78.4zM83.2,24H84.8V25.6H83.2zM6.4,25.6H8V27.2H6.4zM11.2,25.6H12.8V27.2H11.2zM16,25.6H17.6V27.2H16zM17.6,25.6H19.2V27.2H17.6zM20.8,25.6H22.4V27.2H20.8zM22.4,25.6H24V27.2H22.4zM24,25.6H25.6V27.2H24zM25.6,25.6H27.2V27.2H25.6zM32,25.6H33.6V27.2H32zM33.6,25.6H35.2V27.2H33.6zM35.2,25.6H36.8V27.2H35.2zM36.8,25.6H38.4V27.2H36.8zM49.6,25.6H51.2V27.2H49.6zM51.2,25.6H52.8V27.2H51.2zM52.8,25.6H54.4V27.2H52.8zM57.6,25.6H59.2V27.2H57.6zM59.2,25.6H60.8V27.2H59.2zM64,25.6H65.6V27.2H64zM65.6,25.6H67.2V27.2H65.6zM67.2,25.6H68.8V27.2H67.2zM68.8,25.6H70.4V27.2H68.8zM73.6,25.6H75.2V27.2H73.6zM76.8,25.6H78.4V27.2H76.8zM9.6,27.2H11.2V28.8H9.6zM12.8,27.2H14.4V28.8H12.8zM14.4,27.2H16V28.8H14.4zM20.8,27.2H22.4V28.8H20.8zM22.4,27.2H24V28.8H22.4zM25.6,27.2H27.2V28.8H25.6zM27.2,27.2H28.8V28.8H27.2zM30.4,27.2H32V28.8H30.4zM32,27.2H33.6V28.8H32zM40,27.2H41.6V28.8H40zM41.6,27.2H43.2V28.8H41.6zM43.2,27.2H44.8V28.8H43.2zM46.4,27.2H48V28.8H46.4zM48,27.2H49.6V28.8H48zM52.8,27.2H54.4V28.8H52.8zM54.4,27.2H56V28.8H54.4zM59.2,27.2H60.8V28.8H59.2zM62.4,27.2H64V28.8H62.4zM64,27.2H65.6V28.8H64zM72,27.2H73.6V28.8H72zM75.2,27.2H76.8V28.8H75.2zM76.8,27.2H78.4V28.8H76.8zM83.2,27.2H84.8V28.8H83.2zM9.6,28.8H11.2V30.4H9.6zM12.8,28.8H14.4V30.4H12.8zM14.4,28.8H16V30.4H14.4zM16,28.8H17.6V30.4H16zM17.6,28.8H19.2V30.4H17.6zM22.4,28.8H24V30.4H22.4zM24,28.8H25.6V30.4H24zM25.6,28.8H27.2V30.4H25.6zM28.8,28.8H30.4V30.4H28.8zM32,28.8H33.6V30.4H32zM35.2,28.8H36.8V30.4H35.2zM36.8,28.8H38.4V30.4H36.8zM40,28.8H41.6V30.4H40zM43.2,28.8H44.8V30.4H43.2zM44.8,28.8H46.4V30.4H44.8zM48,28.8H49.6V30.4H48zM49.6,28.8H51.2V30.4H49.6zM54.4,28.8H56V30.4H54.4zM57.6,28.8H59.2V30.4H57.6zM65.6,28.8H67.2V30.4H65.6zM68.8,28.8H70.4V30.4H68.8zM80,28.8H81.6V30.4H80zM81.6,28.8H83.2V30.4H81.6zM83.2,28.8H84.8V30.4H83.2zM8,30.4H9.6V32H8zM11.2,30.4H12.8V32H11.2zM12.8,30.4H14.4V32H12.8zM17.6,30.4H19.2V32H17.6zM22.4,30.4H24V32H22.4zM25.6,30.4H27.2V32H25.6zM27.2,30.4H28.8V32H27.2zM28.8,30.4H30.4V32H28.8zM30.4,30.4H32V32H30.4zM36.8,30.4H38.4V32H36.8zM38.4,30.4H40V32H38.4zM41.6,30.4H43.2V32H41.6zM44.8,30.4H46.4V32H44.8zM52.8,30.4H54.4V32H52.8zM56,30.4H57.6V32H56zM64,30.4H65.6V32H64zM70.4,30.4H72V32H70.4zM72,30.4H73.6V32H72zM73.6,30.4H75.2V32H73.6zM76.8,30.4H78.4V32H76.8zM83.2,30.4H84.8V32H83.2zM9.6,32H11.2V33.6H9.6zM12.8,32H14.4V33.6H12.8zM16,32H17.6V33.6H16zM17.6,32H19.2V33.6H17.6zM22.4,32H24V33.6H22.4zM25.6,32H27.2V33.6H25.6zM27.2,32H28.8V33.6H27.2zM28.8,32H30.4V33.6H28.8zM30.4,32H32V33.6H30.4zM33.6,32H35.2V33.6H33.6zM38.4,32H40V33.6H38.4zM40,32H41.6V33.6H40zM43.2,32H44.8V33.6H43.2zM44.8,32H46.4V33.6H44.8zM49.6,32H51.2V33.6H49.6zM54.4,32H56V33.6H54.4zM60.8,32H62.4V33.6H60.8zM64,32H65.6V33.6H64zM67.2,32H68.8V33.6H67.2zM68.8,32H70.4V33.6H68.8zM70.4,32H72V33.6H70.4zM72,32H73.6V33.6H72zM76.8,32H78.4V33.6H76.8zM80,32H81.6V33.6H80zM81.6,32H83.2V33.6H81.6zM83.2,32H84.8V33.6H83.2zM8,33.6H9.6V35.2H8zM9.6,33.6H11.2V35.2H9.6zM11.2,33.6H12.8V35.2H11.2zM22.4,33.6H24V35.2H22.4zM27.2,33.6H28.8V35.2H27.2zM28.8,33.6H30.4V35.2H28.8zM30.4,33.6H32V35.2H30.4zM36.8,33.6H38.4V35.2H36.8zM38.4,33.6H40V35.2H38.4zM46.4,33.6H48V35.2H46.4zM48,33.6H49.6V35.2H48zM51.2,33.6H52.8V35.2H51.2zM52.8,33.6H54.4V35.2H52.8zM54.4,33.6H56V35.2H54.4zM56,33.6H57.6V35.2H56zM57.6,33.6H59.2V35.2H57.6zM62.4,33.6H64V35.2H62.4zM68.8,33.6H70.4V35.2H68.8zM70.4,33.6H72V35.2H70.4zM72,33.6H73.6V35.2H72zM73.6,33.6H75.2V35.2H73.6zM75.2,33.6H76.8V35.2H75.2zM76.8,33.6H78.4V35.2H76.8zM80,33.6H81.6V35.2H80zM83.2,33.6H84.8V35.2H83.2zM11.2,35.2H12.8V36.8H11.2zM14.4,35.2H16V36.8H14.4zM16,35.2H17.6V36.8H16zM17.6,35.2H19.2V36.8H17.6zM19.2,35.2H20.8V36.8H19.2zM20.8,35.2H22.4V36.8H20.8zM22.4,35.2H24V36.8H22.4zM24,35.2H25.6V36.8H24zM28.8,35.2H30.4V36.8H28.8zM30.4,35.2H32V36.8H30.4zM32,35.2H33.6V36.8H32zM38.4,35.2H40V36.8H38.4zM41.6,35.2H43.2V36.8H41.6zM43.2,35.2H44.8V36.8H43.2zM48,35.2H49.6V36.8H48zM52.8,35.2H54.4V36.8H52.8zM54.4,35.2H56V36.8H54.4zM56,35.2H57.6V36.8H56zM60.8,35.2H62.4V36.8H60.8zM64,35.2H65.6V36.8H64zM67.2,35.2H68.8V36.8H67.2zM68.8,35.2H70.4V36.8H68.8zM72,35.2H73.6V36.8H72zM73.6,35.2H75.2V36.8H73.6zM75.2,35.2H76.8V36.8H75.2zM76.8,35.2H78.4V36.8H76.8zM78.4,35.2H80V36.8H78.4zM80,35.2H81.6V36.8H80zM83.2,35.2H84.8V36.8H83.2zM6.4,36.8H8V38.4H6.4zM8,36.8H9.6V38.4H8zM11.2,36.8H12.8V38.4H11.2zM20.8,36.8H22.4V38.4H20.8zM25.6,36.8H27.2V38.4H25.6zM30.4,36.8H32V38.4H30.4zM32,36.8H33.6V38.4H32zM35.2,36.8H36.8V38.4H35.2zM43.2,36.8H44.8V38.4H43.2zM49.6,36.8H51.2V38.4H49.6zM54.4,36.8H56V38.4H54.4zM57.6,36.8H59.2V38.4H57.6zM59.2,36.8H60.8V38.4H59.2zM64,36.8H65.6V38.4H64zM65.6,36.8H67.2V38.4H65.6zM67.2,36.8H68.8V38.4H67.2zM68.8,36.8H70.4V38.4H68.8zM70.4,36.8H72V38.4H70.4zM75.2,36.8H76.8V38.4H75.2zM76.8,36.8H78.4V38.4H76.8zM78.4,36.8H80V38.4H78.4zM81.6,36.8H83.2V38.4H81.6zM83.2,36.8H84.8V38.4H83.2zM11.2,38.4H12.8V40H11.2zM12.8,38.4H14.4V40H12.8zM16,38.4H17.6V40H16zM19.2,38.4H20.8V40H19.2zM20.8,38.4H22.4V40H20.8zM24,38.4H25.6V40H24zM25.6,38.4H27.2V40H25.6zM27.2,38.4H28.8V40H27.2zM28.8,38.4H30.4V40H28.8zM30.4,38.4H32V40H30.4zM32,38.4H33.6V40H32zM36.8,38.4H38.4V40H36.8zM38.4,38.4H40V40H38.4zM40,38.4H41.6V40H40zM41.6,38.4H43.2V40H41.6zM43.2,38.4H44.8V40H43.2zM51.2,38.4H52.8V40H51.2zM57.6,38.4H59.2V40H57.6zM62.4,38.4H64V40H62.4zM64,38.4H65.6V40H64zM68.8,38.4H70.4V40H68.8zM72,38.4H73.6V40H72zM73.6,38.4H75.2V40H73.6zM76.8,38.4H78.4V40H76.8zM8,40H9.6V41.6H8zM9.6,40H11.2V41.6H9.6zM14.4,40H16V41.6H14.4zM19.2,40H20.8V41.6H19.2zM20.8,40H22.4V41.6H20.8zM27.2,40H28.8V41.6H27.2zM30.4,40H32V41.6H30.4zM33.6,40H35.2V41.6H33.6zM35.2,40H36.8V41.6H35.2zM36.8,40H38.4V41.6H36.8zM54.4,40H56V41.6H54.4zM56,40H57.6V41.6H56zM57.6,40H59.2V41.6H57.6zM62.4,40H64V41.6H62.4zM68.8,40H70.4V41.6H68.8zM72,40H73.6V41.6H72zM78.4,40H80V41.6H78.4zM80,40H81.6V41.6H80zM83.2,40H84.8V41.6H83.2zM8,41.6H9.6V43.2H8zM9.6,41.6H11.2V43.2H9.6zM12.8,41.6H14.4V43.2H12.8zM14.4,41.6H16V43.2H14.4zM16,41.6H17.6V43.2H16zM17.6,41.6H19.2V43.2H17.6zM19.2,41.6H20.8V43.2H19.2zM24,41.6H25.6V43.2H24zM38.4,41.6H40V43.2H38.4zM41.6,41.6H43.2V43.2H41.6zM43.2,41.6H44.8V43.2H43.2zM44.8,41.6H46.4V43.2H44.8zM46.4,41.6H48V43.2H46.4zM48,41.6H49.6V43.2H48zM51.2,41.6H52.8V43.2H51.2zM52.8,41.6H54.4V43.2H52.8zM54.4,41.6H56V43.2H54.4zM56,41.6H57.6V43.2H56zM57.6,41.6H59.2V43.2H57.6zM59.2,41.6H60.8V43.2H59.2zM65.6,41.6H67.2V43.2H65.6zM70.4,41.6H72V43.2H70.4zM72,41.6H73.6V43.2H72zM73.6,41.6H75.2V43.2H73.6zM75.2,41.6H76.8V43.2H75.2zM76.8,41.6H78.4V43.2H76.8zM78.4,41.6H80V43.2H78.4zM83.2,41.6H84.8V43.2H83.2zM6.4,43.2H8V44.8H6.4zM12.8,43.2H14.4V44.8H12.8zM19.2,43.2H20.8V44.8H19.2zM22.4,43.2H24V44.8H22.4zM25.6,43.2H27.2V44.8H25.6zM27.2,43.2H28.8V44.8H27.2zM28.8,43.2H30.4V44.8H28.8zM33.6,43.2H35.2V44.8H33.6zM40,43.2H41.6V44.8H40zM41.6,43.2H43.2V44.8H41.6zM48,43.2H49.6V44.8H48zM49.6,43.2H51.2V44.8H49.6zM52.8,43.2H54.4V44.8H52.8zM54.4,43.2H56V44.8H54.4zM59.2,43.2H60.8V44.8H59.2zM60.8,43.2H62.4V44.8H60.8zM62.4,43.2H64V44.8H62.4zM64,43.2H65.6V44.8H64zM65.6,43.2H67.2V44.8H65.6zM68.8,43.2H70.4V44.8H68.8zM70.4,43.2H72V44.8H70.4zM76.8,43.2H78.4V44.8H76.8zM78.4,43.2H80V44.8H78.4zM81.6,43.2H83.2V44.8H81.6zM8,44.8H9.6V46.4H8zM12.8,44.8H14.4V46.4H12.8zM16,44.8H17.6V46.4H16zM19.2,44.8H20.8V46.4H19.2zM20.8,44.8H22.4V46.4H20.8zM24,44.8H25.6V46.4H24zM27.2,44.8H28.8V46.4H27.2zM32,44.8H33.6V46.4H32zM33.6,44.8H35.2V46.4H33.6zM35.2,44.8H36.8V46.4H35.2zM36.8,44.8H38.4V46.4H36.8zM38.4,44.8H40V46.4H38.4zM41.6,44.8H43.2V46.4H41.6zM44.8,44.8H46.4V46.4H44.8zM48,44.8H49.6V46.4H48zM49.6,44.8H51.2V46.4H49.6zM54.4,44.8H56V46.4H54.4zM64,44.8H65.6V46.4H64zM65.6,44.8H67.2V46.4H65.6zM67.2,44.8H68.8V46.4H67.2zM68.8,44.8H70.4V46.4H68.8zM70.4,44.8H72V46.4H70.4zM73.6,44.8H75.2V46.4H73.6zM76.8,44.8H78.4V46.4H76.8zM78.4,44.8H80V46.4H78.4zM83.2,44.8H84.8V46.4H83.2zM6.4,46.4H8V48H6.4zM8,46.4H9.6V48H8zM9.6,46.4H11.2V48H9.6zM12.8,46.4H14.4V48H12.8zM19.2,46.4H20.8V48H19.2zM20.8,46.4H22.4V48H20.8zM22.4,46.4H24V48H22.4zM24,46.4H25.6V48H24zM27.2,46.4H28.8V48H27.2zM30.4,46.4H32V48H30.4zM32,46.4H33.6V48H32zM33.6,46.4H35.2V48H33.6zM40,46.4H41.6V48H40zM41.6,46.4H43.2V48H41.6zM48,46.4H49.6V48H48zM49.6,46.4H51.2V48H49.6zM54.4,46.4H56V48H54.4zM57.6,46.4H59.2V48H57.6zM59.2,46.4H60.8V48H59.2zM64,46.4H65.6V48H64zM70.4,46.4H72V48H70.4zM76.8,46.4H78.4V48H76.8zM78.4,46.4H80V48H78.4zM80,46.4H81.6V48H80zM8,48H9.6V49.6H8zM9.6,48H11.2V49.6H9.6zM12.8,48H14.4V49.6H12.8zM14.4,48H16V49.6H14.4zM16,48H17.6V49.6H16zM17.6,48H19.2V49.6H17.6zM19.2,48H20.8V49.6H19.2zM20.8,48H22.4V49.6H20.8zM25.6,48H27.2V49.6H25.6zM27.2,48H28.8V49.6H27.2zM35.2,48H36.8V49.6H35.2zM40,48H41.6V49.6H40zM41.6,48H43.2V49.6H41.6zM43.2,48H44.8V49.6H43.2zM44.8,48H46.4V49.6H44.8zM46.4,48H48V49.6H46.4zM48,48H49.6V49.6H48zM52.8,48H54.4V49.6H52.8zM59.2,48H60.8V49.6H59.2zM65.6,48H67.2V49.6H65.6zM68.8,48H70.4V49.6H68.8zM70.4,48H72V49.6H70.4zM72,48H73.6V49.6H72zM73.6,48H75.2V49.6H73.6zM75.2,48H76.8V49.6H75.2zM76.8,48H78.4V49.6H76.8zM80,48H81.6V49.6H80zM6.4,49.6H8V51.2H6.4zM8,49.6H9.6V51.2H8zM11.2,49.6H12.8V51.2H11.2zM19.2,49.6H20.8V51.2H19.2zM20.8,49.6H22.4V51.2H20.8zM22.4,49.6H24V51.2H22.4zM24,49.6H25.6V51.2H24zM25.6,49.6H27.2V51.2H25.6zM30.4,49.6H32V51.2H30.4zM32,49.6H33.6V51.2H32zM36.8,49.6H38.4V51.2H36.8zM38.4,49.6H40V51.2H38.4zM46.4,49.6H48V51.2H46.4zM48,49.6H49.6V51.2H48zM51.2,49.6H52.8V51.2H51.2zM52.8,49.6H54.4V51.2H52.8zM59.2,49.6H60.8V51.2H59.2zM62.4,49.6H64V51.2H62.4zM64,49.6H65.6V51.2H64zM65.6,49.6H67.2V51.2H65.6zM68.8,49.6H70.4V51.2H68.8zM72,49.6H73.6V51.2H72zM73.6,49.6H75.2V51.2H73.6zM75.2,49.6H76.8V51.2H75.2zM78.4,49.6H80V51.2H78.4zM83.2,49.6H84.8V51.2H83.2zM9.6,51.2H11.2V52.8H9.6zM16,51.2H17.6V52.8H16zM19.2,51.2H20.8V52.8H19.2zM22.4,51.2H24V52.8H22.4zM25.6,51.2H27.2V52.8H25.6zM27.2,51.2H28.8V52.8H27.2zM28.8,51.2H30.4V52.8H28.8zM30.4,51.2H32V52.8H30.4zM33.6,51.2H35.2V52.8H33.6zM35.2,51.2H36.8V52.8H35.2zM38.4,51.2H40V52.8H38.4zM40,51.2H41.6V52.8H40zM43.2,51.2H44.8V52.8H43.2zM49.6,51.2H51.2V52.8H49.6zM56,51.2H57.6V52.8H56zM57.6,51.2H59.2V52.8H57.6zM59.2,51.2H60.8V52.8H59.2zM60.8,51.2H62.4V52.8H60.8zM64,51.2H65.6V52.8H64zM65.6,51.2H67.2V52.8H65.6zM67.2,51.2H68.8V52.8H67.2zM68.8,51.2H70.4V52.8H68.8zM70.4,51.2H72V52.8H70.4zM76.8,51.2H78.4V52.8H76.8zM6.4,52.8H8V54.4H6.4zM11.2,52.8H12.8V54.4H11.2zM17.6,52.8H19.2V54.4H17.6zM20.8,52.8H22.4V54.4H20.8zM24,52.8H25.6V54.4H24zM25.6,52.8H27.2V54.4H25.6zM30.4,52.8H32V54.4H30.4zM33.6,52.8H35.2V54.4H33.6zM35.2,52.8H36.8V54.4H35.2zM38.4,52.8H40V54.4H38.4zM44.8,52.8H46.4V54.4H44.8zM51.2,52.8H52.8V54.4H51.2zM52.8,52.8H54.4V54.4H52.8zM54.4,52.8H56V54.4H54.4zM59.2,52.8H60.8V54.4H59.2zM62.4,52.8H64V54.4H62.4zM64,52.8H65.6V54.4H64zM65.6,52.8H67.2V54.4H65.6zM70.4,52.8H72V54.4H70.4zM83.2,52.8H84.8V54.4H83.2zM9.6,54.4H11.2V56H9.6zM12.8,54.4H14.4V56H12.8zM16,54.4H17.6V56H16zM17.6,54.4H19.2V56H17.6zM20.8,54.4H22.4V56H20.8zM24,54.4H25.6V56H24zM28.8,54.4H30.4V56H28.8zM30.4,54.4H32V56H30.4zM35.2,54.4H36.8V56H35.2zM40,54.4H41.6V56H40zM41.6,54.4H43.2V56H41.6zM43.2,54.4H44.8V56H43.2zM44.8,54.4H46.4V56H44.8zM46.4,54.4H48V56H46.4zM48,54.4H49.6V56H48zM54.4,54.4H56V56H54.4zM64,54.4H65.6V56H64zM65.6,54.4H67.2V56H65.6zM68.8,54.4H70.4V56H68.8zM70.4,54.4H72V56H70.4zM73.6,54.4H75.2V56H73.6zM76.8,54.4H78.4V56H76.8zM83.2,54.4H84.8V56H83.2zM8,56H9.6V57.6H8zM9.6,56H11.2V57.6H9.6zM11.2,56H12.8V57.6H11.2zM19.2,56H20.8V57.6H19.2zM20.8,56H22.4V57.6H20.8zM22.4,56H24V57.6H22.4zM24,56H25.6V57.6H24zM25.6,56H27.2V57.6H25.6zM27.2,56H28.8V57.6H27.2zM28.8,56H30.4V57.6H28.8zM30.4,56H32V57.6H30.4zM33.6,56H35.2V57.6H33.6zM35.2,56H36.8V57.6H35.2zM36.8,56H38.4V57.6H36.8zM38.4,56H40V57.6H38.4zM41.6,56H43.2V57.6H41.6zM43.2,56H44.8V57.6H43.2zM49.6,56H51.2V57.6H49.6zM54.4,56H56V57.6H54.4zM56,56H57.6V57.6H56zM59.2,56H60.8V57.6H59.2zM62.4,56H64V57.6H62.4zM65.6,56H67.2V57.6H65.6zM68.8,56H70.4V57.6H68.8zM73.6,56H75.2V57.6H73.6zM78.4,56H80V57.6H78.4zM6.4,57.6H8V59.2H6.4zM8,57.6H9.6V59.2H8zM9.6,57.6H11.2V59.2H9.6zM11.2,57.6H12.8V59.2H11.2zM14.4,57.6H16V59.2H14.4zM16,57.6H17.6V59.2H16zM22.4,57.6H24V59.2H22.4zM24,57.6H25.6V59.2H24zM27.2,57.6H28.8V59.2H27.2zM28.8,57.6H30.4V59.2H28.8zM38.4,57.6H40V59.2H38.4zM46.4,57.6H48V59.2H46.4zM49.6,57.6H51.2V59.2H49.6zM51.2,57.6H52.8V59.2H51.2zM56,57.6H57.6V59.2H56zM57.6,57.6H59.2V59.2H57.6zM59.2,57.6H60.8V59.2H59.2zM60.8,57.6H62.4V59.2H60.8zM62.4,57.6H64V59.2H62.4zM64,57.6H65.6V59.2H64zM65.6,57.6H67.2V59.2H65.6zM68.8,57.6H70.4V59.2H68.8zM72,57.6H73.6V59.2H72zM73.6,57.6H75.2V59.2H73.6zM75.2,57.6H76.8V59.2H75.2zM83.2,57.6H84.8V59.2H83.2zM9.6,59.2H11.2V60.8H9.6zM14.4,59.2H16V60.8H14.4zM19.2,59.2H20.8V60.8H19.2zM20.8,59.2H22.4V60.8H20.8zM24,59.2H25.6V60.8H24zM25.6,59.2H27.2V60.8H25.6zM27.2,59.2H28.8V60.8H27.2zM32,59.2H33.6V60.8H32zM33.6,59.2H35.2V60.8H33.6zM35.2,59.2H36.8V60.8H35.2zM38.4,59.2H40V60.8H38.4zM41.6,59.2H43.2V60.8H41.6zM43.2,59.2H44.8V60.8H43.2zM51.2,59.2H52.8V60.8H51.2zM56,59.2H57.6V60.8H56zM62.4,59.2H64V60.8H62.4zM65.6,59.2H67.2V60.8H65.6zM68.8,59.2H70.4V60.8H68.8zM73.6,59.2H75.2V60.8H73.6zM75.2,59.2H76.8V60.8H75.2zM83.2,59.2H84.8V60.8H83.2zM8,60.8H9.6V62.4H8zM9.6,60.8H11.2V62.4H9.6zM16,60.8H17.6V62.4H16zM17.6,60.8H19.2V62.4H17.6zM20.8,60.8H22.4V62.4H20.8zM24,60.8H25.6V62.4H24zM25.6,60.8H27.2V62.4H25.6zM32,60.8H33.6V62.4H32zM38.4,60.8H40V62.4H38.4zM40,60.8H41.6V62.4H40zM49.6,60.8H51.2V62.4H49.6zM52.8,60.8H54.4V62.4H52.8zM56,60.8H57.6V62.4H56zM57.6,60.8H59.2V62.4H57.6zM59.2,60.8H60.8V62.4H59.2zM62.4,60.8H64V62.4H62.4zM64,60.8H65.6V62.4H64zM65.6,60.8H67.2V62.4H65.6zM73.6,60.8H75.2V62.4H73.6zM75.2,60.8H76.8V62.4H75.2zM76.8,60.8H78.4V62.4H76.8zM83.2,60.8H84.8V62.4H83.2zM11.2,62.4H12.8V64H11.2zM14.4,62.4H16V64H14.4zM17.6,62.4H19.2V64H17.6zM19.2,62.4H20.8V64H19.2zM27.2,62.4H28.8V64H27.2zM33.6,62.4H35.2V64H33.6zM35.2,62.4H36.8V64H35.2zM38.4,62.4H40V64H38.4zM40,62.4H41.6V64H40zM41.6,62.4H43.2V64H41.6zM43.2,62.4H44.8V64H43.2zM49.6,62.4H51.2V64H49.6zM54.4,62.4H56V64H54.4zM57.6,62.4H59.2V64H57.6zM59.2,62.4H60.8V64H59.2zM64,62.4H65.6V64H64zM65.6,62.4H67.2V64H65.6zM67.2,62.4H68.8V64H67.2zM68.8,62.4H70.4V64H68.8zM70.4,62.4H72V64H70.4zM73.6,62.4H75.2V64H73.6zM78.4,62.4H80V64H78.4zM81.6,62.4H83.2V64H81.6zM9.6,64H11.2V65.6H9.6zM11.2,64H12.8V65.6H11.2zM12.8,64H14.4V65.6H12.8zM16,64H17.6V65.6H16zM17.6,64H19.2V65.6H17.6zM19.2,64H20.8V65.6H19.2zM22.4,64H24V65.6H22.4zM25.6,64H27.2V65.6H25.6zM27.2,64H28.8V65.6H27.2zM28.8,64H30.4V65.6H28.8zM30.4,64H32V65.6H30.4zM32,64H33.6V65.6H32zM33.6,64H35.2V65.6H33.6zM36.8,64H38.4V65.6H36.8zM44.8,64H46.4V65.6H44.8zM46.4,64H48V65.6H46.4zM52.8,64H54.4V65.6H52.8zM57.6,64H59.2V65.6H57.6zM59.2,64H60.8V65.6H59.2zM60.8,64H62.4V65.6H60.8zM64,64H65.6V65.6H64zM67.2,64H68.8V65.6H67.2zM68.8,64H70.4V65.6H68.8zM72,64H73.6V65.6H72zM73.6,64H75.2V65.6H73.6zM75.2,64H76.8V65.6H75.2zM81.6,64H83.2V65.6H81.6zM83.2,64H84.8V65.6H83.2zM6.4,65.6H8V67.2H6.4zM8,65.6H9.6V67.2H8zM9.6,65.6H11.2V67.2H9.6zM11.2,65.6H12.8V67.2H11.2zM12.8,65.6H14.4V67.2H12.8zM14.4,65.6H16V67.2H14.4zM17.6,65.6H19.2V67.2H17.6zM19.2,65.6H20.8V67.2H19.2zM22.4,65.6H24V67.2H22.4zM24,65.6H25.6V67.2H24zM27.2,65.6H28.8V67.2H27.2zM28.8,65.6H30.4V67.2H28.8zM48,65.6H49.6V67.2H48zM49.6,65.6H51.2V67.2H49.6zM51.2,65.6H52.8V67.2H51.2zM56,65.6H57.6V67.2H56zM59.2,65.6H60.8V67.2H59.2zM65.6,65.6H67.2V67.2H65.6zM68.8,65.6H70.4V67.2H68.8zM70.4,65.6H72V67.2H70.4zM73.6,65.6H75.2V67.2H73.6zM75.2,65.6H76.8V67.2H75.2zM78.4,65.6H80V67.2H78.4zM80,65.6H81.6V67.2H80zM81.6,65.6H83.2V67.2H81.6zM83.2,65.6H84.8V67.2H83.2zM8,67.2H9.6V68.8H8zM14.4,67.2H16V68.8H14.4zM16,67.2H17.6V68.8H16zM17.6,67.2H19.2V68.8H17.6zM22.4,67.2H24V68.8H22.4zM24,67.2H25.6V68.8H24zM25.6,67.2H27.2V68.8H25.6zM28.8,67.2H30.4V68.8H28.8zM30.4,67.2H32V68.8H30.4zM36.8,67.2H38.4V68.8H36.8zM40,67.2H41.6V68.8H40zM43.2,67.2H44.8V68.8H43.2zM44.8,67.2H46.4V68.8H44.8zM48,67.2H49.6V68.8H48zM51.2,67.2H52.8V68.8H51.2zM52.8,67.2H54.4V68.8H52.8zM54.4,67.2H56V68.8H54.4zM56,67.2H57.6V68.8H56zM57.6,67.2H59.2V68.8H57.6zM59.2,67.2H60.8V68.8H59.2zM62.4,67.2H64V68.8H62.4zM64,67.2H65.6V68.8H64zM73.6,67.2H75.2V68.8H73.6zM75.2,67.2H76.8V68.8H75.2zM76.8,67.2H78.4V68.8H76.8zM78.4,67.2H80V68.8H78.4zM83.2,67.2H84.8V68.8H83.2zM8,68.8H9.6V70.4H8zM9.6,68.8H11.2V70.4H9.6zM11.2,68.8H12.8V70.4H11.2zM19.2,68.8H20.8V70.4H19.2zM24,68.8H25.6V70.4H24zM25.6,68.8H27.2V70.4H25.6zM28.8,68.8H30.4V70.4H28.8zM30.4,68.8H32V70.4H30.4zM38.4,68.8H40V70.4H38.4zM40,68.8H41.6V70.4H40zM41.6,68.8H43.2V70.4H41.6zM43.2,68.8H44.8V70.4H43.2zM46.4,68.8H48V70.4H46.4zM48,68.8H49.6V70.4H48zM49.6,68.8H51.2V70.4H49.6zM51.2,68.8H52.8V70.4H51.2zM52.8,68.8H54.4V70.4H52.8zM54.4,68.8H56V70.4H54.4zM57.6,68.8H59.2V70.4H57.6zM59.2,68.8H60.8V70.4H59.2zM60.8,68.8H62.4V70.4H60.8zM64,68.8H65.6V70.4H64zM65.6,68.8H67.2V70.4H65.6zM67.2,68.8H68.8V70.4H67.2zM68.8,68.8H70.4V70.4H68.8zM72,68.8H73.6V70.4H72zM73.6,68.8H75.2V70.4H73.6zM78.4,68.8H80V70.4H78.4zM80,68.8H81.6V70.4H80zM81.6,68.8H83.2V70.4H81.6zM6.4,70.4H8V72H6.4zM8,70.4H9.6V72H8zM9.6,70.4H11.2V72H9.6zM16,70.4H17.6V72H16zM17.6,70.4H19.2V72H17.6zM19.2,70.4H20.8V72H19.2zM30.4,70.4H32V72H30.4zM35.2,70.4H36.8V72H35.2zM38.4,70.4H40V72H38.4zM41.6,70.4H43.2V72H41.6zM43.2,70.4H44.8V72H43.2zM44.8,70.4H46.4V72H44.8zM46.4,70.4H48V72H46.4zM48,70.4H49.6V72H48zM52.8,70.4H54.4V72H52.8zM57.6,70.4H59.2V72H57.6zM59.2,70.4H60.8V72H59.2zM64,70.4H65.6V72H64zM65.6,70.4H67.2V72H65.6zM68.8,70.4H70.4V72H68.8zM70.4,70.4H72V72H70.4zM72,70.4H73.6V72H72zM73.6,70.4H75.2V72H73.6zM75.2,70.4H76.8V72H75.2zM76.8,70.4H78.4V72H76.8zM78.4,70.4H80V72H78.4zM80,70.4H81.6V72H80zM83.2,70.4H84.8V72H83.2zM19.2,72H20.8V73.6H19.2zM20.8,72H22.4V73.6H20.8zM22.4,72H24V73.6H22.4zM27.2,72H28.8V73.6H27.2zM30.4,72H32V73.6H30.4zM33.6,72H35.2V73.6H33.6zM41.6,72H43.2V73.6H41.6zM48,72H49.6V73.6H48zM51.2,72H52.8V73.6H51.2zM56,72H57.6V73.6H56zM59.2,72H60.8V73.6H59.2zM60.8,72H62.4V73.6H60.8zM65.6,72H67.2V73.6H65.6zM67.2,72H68.8V73.6H67.2zM68.8,72H70.4V73.6H68.8zM70.4,72H72V73.6H70.4zM76.8,72H78.4V73.6H76.8zM78.4,72H80V73.6H78.4zM83.2,72H84.8V73.6H83.2zM6.4,73.6H8V75.2H6.4zM8,73.6H9.6V75.2H8zM9.6,73.6H11.2V75.2H9.6zM11.2,73.6H12.8V75.2H11.2zM12.8,73.6H14.4V75.2H12.8zM14.4,73.6H16V75.2H14.4zM16,73.6H17.6V75.2H16zM19.2,73.6H20.8V75.2H19.2zM22.4,73.6H24V75.2H22.4zM32,73.6H33.6V75.2H32zM36.8,73.6H38.4V75.2H36.8zM38.4,73.6H40V75.2H38.4zM40,73.6H41.6V75.2H40zM41.6,73.6H43.2V75.2H41.6zM44.8,73.6H46.4V75.2H44.8zM48,73.6H49.6V75.2H48zM49.6,73.6H51.2V75.2H49.6zM51.2,73.6H52.8V75.2H51.2zM52.8,73.6H54.4V75.2H52.8zM54.4,73.6H56V75.2H54.4zM59.2,73.6H60.8V75.2H59.2zM60.8,73.6H62.4V75.2H60.8zM65.6,73.6H67.2V75.2H65.6zM67.2,73.6H68.8V75.2H67.2zM70.4,73.6H72V75.2H70.4zM73.6,73.6H75.2V75.2H73.6zM76.8,73.6H78.4V75.2H76.8zM78.4,73.6H80V75.2H78.4zM80,73.6H81.6V75.2H80zM83.2,73.6H84.8V75.2H83.2zM6.4,75.2H8V76.8H6.4zM16,75.2H17.6V76.8H16zM19.2,75.2H20.8V76.8H19.2zM20.8,75.2H22.4V76.8H20.8zM22.4,75.2H24V76.8H22.4zM28.8,75.2H30.4V76.8H28.8zM30.4,75.2H32V76.8H30.4zM41.6,75.2H43.2V76.8H41.6zM48,75.2H49.6V76.8H48zM51.2,75.2H52.8V76.8H51.2zM52.8,75.2H54.4V76.8H52.8zM57.6,75.2H59.2V76.8H57.6zM59.2,75.2H60.8V76.8H59.2zM60.8,75.2H62.4V76.8H60.8zM64,75.2H65.6V76.8H64zM65.6,75.2H67.2V76.8H65.6zM67.2,75.2H68.8V76.8H67.2zM70.4,75.2H72V76.8H70.4zM76.8,75.2H78.4V76.8H76.8zM78.4,75.2H80V76.8H78.4zM6.4,76.8H8V78.4H6.4zM9.6,76.8H11.2V78.4H9.6zM11.2,76.8H12.8V78.4H11.2zM12.8,76.8H14.4V78.4H12.8zM16,76.8H17.6V78.4H16zM20.8,76.8H22.4V78.4H20.8zM25.6,76.8H27.2V78.4H25.6zM27.2,76.8H28.8V78.4H27.2zM28.8,76.8H30.4V78.4H28.8zM30.4,76.8H32V78.4H30.4zM32,76.8H33.6V78.4H32zM33.6,76.8H35.2V78.4H33.6zM36.8,76.8H38.4V78.4H36.8zM38.4,76.8H40V78.4H38.4zM40,76.8H41.6V78.4H40zM41.6,76.8H43.2V78.4H41.6zM43.2,76.8H44.8V78.4H43.2zM44.8,76.8H46.4V78.4H44.8zM46.4,76.8H48V78.4H46.4zM48,76.8H49.6V78.4H48zM57.6,76.8H59.2V78.4H57.6zM59.2,76.8H60.8V78.4H59.2zM64,76.8H65.6V78.4H64zM68.8,76.8H70.4V78.4H68.8zM70.4,76.8H72V78.4H70.4zM72,76.8H73.6V78.4H72zM73.6,76.8H75.2V78.4H73.6zM75.2,76.8H76.8V78.4H75.2zM76.8,76.8H78.4V78.4H76.8zM6.4,78.4H8V80H6.4zM9.6,78.4H11.2V80H9.6zM11.2,78.4H12.8V80H11.2zM12.8,78.4H14.4V80H12.8zM16,78.4H17.6V80H16zM27.2,78.4H28.8V80H27.2zM28.8,78.4H30.4V80H28.8zM38.4,78.4H40V80H38.4zM41.6,78.4H43.2V80H41.6zM43.2,78.4H44.8V80H43.2zM44.8,78.4H46.4V80H44.8zM49.6,78.4H51.2V80H49.6zM54.4,78.4H56V80H54.4zM57.6,78.4H59.2V80H57.6zM59.2,78.4H60.8V80H59.2zM65.6,78.4H67.2V80H65.6zM68.8,78.4H70.4V80H68.8zM72,78.4H73.6V80H72zM76.8,78.4H78.4V80H76.8zM78.4,78.4H80V80H78.4zM6.4,80H8V81.6H6.4zM9.6,80H11.2V81.6H9.6zM11.2,80H12.8V81.6H11.2zM12.8,80H14.4V81.6H12.8zM16,80H17.6V81.6H16zM19.2,80H20.8V81.6H19.2zM22.4,80H24V81.6H22.4zM24,80H25.6V81.6H24zM25.6,80H27.2V81.6H25.6zM28.8,80H30.4V81.6H28.8zM30.4,80H32V81.6H30.4zM32,80H33.6V81.6H32zM33.6,80H35.2V81.6H33.6zM41.6,80H43.2V81.6H41.6zM48,80H49.6V81.6H48zM51.2,80H52.8V81.6H51.2zM52.8,80H54.4V81.6H52.8zM56,80H57.6V81.6H56zM57.6,80H59.2V81.6H57.6zM59.2,80H60.8V81.6H59.2zM64,80H65.6V81.6H64zM68.8,80H70.4V81.6H68.8zM70.4,80H72V81.6H70.4zM72,80H73.6V81.6H72zM73.6,80H75.2V81.6H73.6zM76.8,80H78.4V81.6H76.8zM83.2,80H84.8V81.6H83.2zM6.4,81.6H8V83.2H6.4zM16,81.6H17.6V83.2H16zM24,81.6H25.6V83.2H24zM25.6,81.6H27.2V83.2H25.6zM28.8,81.6H30.4V83.2H28.8zM32,81.6H33.6V83.2H32zM35.2,81.6H36.8V83.2H35.2zM41.6,81.6H43.2V83.2H41.6zM44.8,81.6H46.4V83.2H44.8zM46.4,81.6H48V83.2H46.4zM48,81.6H49.6V83.2H48zM49.6,81.6H51.2V83.2H49.6zM54.4,81.6H56V83.2H54.4zM56,81.6H57.6V83.2H56zM57.6,81.6H59.2V83.2H57.6zM59.2,81.6H60.8V83.2H59.2zM60.8,81.6H62.4V83.2H60.8zM64,81.6H65.6V83.2H64zM65.6,81.6H67.2V83.2H65.6zM67.2,81.6H68.8V83.2H67.2zM68.8,81.6H70.4V83.2H68.8zM72,81.6H73.6V83.2H72zM75.2,81.6H76.8V83.2H75.2zM76.8,81.6H78.4V83.2H76.8zM78.4,81.6H80V83.2H78.4zM6.4,83.2H8V84.8H6.4zM8,83.2H9.6V84.8H8zM9.6,83.2H11.2V84.8H9.6zM11.2,83.2H12.8V84.8H11.2zM12.8,83.2H14.4V84.8H12.8zM14.4,83.2H16V84.8H14.4zM16,83.2H17.6V84.8H16zM20.8,83.2H22.4V84.8H20.8zM22.4,83.2H24V84.8H22.4zM32,83.2H33.6V84.8H32zM33.6,83.2H35.2V84.8H33.6zM41.6,83.2H43.2V84.8H41.6zM43.2,83.2H44.8V84.8H43.2zM44.8,83.2H46.4V84.8H44.8zM46.4,83.2H48V84.8H46.4zM48,83.2H49.6V84.8H48zM51.2,83.2H52.8V84.8H51.2zM52.8,83.2H54.4V84.8H52.8zM57.6,83.2H59.2V84.8H57.6zM64,83.2H65.6V84.8H64zM65.6,83.2H67.2V84.8H65.6zM68.8,83.2H70.4V84.8H68.8zM70.4,83.2H72V84.8H70.4zM72,83.2H73.6V84.8H72zM76.8,83.2H78.4V84.8H76.8zM78.4,83.2H80V84.8H78.4zM83.2,83.2H84.8V84.8H83.2z" id="qr-path" fill="#000000" fill-opacity="1" fill-rule="nonzero" stroke="none" /></svg>